{"glyphs":{"0":{"ha":925,"x_min":113,"x_max":812,"o":"m 463 -14 q 205 134 297 -14 q 113 525 113 279 q 205 916 113 770 q 463 1063 298 1063 q 720 916 627 1063 q 812 525 812 771 q 720 134 812 278 q 463 -14 627 -14 m 463 91 q 562 122 519 91 q 633 210 604 153 q 690 525 690 326 q 633 839 690 724 q 463 958 573 958 q 293 839 353 958 q 234 525 234 723 q 293 210 234 326 q 463 91 353 91 z "},"1":{"ha":695,"x_min":150,"x_max":461,"o":"m 346 0 l 346 843 q 351 954 346 881 l 150 954 l 153 1054 l 461 1054 l 461 0 l 346 0 z "},"2":{"ha":810,"x_min":117,"x_max":692,"o":"m 118 78 q 208 178 159 127 l 308 283 q 477 492 429 412 q 545 636 524 572 q 563 756 565 700 q 548 849 560 812 q 511 911 536 885 q 365 965 461 965 q 210 893 281 965 q 173 843 189 871 l 117 928 q 370 1063 197 1060 q 605 986 521 1066 q 686 768 686 909 q 471 304 686 556 q 377 201 426 251 l 279 102 l 692 102 l 684 0 l 137 0 l 118 78 z "},"3":{"ha":810,"x_min":106,"x_max":704,"o":"m 125 993 q 369 1063 244 1066 q 574 1002 490 1063 q 670 806 670 932 q 626 664 670 730 q 497 564 578 593 q 686 407 638 540 q 703 295 704 359 q 676 173 701 230 q 604 75 651 116 q 328 -14 502 -15 q 106 39 196 -14 l 142 142 q 311 90 231 90 q 438 106 391 90 q 517 152 486 123 q 578 300 577 208 q 507 466 580 412 q 336 511 444 513 l 296 511 l 296 606 l 332 606 q 474 652 412 604 q 546 800 546 707 q 393 957 538 939 q 359 959 375 959 q 174 900 266 959 l 125 993 z "},"4":{"ha":810,"x_min":26,"x_max":783,"o":"m 26 389 l 439 1054 l 620 1054 l 620 377 l 783 377 l 764 277 l 620 277 l 620 0 l 505 0 l 505 277 l 41 277 l 26 389 m 505 377 l 505 960 l 151 377 l 505 377 z "},"5":{"ha":810,"x_min":102,"x_max":707,"o":"m 147 142 q 342 91 233 91 q 513 150 446 91 q 587 332 585 215 q 566 452 587 414 q 524 508 545 490 q 480 536 504 525 q 282 545 395 576 q 191 509 233 532 l 102 545 l 194 1054 l 694 1054 l 685 952 l 282 952 q 264 802 284 920 l 225 618 q 484 649 359 680 q 643 549 581 625 q 707 332 707 471 q 597 69 706 162 q 342 -14 498 -15 q 155 19 242 -14 q 111 39 130 28 l 147 142 z "},"6":{"ha":810,"x_min":81,"x_max":745,"o":"m 212 581 q 430 652 293 652 q 593 611 529 652 q 719 422 688 547 q 704 193 745 311 q 541 13 659 65 q 411 -13 481 -14 q 292 4 340 -13 q 207 51 243 21 q 147 121 171 81 q 109 208 123 161 q 81 412 81 294 q 128 705 81 581 q 243 901 174 829 q 644 1065 378 1040 l 659 961 q 354 851 464 945 q 212 581 244 758 m 199 489 l 199 469 q 196 389 196 437 q 208 284 196 341 q 244 183 219 227 q 403 88 297 91 q 609 328 600 88 q 511 532 612 475 q 426 555 471 555 q 352 550 381 555 q 296 536 323 545 q 199 489 240 519 z "},"7":{"ha":810,"x_min":75,"x_max":734,"o":"m 541 833 q 609 952 582 914 l 75 952 l 78 1054 l 714 1054 l 734 983 l 279 -1 l 168 43 l 541 833 z "},"8":{"ha":810,"x_min":86,"x_max":724,"o":"m 183 57 q 113 144 139 92 q 86 257 86 197 q 103 360 86 317 q 151 438 121 404 q 309 549 208 505 q 125 722 169 605 q 110 818 110 763 q 135 921 110 873 q 201 1000 160 968 q 404 1063 283 1063 q 606 999 522 1063 q 700 811 700 928 q 579 591 700 674 q 500 549 543 566 q 707 361 659 480 q 724 257 724 317 q 697 144 724 197 q 627 57 671 92 q 404 -14 538 -12 q 183 57 271 -12 m 405 600 q 572 743 549 654 q 579 797 579 770 q 534 916 579 873 q 405 958 489 958 q 276 916 321 958 q 231 797 231 873 q 258 701 231 734 q 405 600 307 636 m 406 495 q 208 260 208 427 q 269 133 208 180 q 404 91 324 91 q 540 133 484 91 q 603 260 603 181 q 406 495 603 427 z "},"9":{"ha":810,"x_min":77,"x_max":733,"o":"m 147 87 q 530 290 422 121 q 590 435 569 351 q 405 398 513 399 q 77 728 92 390 q 176 981 77 889 q 393 1063 264 1062 q 708 842 635 1065 q 733 635 733 765 q 698 386 733 505 q 593 182 663 267 q 173 -16 449 9 l 147 87 m 614 653 q 393 961 614 961 q 252 900 307 962 q 197 732 194 835 q 306 513 199 564 q 386 495 345 495 q 454 497 427 494 q 509 503 481 499 q 607 528 566 513 q 614 653 614 587 z "},"\u0001":{"ha":0,"x_min":0,"x_max":0,"o":""},"\u0002":{"ha":0,"x_min":0,"x_max":0,"o":""},"\u0003":{"ha":0,"x_min":0,"x_max":0,"o":""},"\u0004":{"ha":0,"x_min":0,"x_max":0,"o":""},"\u0005":{"ha":0,"x_min":0,"x_max":0,"o":""},"\u0006":{"ha":0,"x_min":0,"x_max":0,"o":""},"\u0007":{"ha":0,"x_min":0,"x_max":0,"o":""},"\b":{"ha":0,"x_min":0,"x_max":0,"o":""},"\t":{"ha":0,"x_min":0,"x_max":0,"o":""},"\u0010":{"ha":0,"x_min":0,"x_max":0,"o":""},"\u0011":{"ha":0,"x_min":0,"x_max":0,"o":""},"\u0012":{"ha":0,"x_min":0,"x_max":0,"o":""},"\u0013":{"ha":0,"x_min":0,"x_max":0,"o":""},"\u0014":{"ha":0,"x_min":0,"x_max":0,"o":""},"\u0015":{"ha":0,"x_min":0,"x_max":0,"o":""},"\u0016":{"ha":0,"x_min":0,"x_max":0,"o":""},"\u0017":{"ha":0,"x_min":0,"x_max":0,"o":""},"\u0018":{"ha":0,"x_min":0,"x_max":0,"o":""},"\u0019":{"ha":0,"x_min":0,"x_max":0,"o":""}," ":{"ha":465,"x_min":0,"x_max":0,"o":""},"!":{"ha":463,"x_min":161,"x_max":301,"o":"m 166 1077 l 294 1077 l 275 264 l 184 264 l 166 1077 m 161 138 l 301 138 l 301 0 l 161 0 l 161 138 z "},"\"":{"ha":579,"x_min":109,"x_max":470,"o":"m 372 682 l 350 1086 l 470 1086 l 449 682 l 372 682 m 130 682 l 109 1086 l 229 1086 l 208 682 l 130 682 z "},"#":{"ha":926,"x_min":75,"x_max":852,"o":"m 229 340 l 75 340 l 75 429 l 243 429 l 282 665 l 135 665 l 135 753 l 296 753 l 346 1055 l 445 1055 l 397 753 l 578 753 l 629 1055 l 728 1055 l 680 753 l 852 753 l 847 665 l 665 665 l 627 429 l 792 429 l 787 340 l 614 340 l 560 11 l 456 11 l 509 340 l 331 340 l 279 11 l 175 11 l 229 340 m 526 429 l 565 665 l 382 665 l 345 429 l 526 429 z "},"$":{"ha":812,"x_min":103,"x_max":707,"o":"m 140 229 q 368 154 271 164 l 368 497 q 264 549 312 524 q 181 606 216 574 q 103 789 106 675 q 255 1004 110 947 q 368 1026 304 1023 l 368 1173 l 435 1173 l 435 1026 q 665 967 544 1020 l 638 859 q 435 920 513 911 l 435 589 q 443 585 439 586 q 480 568 448 583 q 561 525 513 552 q 641 465 608 497 q 707 300 707 399 q 552 69 707 130 q 435 45 503 50 l 435 -118 l 368 -118 l 368 45 q 114 123 248 49 l 140 229 m 368 920 q 227 791 234 908 q 312 652 218 709 q 368 621 339 635 l 368 920 m 435 154 q 575 235 545 163 q 587 289 584 258 q 576 348 589 320 q 541 397 563 376 q 435 465 507 429 l 435 154 z "},"%":{"ha":1273,"x_min":83,"x_max":1190,"o":"m 276 22 l 928 1094 l 1004 1055 l 354 -19 l 276 22 m 437 526 q 333 507 391 507 q 229 526 275 507 q 149 581 182 545 q 83 789 83 654 q 149 998 83 923 q 334 1072 216 1072 q 514 998 449 1072 q 579 789 579 922 q 437 526 579 585 m 334 590 q 385 602 360 590 q 429 637 410 613 q 471 789 471 692 q 429 941 471 886 q 334 989 391 989 q 236 941 275 989 q 194 789 194 887 q 236 637 194 691 q 334 590 274 590 m 711 160 q 694 281 694 213 q 711 401 694 349 q 761 490 728 453 q 945 564 827 564 q 1124 490 1059 564 q 1190 281 1190 414 q 1124 72 1190 146 q 945 -1 1060 -1 q 711 160 764 -1 m 805 281 q 817 192 805 229 q 848 130 828 154 q 945 81 886 81 q 1039 130 1001 81 q 1082 281 1082 183 q 1039 433 1082 379 q 945 481 1001 481 q 848 433 886 481 q 805 281 805 379 z "},"&":{"ha":1042,"x_min":111,"x_max":962,"o":"m 736 110 q 437 -14 616 -14 q 217 65 311 -14 q 111 265 121 146 q 111 276 111 271 q 111 287 111 281 q 176 473 111 388 q 336 599 236 551 q 254 813 261 692 q 319 989 250 917 q 485 1060 386 1060 q 647 1000 585 1060 q 709 848 709 941 q 628 667 709 736 q 595 640 615 656 l 482 556 q 491 543 487 550 q 507 523 496 536 q 734 267 665 335 q 825 395 781 307 q 848 449 838 421 l 947 378 q 800 189 879 254 l 962 61 l 859 -25 l 736 110 m 430 635 q 581 787 537 694 q 596 865 596 820 q 568 937 596 910 q 500 963 540 963 q 436 951 460 963 q 395 918 412 939 q 362 815 362 877 q 424 646 362 736 l 430 635 m 288 151 q 302 137 288 151 q 357 106 317 123 q 438 90 398 90 q 508 97 477 90 q 567 116 538 104 q 672 178 623 140 l 375 513 q 265 422 319 493 q 226 308 226 361 q 242 217 226 254 q 288 151 258 179 z "},"'":{"ha":347,"x_min":113,"x_max":234,"o":"m 135 682 l 113 1086 l 234 1086 l 212 682 l 135 682 z "},"(":{"ha":579,"x_min":146,"x_max":432,"o":"m 342 -181 q 159 305 199 36 q 146 465 146 387 q 256 955 146 711 q 342 1109 293 1036 l 432 1065 q 264 613 298 868 q 254 465 254 536 q 351 8 254 225 q 432 -135 385 -67 l 342 -181 z "},")":{"ha":579,"x_min":146,"x_max":432,"o":"m 236 -181 q 420 305 380 36 q 432 465 432 387 q 322 955 432 711 q 236 1109 286 1036 l 146 1065 q 315 613 281 868 q 325 465 325 536 q 227 8 325 225 q 146 -135 193 -67 l 236 -181 z "},"*":{"ha":810,"x_min":123,"x_max":687,"o":"m 404 921 q 375 915 392 921 l 357 1029 q 349 1099 349 1062 l 349 1143 l 460 1143 l 460 1123 q 453 1029 460 1067 l 431 915 q 404 921 418 921 m 471 861 q 444 909 469 885 l 537 979 q 582 1010 557 996 l 633 1039 l 687 942 l 675 934 l 632 913 q 578 892 605 901 l 581 892 l 477 859 l 471 861 m 365 909 q 336 859 339 884 l 227 892 q 203 902 216 897 q 156 924 169 918 l 136 934 l 125 941 l 175 1039 q 272 979 233 1013 l 365 909 m 446 800 q 474 852 468 819 l 581 816 l 578 816 q 625 801 604 810 l 675 777 q 687 771 681 771 l 633 672 q 617 680 629 674 l 591 694 q 537 731 555 715 l 446 800 m 123 772 l 136 777 q 227 816 200 810 l 332 850 l 336 848 q 363 800 339 818 l 272 731 q 213 691 245 708 q 175 672 181 674 l 123 772 m 375 792 q 402 786 387 786 q 433 789 418 786 l 453 677 q 460 606 460 642 l 460 565 l 349 565 l 349 585 q 357 677 349 646 l 375 792 z "},"+":{"ha":811,"x_min":92,"x_max":718,"o":"m 362 479 l 92 479 l 92 558 l 362 558 l 362 828 l 448 828 l 448 558 l 718 558 l 718 479 l 448 479 l 448 208 l 362 208 l 362 479 z "},",":{"ha":463,"x_min":132,"x_max":331,"o":"m 132 -142 q 199 22 189 -49 q 205 83 204 50 l 205 181 l 331 189 l 331 123 q 238 -170 331 -70 l 132 -142 z "},"-":{"ha":578,"x_min":85,"x_max":493,"o":"m 85 455 l 493 455 l 493 351 l 85 351 l 85 455 z "},".":{"ha":463,"x_min":153,"x_max":310,"o":"m 153 138 l 310 138 l 310 0 l 153 0 l 153 138 z "},"/":{"ha":694,"x_min":58,"x_max":635,"o":"m 541 1176 l 635 1138 l 153 -77 l 58 -39 l 541 1176 z "},":":{"ha":463,"x_min":161,"x_max":301,"o":"m 161 785 l 301 785 l 301 637 l 161 637 l 161 785 m 161 148 l 301 148 l 301 0 l 161 0 l 161 148 z "},";":{"ha":463,"x_min":101,"x_max":301,"o":"m 161 785 l 301 785 l 301 637 l 161 637 l 161 785 m 101 -142 q 170 22 158 -52 q 175 83 174 50 l 175 181 l 300 189 l 300 123 q 208 -170 300 -70 l 101 -142 z "},"<":{"ha":693,"x_min":106,"x_max":547,"o":"m 106 524 l 485 818 l 547 747 l 193 484 l 547 220 l 485 149 l 106 443 l 106 524 z "},"=":{"ha":811,"x_min":124,"x_max":687,"o":"m 124 570 l 687 570 l 687 483 l 124 483 l 124 570 m 124 210 l 687 210 l 687 123 l 124 123 l 124 210 z "},">":{"ha":693,"x_min":146,"x_max":587,"o":"m 208 149 l 146 220 l 500 484 l 146 747 l 208 818 l 587 524 l 587 443 l 208 149 z "},"?":{"ha":811,"x_min":116,"x_max":695,"o":"m 372 970 q 155 906 275 970 l 116 1009 q 498 1065 298 1107 q 668 955 619 1040 q 694 857 693 911 q 685 767 695 803 q 657 701 675 732 q 617 640 640 669 l 514 513 q 411 264 418 391 l 288 264 q 448 609 304 444 l 494 661 q 572 833 572 752 q 452 962 572 936 q 372 970 415 970 m 281 138 l 420 138 l 420 0 l 281 0 l 281 138 z "},"@":{"ha":1389,"x_min":108,"x_max":1280,"o":"m 1042 -141 q 746 -193 897 -193 q 480 -153 596 -193 q 282 -35 365 -113 q 108 414 108 127 q 279 903 108 741 q 722 1053 437 1053 q 1112 918 957 1053 q 1280 507 1280 770 q 1211 205 1280 317 q 1034 83 1147 100 q 1002 81 1019 81 q 965 86 985 81 q 928 102 945 91 q 875 168 890 124 q 689 89 796 89 q 620 97 665 89 q 532 138 575 104 q 464 218 490 172 q 420 424 416 305 q 679 741 433 741 q 870 684 774 741 l 875 741 l 963 728 q 958 648 958 697 l 958 234 q 973 187 958 203 q 1007 171 988 171 q 1049 179 1026 171 q 1097 213 1072 187 q 1141 279 1123 238 q 1178 493 1178 365 q 1142 706 1178 621 q 1043 848 1105 791 q 720 960 920 960 q 245 662 347 960 q 210 425 210 558 q 247 197 210 292 q 352 35 283 101 q 736 -100 492 -100 q 998 -57 865 -100 l 1042 -141 m 556 579 q 547 563 556 579 q 531 505 538 547 q 522 417 524 464 q 530 326 521 370 q 562 247 540 281 q 703 172 608 172 q 798 194 754 172 q 865 234 842 216 l 865 621 q 694 657 753 660 q 604 633 634 654 q 556 579 574 612 z "},"A":{"ha":1042,"x_min":30,"x_max":1012,"o":"m 446 1054 l 596 1054 l 1012 0 l 878 0 l 768 292 l 273 292 l 165 0 l 30 0 l 446 1054 m 729 389 l 621 673 q 583 780 598 734 l 553 871 q 521 967 538 916 q 491 877 505 922 q 460 781 491 877 q 313 389 460 781 l 729 389 z "},"B":{"ha":926,"x_min":134,"x_max":842,"o":"m 134 1055 l 395 1055 q 667 1000 579 1055 q 774 787 770 936 q 681 583 776 649 q 618 552 652 563 q 768 490 705 549 q 838 298 842 419 q 734 68 834 140 q 423 0 633 -3 l 134 0 l 134 1055 m 426 585 q 652 787 659 578 q 505 947 650 922 q 395 954 456 954 l 250 954 l 250 585 l 426 585 m 423 102 q 633 137 564 99 q 716 284 713 181 q 625 463 720 422 q 512 486 574 484 q 410 488 450 488 l 250 488 l 250 102 l 423 102 z "},"C":{"ha":926,"x_min":78,"x_max":904,"o":"m 579 -14 q 78 525 78 -14 q 414 1046 78 962 q 568 1063 487 1063 q 878 1002 725 1063 l 842 901 q 593 957 701 957 q 417 936 486 957 q 298 861 347 914 q 199 525 203 759 q 290 205 203 309 q 581 94 384 94 q 868 157 717 94 l 904 55 q 579 -14 744 -14 z "},"D":{"ha":1045,"x_min":149,"x_max":970,"o":"m 149 0 l 149 1054 l 476 1054 q 945 745 865 1054 q 970 526 970 648 l 970 498 q 841 131 970 260 q 471 0 710 0 l 149 0 m 267 106 l 471 106 q 753 214 654 106 q 849 498 849 318 l 849 526 q 760 842 845 743 q 473 947 670 947 l 267 947 l 267 106 z "},"E":{"ha":811,"x_min":149,"x_max":764,"o":"m 149 1054 l 751 1054 l 745 945 l 267 945 l 267 593 l 694 593 l 694 486 l 267 486 l 267 108 l 758 108 l 764 0 l 149 0 l 149 1054 z "},"F":{"ha":811,"x_min":149,"x_max":747,"o":"m 149 1054 l 747 1054 l 741 945 l 267 945 l 267 593 l 690 593 l 690 486 l 267 486 l 267 0 l 149 0 l 149 1054 z "},"G":{"ha":1042,"x_min":105,"x_max":937,"o":"m 585 1064 l 612 1063 q 913 996 777 1057 l 874 895 q 627 957 745 954 q 435 927 508 960 q 316 836 362 895 q 226 502 226 719 q 323 201 234 300 q 655 91 430 82 q 821 132 753 95 l 821 467 l 637 467 l 637 574 l 937 574 l 937 55 q 682 -11 817 3 q 604 -14 640 -15 q 136 293 224 0 q 106 481 107 387 q 116 647 105 576 q 150 781 126 718 q 210 895 173 843 q 301 985 248 947 q 585 1064 412 1064 z "},"H":{"ha":1042,"x_min":116,"x_max":925,"o":"m 116 0 l 116 1054 l 233 1054 l 233 602 l 808 602 l 808 1054 l 925 1054 l 925 0 l 808 0 l 808 497 l 233 497 l 233 0 l 116 0 z "},"I":{"ha":348,"x_min":115,"x_max":233,"o":"m 115 1054 l 233 1054 l 233 0 l 115 0 l 115 1054 z "},"J":{"ha":578,"x_min":39,"x_max":461,"o":"m 56 117 q 167 91 108 91 q 260 106 226 91 q 312 152 294 122 q 344 317 344 201 l 344 1054 l 461 1054 l 461 325 q 447 159 461 214 q 406 71 433 104 q 342 18 378 37 q 171 -14 279 -14 q 39 -1 94 -14 l 56 117 z "},"K":{"ha":926,"x_min":149,"x_max":890,"o":"m 658 144 l 562 265 q 518 317 526 309 q 393 458 427 418 q 320 547 393 458 l 320 569 l 726 1054 l 882 1054 l 456 561 q 667 319 640 352 l 750 220 l 890 58 l 776 -16 q 658 144 718 67 m 149 0 l 149 1054 l 267 1054 l 267 0 l 149 0 z "},"L":{"ha":812,"x_min":114,"x_max":715,"o":"m 114 0 l 114 1054 l 231 1054 l 231 110 l 715 110 l 710 0 l 114 0 z "},"M":{"ha":1275,"x_min":112,"x_max":1162,"o":"m 112 0 l 112 1054 l 308 1054 l 637 191 l 970 1054 l 1162 1054 l 1162 0 l 1045 0 l 1045 764 q 1046 869 1045 818 q 1048 961 1047 920 l 715 102 l 558 102 l 227 961 l 228 883 q 229 764 229 818 l 229 0 l 112 0 z "},"N":{"ha":1042,"x_min":112,"x_max":929,"o":"m 112 1054 l 286 1054 l 729 276 l 812 111 l 812 1054 l 929 1054 l 929 0 l 757 0 l 311 782 l 229 943 l 229 0 l 112 0 l 112 1054 z "},"O":{"ha":1158,"x_min":91,"x_max":1067,"o":"m 91 522 q 127 751 91 650 q 229 921 163 851 q 586 1063 364 1063 q 944 921 820 1063 q 1067 522 1067 781 q 928 127 1067 271 q 571 -14 793 -14 q 220 127 348 -14 q 91 522 91 269 m 212 521 q 236 335 211 416 q 309 199 261 254 q 581 93 406 90 q 849 205 752 94 q 947 530 949 319 q 571 957 941 957 q 308 843 402 957 q 212 521 213 728 z "},"P":{"ha":924,"x_min":141,"x_max":850,"o":"m 141 1054 l 433 1054 q 827 848 758 1058 q 849 696 850 779 q 820 546 847 612 q 742 430 793 479 q 434 330 631 327 l 259 330 l 259 0 l 141 0 l 141 1054 m 434 431 q 705 583 641 429 q 727 694 726 632 q 712 804 728 756 q 662 884 697 851 q 433 949 591 949 l 259 949 l 259 431 l 434 431 z "},"Q":{"ha":1156,"x_min":81,"x_max":1057,"o":"m 719 7 q 547 -14 643 -14 q 361 22 450 -14 q 210 127 273 58 q 81 522 81 269 q 220 921 81 774 q 576 1063 355 1063 q 935 921 810 1063 q 1057 522 1057 781 q 920 127 1057 271 q 821 51 876 82 l 1000 -165 l 886 -241 q 833 -158 862 -206 q 771 -64 804 -111 l 719 7 m 202 521 q 227 335 201 416 q 300 199 252 254 q 571 93 397 90 q 840 205 743 94 q 937 530 940 319 q 562 957 932 957 q 298 843 393 957 q 202 521 203 728 z "},"R":{"ha":926,"x_min":149,"x_max":860,"o":"m 484 390 q 420 387 463 387 l 267 387 l 267 0 l 149 0 l 149 1054 l 436 1054 q 810 856 749 1058 q 829 716 829 793 q 770 517 823 594 q 606 408 716 441 l 635 362 q 684 289 656 330 l 860 60 l 739 -14 q 665 112 705 49 l 534 315 q 484 390 511 352 m 420 490 q 686 613 632 488 q 707 715 705 656 q 695 817 709 774 q 648 890 681 861 q 436 949 583 951 l 267 949 l 267 490 l 420 490 z "},"S":{"ha":810,"x_min":78,"x_max":736,"o":"m 431 1063 l 453 1064 q 686 1024 555 1064 l 664 922 q 260 873 363 1019 q 229 781 229 831 q 246 702 229 731 q 291 651 262 673 q 414 587 336 616 q 546 530 493 557 q 642 466 600 503 q 736 276 736 384 q 698 130 736 188 q 612 41 661 71 q 382 -14 522 -14 q 78 42 239 -14 l 99 146 q 385 91 229 97 q 581 168 516 86 q 614 258 614 212 q 596 334 614 304 q 547 389 578 364 q 414 463 492 436 q 287 515 337 490 q 197 575 237 540 q 109 774 109 653 q 298 1040 109 971 q 431 1063 362 1063 z "},"T":{"ha":1044,"x_min":115,"x_max":922,"o":"m 463 0 l 463 945 l 115 945 l 115 1054 l 922 1054 l 922 945 l 581 945 l 581 0 l 463 0 z "},"U":{"ha":1042,"x_min":133,"x_max":909,"o":"m 133 1054 l 250 1054 l 250 472 q 260 310 250 361 q 286 221 269 258 q 332 155 302 183 q 521 94 397 94 q 755 221 699 94 q 789 361 786 291 q 791 472 791 431 l 791 1054 l 909 1054 l 909 472 q 895 260 909 326 q 855 147 880 195 q 787 64 831 99 q 521 -14 694 -14 q 186 146 267 -14 q 136 359 142 235 q 133 472 133 417 l 133 1054 z "},"V":{"ha":925,"x_min":4,"x_max":920,"o":"m 4 1054 l 139 1054 l 463 104 l 785 1054 l 920 1054 l 541 0 l 383 0 l 4 1054 z "},"W":{"ha":1389,"x_min":12,"x_max":1377,"o":"m 309 0 l 218 309 l 12 1054 l 145 1054 l 330 334 l 387 108 l 439 334 l 624 1054 l 768 1054 l 951 334 l 1002 108 l 1244 1054 l 1377 1054 l 1177 326 l 1081 0 l 922 0 l 743 702 l 698 917 l 692 917 l 646 702 l 467 0 l 309 0 z "},"X":{"ha":924,"x_min":54,"x_max":870,"o":"m 377 538 l 67 1054 l 206 1054 l 359 781 l 460 618 l 563 781 l 718 1054 l 858 1054 l 545 538 l 870 0 l 729 0 l 587 248 l 460 460 l 336 248 l 195 0 l 54 0 l 377 538 z "},"Y":{"ha":811,"x_min":-14,"x_max":825,"o":"m 346 385 q 255 548 300 463 q -14 1054 35 971 l 125 1054 l 406 496 l 686 1054 l 825 1054 l 464 385 l 464 0 l 346 0 l 346 385 z "},"Z":{"ha":811,"x_min":41,"x_max":769,"o":"m 41 81 l 577 947 l 79 947 l 79 1054 l 713 1054 l 732 973 l 194 106 l 769 106 l 762 0 l 61 0 l 41 81 z "},"[":{"ha":579,"x_min":136,"x_max":443,"o":"m 136 -181 l 136 1092 l 436 1092 l 435 1004 l 235 1004 l 235 -93 l 441 -93 l 443 -181 l 136 -181 z "},"\\":{"ha":694,"x_min":58,"x_max":635,"o":"m 153 1176 l 58 1138 l 541 -77 l 635 -39 l 153 1176 z "},"]":{"ha":579,"x_min":136,"x_max":443,"o":"m 443 -181 l 443 1092 l 143 1092 l 144 1004 l 344 1004 l 344 -93 l 138 -93 l 136 -181 l 443 -181 z "},"^":{"ha":810,"x_min":75,"x_max":734,"o":"m 75 601 l 364 1003 l 446 1003 l 734 601 l 661 543 l 405 909 l 149 543 l 75 601 z "},"_":{"ha":810,"x_min":-3,"x_max":813,"o":"m 813 -138 l 813 -215 l -3 -215 l -3 -138 l 813 -138 z "},"`":{"ha":344,"x_min":5,"x_max":338,"o":"m 276 879 l 5 1113 l 81 1196 l 338 948 l 276 879 z "},"a":{"ha":811,"x_min":73,"x_max":720,"o":"m 720 -6 q 664 -14 697 -14 q 609 -6 631 -14 q 572 15 588 1 q 533 83 542 41 q 401 -2 496 27 q 229 1 316 -28 q 94 116 136 33 q 73 209 73 158 q 93 294 73 259 q 145 351 113 329 q 309 403 206 394 q 521 414 391 411 l 521 536 q 511 644 521 623 q 488 677 501 666 q 394 694 465 694 l 368 694 q 163 659 262 688 l 144 760 q 377 794 262 794 q 591 732 541 794 q 628 641 622 695 q 635 541 634 587 l 635 153 q 645 84 635 96 q 670 73 656 73 q 712 78 684 73 l 720 -6 m 521 248 q 524 337 521 296 q 224 292 286 337 q 189 216 189 267 q 229 119 189 157 q 330 83 268 83 q 521 159 450 80 l 521 248 z "},"b":{"ha":926,"x_min":132,"x_max":796,"o":"m 136 35 q 132 1099 136 951 l 250 1108 l 250 703 q 472 794 367 794 q 709 691 623 794 q 793 394 796 585 q 640 47 791 150 q 419 -14 549 -14 q 136 35 290 -14 m 250 271 l 250 168 q 249 106 249 138 q 391 85 327 85 q 498 95 455 85 q 581 136 541 104 q 646 232 620 167 q 672 381 671 297 q 661 522 673 466 q 623 616 648 578 q 475 695 570 695 q 250 606 353 695 l 250 271 z "},"c":{"ha":694,"x_min":75,"x_max":651,"o":"m 651 24 q 453 -14 553 -14 q 287 9 353 -14 q 174 81 221 33 q 75 389 75 184 q 422 795 75 795 l 446 794 q 573 777 534 791 q 629 756 611 764 l 603 656 q 430 694 517 694 l 418 694 q 196 391 196 694 q 269 152 196 230 q 434 87 330 87 q 633 124 538 87 l 651 24 z "},"d":{"ha":929,"x_min":90,"x_max":758,"o":"m 640 102 q 390 -14 521 -14 q 118 189 185 -16 q 92 375 90 276 q 112 549 94 475 q 167 678 130 623 q 408 794 248 794 q 639 738 531 792 l 639 1108 l 753 1099 l 753 741 q 758 0 753 73 l 652 0 l 640 102 m 642 654 q 416 695 545 692 q 223 507 252 695 q 245 183 192 303 q 399 87 288 87 q 640 202 532 87 l 640 536 q 641 593 640 564 q 642 654 642 622 z "},"e":{"ha":811,"x_min":82,"x_max":716,"o":"m 649 24 q 450 -14 549 -14 q 156 110 246 -14 q 82 398 82 210 q 166 690 82 587 q 415 794 251 793 q 646 680 568 794 q 716 387 716 576 l 716 362 l 201 362 q 349 100 213 146 q 459 87 391 87 q 627 124 528 87 l 649 24 m 594 454 q 552 629 586 571 q 347 686 493 726 q 227 581 267 665 q 201 454 203 530 l 594 454 z "},"f":{"ha":579,"x_min":76,"x_max":551,"o":"m 307 916 l 309 848 l 309 785 l 501 785 l 501 689 l 309 689 l 309 0 l 193 0 l 193 689 l 76 689 l 76 785 l 193 785 l 193 855 q 191 907 191 881 q 194 957 191 932 q 205 1002 197 981 q 260 1066 220 1042 q 432 1109 328 1109 q 551 1099 479 1109 l 536 987 q 402 1013 449 1013 q 335 992 355 1013 q 311 955 315 972 q 307 916 307 938 z "},"g":{"ha":811,"x_min":66,"x_max":813,"o":"m 375 259 q 262 277 310 259 q 227 243 243 267 q 201 188 201 205 q 233 135 201 156 q 306 117 262 117 q 386 122 351 117 q 496 132 446 132 q 592 122 545 132 q 676 89 640 112 q 763 -64 757 38 q 635 -288 766 -207 q 383 -359 528 -355 q 163 -309 252 -363 q 111 -264 133 -290 q 66 -139 66 -213 q 132 24 66 -45 q 179 63 153 47 q 101 174 101 104 q 129 252 101 217 q 208 306 156 287 q 101 524 101 372 q 191 725 101 650 q 391 794 273 794 q 530 770 469 794 q 614 766 552 766 q 795 791 676 766 l 813 692 q 757 689 785 690 q 696 686 729 687 l 630 683 q 672 565 663 644 q 675 524 675 543 q 585 323 675 395 q 375 259 506 259 m 562 524 q 510 675 565 630 q 385 703 469 706 q 228 598 267 694 q 214 526 215 566 q 256 395 212 439 q 381 350 300 350 q 512 397 462 350 q 562 524 562 445 m 334 16 q 242 30 281 16 q 182 -66 197 2 q 177 -110 177 -87 q 206 -198 177 -163 q 382 -258 254 -261 q 540 -228 484 -255 q 642 -90 642 -179 q 498 26 640 26 l 334 16 z "},"h":{"ha":926,"x_min":144,"x_max":783,"o":"m 148 0 l 146 956 q 144 1099 144 1078 l 260 1108 l 260 689 q 530 794 414 794 q 765 658 720 794 q 783 547 781 611 l 783 0 l 669 0 l 669 505 q 639 651 669 609 q 534 692 610 692 q 332 641 434 692 q 262 602 298 624 l 263 541 q 264 436 264 489 l 264 0 l 148 0 z "},"i":{"ha":464,"x_min":174,"x_max":290,"o":"m 174 1099 l 290 1099 l 290 937 l 174 937 l 174 1099 m 174 785 l 290 785 l 290 0 l 174 0 l 174 785 z "},"j":{"ha":464,"x_min":-60,"x_max":291,"o":"m 174 1099 l 290 1099 l 290 937 l 174 937 l 174 1099 m 176 -136 l 174 -24 l 174 785 l 290 785 l 290 -24 l 291 -81 q 278 -224 291 -184 q 247 -286 266 -264 q 197 -321 229 -308 q 56 -347 139 -347 q -60 -337 9 -347 l -47 -226 q 82 -252 37 -252 q 148 -231 128 -252 q 172 -190 168 -210 q 176 -136 176 -170 z "},"k":{"ha":812,"x_min":136,"x_max":758,"o":"m 140 0 q 138 956 140 0 q 136 1099 136 1078 l 255 1108 l 256 471 l 256 0 l 140 0 m 518 159 l 323 395 q 291 435 299 423 l 603 785 l 753 785 l 426 435 q 439 418 429 430 q 535 302 516 327 l 758 61 l 648 -14 q 518 159 589 73 z "},"l":{"ha":473,"x_min":127,"x_max":485,"o":"m 247 212 q 267 114 243 138 q 335 90 290 90 q 463 113 379 90 l 485 14 q 342 -13 395 -11 q 251 -5 289 -14 q 186 28 213 4 q 130 204 127 81 l 132 1099 l 248 1108 l 247 212 z "},"m":{"ha":1390,"x_min":132,"x_max":1246,"o":"m 140 0 l 140 230 q 138 604 140 523 l 136 711 q 132 785 134 773 l 248 791 q 247 769 248 783 q 247 736 247 756 l 247 686 l 298 722 q 494 794 401 794 q 643 765 587 794 q 725 675 698 736 q 777 711 734 681 q 850 757 820 741 q 990 794 922 794 q 1181 735 1119 794 q 1246 547 1242 675 l 1246 0 l 1131 0 l 1131 505 q 1100 651 1131 610 q 995 692 1069 692 q 885 675 928 692 q 812 641 842 658 l 747 602 l 745 601 q 750 547 750 578 l 750 0 l 635 0 l 635 505 q 605 651 635 609 q 500 692 576 692 q 391 675 434 692 q 318 641 348 658 l 253 602 l 254 541 q 256 436 256 489 l 256 0 l 140 0 z "},"n":{"ha":926,"x_min":132,"x_max":777,"o":"m 140 0 l 140 230 q 138 604 140 523 l 136 711 q 132 785 134 773 l 248 791 q 247 769 248 783 q 247 736 247 756 l 247 686 q 527 794 406 794 q 711 735 649 794 q 777 547 774 675 l 777 0 l 661 0 l 661 505 q 631 651 661 609 q 526 692 601 692 q 324 641 425 692 q 253 602 290 624 l 254 541 q 256 436 256 489 l 256 0 l 140 0 z "},"o":{"ha":924,"x_min":111,"x_max":813,"o":"m 111 382 q 138 558 111 480 q 213 688 165 635 q 468 794 310 794 q 726 689 637 794 q 813 389 813 586 q 709 86 813 195 q 458 -14 613 -14 q 205 88 296 -14 q 111 382 111 191 m 460 85 q 689 389 689 85 q 564 675 685 617 q 464 695 522 695 q 363 674 407 695 q 290 614 320 654 q 232 386 230 532 q 291 162 233 239 q 460 85 348 85 z "},"p":{"ha":926,"x_min":127,"x_max":795,"o":"m 446 -14 q 250 33 356 -14 l 250 -325 l 134 -325 q 127 785 134 659 l 240 794 l 240 673 q 487 794 354 791 q 769 586 703 799 q 795 407 795 502 q 775 236 795 311 q 715 104 755 160 q 460 -14 627 -14 q 446 -14 453 -14 m 246 579 l 250 420 l 250 132 q 372 92 336 97 q 542 101 488 75 q 624 170 595 127 q 675 399 677 249 q 578 671 673 608 q 498 694 543 694 q 420 684 452 693 q 360 663 387 675 q 313 636 334 651 q 278 610 292 622 q 255 589 263 597 q 246 579 247 580 z "},"q":{"ha":926,"x_min":96,"x_max":751,"o":"m 747 743 l 747 161 q 751 -316 747 -228 l 632 -325 l 631 223 l 631 515 q 632 604 631 566 q 633 672 633 643 q 392 684 510 708 q 252 566 300 664 q 217 381 217 494 l 217 364 q 331 104 217 159 q 558 104 416 63 l 565 11 q 415 -12 486 -11 q 284 11 344 -12 q 183 81 224 35 q 96 370 96 180 l 96 384 q 122 551 96 474 q 194 680 149 627 q 460 789 290 789 q 747 743 578 789 z "},"r":{"ha":578,"x_min":132,"x_max":572,"o":"m 252 503 q 254 373 254 452 l 254 0 l 140 0 q 132 785 140 720 l 244 794 l 244 604 q 486 794 334 794 q 572 786 538 794 l 547 665 q 474 682 515 682 q 401 664 434 682 q 340 618 368 646 q 291 560 313 591 l 252 503 z "},"s":{"ha":694,"x_min":86,"x_max":606,"o":"m 551 664 q 378 692 472 692 q 257 629 291 692 q 244 584 247 611 q 252 532 241 556 q 283 490 262 508 q 366 440 315 460 q 444 408 418 420 q 494 382 470 397 q 538 350 517 368 q 574 309 559 332 q 604 197 606 260 q 580 95 602 134 q 521 33 558 56 q 327 -14 451 -14 q 86 31 203 -14 l 106 134 q 330 88 214 91 q 471 145 439 84 q 475 237 496 191 q 399 308 456 279 q 338 336 372 322 q 265 369 304 350 q 194 416 226 388 q 123 579 123 479 l 123 589 q 148 681 123 641 q 209 745 173 720 q 380 794 278 791 q 574 764 482 794 l 551 664 z "},"t":{"ha":578,"x_min":42,"x_max":545,"o":"m 545 24 q 352 -14 448 -14 q 214 28 258 -12 q 165 176 165 73 q 165 190 165 183 q 166 204 165 197 l 170 689 l 42 689 l 45 785 l 174 785 q 166 947 174 898 l 283 966 l 288 785 l 502 785 l 502 689 l 286 689 l 283 212 q 295 121 280 143 q 329 94 310 100 q 389 88 347 88 q 524 119 431 88 l 545 24 z "},"u":{"ha":924,"x_min":123,"x_max":771,"o":"m 762 656 l 762 317 q 771 0 762 42 l 665 0 l 652 110 q 461 -4 570 24 q 373 -13 423 -14 q 274 5 322 -12 q 193 56 226 23 q 126 250 123 125 l 126 785 l 241 794 l 241 290 q 273 137 241 183 q 381 89 305 90 q 521 117 457 88 q 652 202 585 146 l 649 252 q 647 344 647 284 l 647 785 l 763 794 q 762 656 762 720 z "},"v":{"ha":811,"x_min":47,"x_max":763,"o":"m 47 785 l 174 785 l 407 91 l 637 785 l 763 785 l 488 0 l 325 0 l 47 785 z "},"w":{"ha":1157,"x_min":-1,"x_max":1158,"o":"m 241 0 l -1 785 l 130 785 l 321 71 l 347 174 l 509 785 l 650 785 l 811 174 l 836 71 l 1027 785 l 1158 785 l 916 0 l 747 0 l 600 579 l 579 686 l 557 579 l 411 0 l 241 0 z "},"x":{"ha":694,"x_min":8,"x_max":686,"o":"m 283 405 l 24 785 l 162 785 l 350 488 l 536 785 l 667 785 l 412 400 l 686 52 l 572 -19 q 464 148 521 64 q 344 316 464 148 l 146 0 l 8 0 l 283 405 z "},"y":{"ha":810,"x_min":43,"x_max":759,"o":"m 43 785 l 170 785 l 399 91 l 630 785 l 759 785 l 341 -366 l 208 -320 q 376 0 345 -62 l 319 0 l 43 785 z "},"z":{"ha":695,"x_min":47,"x_max":647,"o":"m 47 83 l 473 684 l 68 684 l 68 785 l 620 785 l 620 700 l 195 100 l 647 100 l 640 0 l 66 0 l 47 83 z "},"{":{"ha":578,"x_min":108,"x_max":471,"o":"m 471 -178 q 213 83 213 -165 l 213 223 q 198 368 213 342 q 162 402 182 395 q 108 410 141 409 l 108 503 q 162 512 141 505 q 194 538 182 519 q 213 690 213 572 l 213 830 q 358 1070 213 1017 q 471 1092 408 1088 l 471 1002 q 313 830 313 985 l 313 690 q 247 469 313 498 q 210 456 228 460 q 247 445 228 452 q 279 413 265 437 q 313 223 313 358 l 313 83 q 366 -51 313 -7 q 471 -88 404 -81 l 471 -178 z "},"|":{"ha":347,"x_min":120,"x_max":227,"o":"m 120 1144 l 227 1144 l 227 -223 l 120 -223 l 120 1144 z "},"}":{"ha":578,"x_min":108,"x_max":471,"o":"m 108 -178 q 366 83 366 -165 l 366 223 q 381 368 366 342 q 417 402 396 395 q 471 410 437 409 l 471 503 q 417 512 437 505 q 385 538 396 519 q 366 690 366 572 l 366 830 q 220 1070 366 1017 q 108 1092 170 1088 l 108 1002 q 265 830 265 985 l 265 690 q 332 469 265 498 q 369 456 351 460 q 332 445 351 452 q 299 413 313 437 q 265 223 265 358 l 265 83 q 212 -51 265 -7 q 108 -88 175 -81 l 108 -178 z "},"~":{"ha":926,"x_min":68,"x_max":857,"o":"m 68 395 q 136 534 104 494 q 351 606 219 638 q 436 572 403 593 l 489 538 q 631 473 590 473 q 699 508 671 473 q 751 620 727 543 l 857 590 q 787 449 817 486 q 522 397 686 323 q 476 422 498 409 l 436 449 q 295 512 337 512 q 225 477 254 512 q 174 366 197 442 l 68 395 z "}," ":{"ha":334,"x_min":0,"x_max":0,"o":""},"¡":{"ha":463,"x_min":161,"x_max":301,"o":"m 161 807 l 161 945 l 301 945 l 301 807 l 161 807 m 166 -132 l 185 682 l 275 682 l 295 -132 l 166 -132 z "},"¢":{"ha":812,"x_min":104,"x_max":667,"o":"m 667 177 q 454 140 572 140 l 450 140 l 450 -35 l 382 -35 l 382 144 q 104 526 104 179 q 382 903 104 873 l 382 1067 l 450 1067 l 450 906 l 466 906 q 587 889 546 903 q 646 870 629 876 l 620 771 q 462 808 544 805 l 450 808 l 450 237 l 454 237 q 651 275 548 237 l 667 177 m 382 802 q 222 524 222 770 q 382 244 222 287 l 382 802 z "},"£":{"ha":810,"x_min":57,"x_max":725,"o":"m 652 927 q 507 960 576 960 q 349 730 384 960 l 341 680 q 333 621 336 651 q 324 560 329 591 l 642 560 l 638 467 l 310 467 q 203 111 269 209 l 725 111 l 722 11 l 59 11 l 59 118 q 203 467 151 167 l 57 467 l 57 560 l 218 560 l 231 689 q 345 1009 252 920 q 501 1067 406 1067 q 691 1019 586 1067 l 652 927 z "},"¤":{"ha":926,"x_min":112,"x_max":814,"o":"m 585 281 q 463 256 536 256 q 337 281 389 256 l 295 218 q 190 99 271 178 l 112 178 q 154 222 127 197 l 197 260 q 229 286 215 276 l 283 322 q 232 474 232 377 q 283 626 232 571 l 229 662 q 197 686 215 671 q 112 770 131 747 l 190 849 q 295 730 272 768 l 337 667 q 461 692 391 692 q 587 665 534 692 l 631 730 q 736 849 659 774 l 814 770 q 795 748 808 762 l 764 718 q 695 662 723 680 l 641 626 q 694 474 694 570 q 641 322 694 378 l 695 286 q 773 222 737 259 q 814 178 808 186 l 736 99 q 631 218 659 173 l 585 281 m 461 332 q 559 368 523 332 q 596 474 596 404 q 559 580 596 543 q 461 617 523 617 q 338 534 368 617 q 328 473 328 508 q 407 342 328 371 q 461 332 431 332 z "},"¥":{"ha":810,"x_min":20,"x_max":789,"o":"m 135 309 l 349 309 l 349 427 l 135 427 l 135 507 l 349 507 l 219 736 l 20 1067 l 153 1067 l 404 621 l 498 785 l 656 1067 l 789 1067 l 590 736 l 460 507 l 673 507 l 673 427 l 460 427 l 460 309 l 673 309 l 673 228 l 460 228 l 460 11 l 349 11 l 349 228 l 135 228 l 135 309 z "},"¦":{"ha":347,"x_min":120,"x_max":227,"o":"m 120 1144 l 227 1144 l 227 583 l 120 583 l 120 1144 m 120 338 l 227 338 l 227 -222 l 120 -222 l 120 338 z "},"§":{"ha":695,"x_min":96,"x_max":598,"o":"m 496 201 q 598 21 598 121 q 521 -157 598 -93 q 352 -208 450 -216 q 153 -129 241 -205 l 216 -52 q 397 -111 301 -130 q 473 -50 449 -101 q 487 13 487 -22 q 475 71 487 48 q 442 113 463 93 q 391 153 420 134 l 324 196 q 176 304 214 263 q 96 490 96 389 q 146 618 96 557 q 198 665 166 644 q 96 848 96 745 q 169 1015 96 951 q 338 1075 237 1075 q 539 996 451 1078 l 478 916 q 376 976 433 961 q 337 981 358 981 q 292 972 317 981 q 250 946 268 963 q 208 848 208 908 q 302 711 208 774 q 370 669 332 692 q 450 618 408 646 q 524 555 491 591 q 598 377 598 476 q 548 248 598 311 q 496 201 528 223 m 254 626 q 206 490 206 565 q 326 310 206 387 q 395 268 359 288 l 439 241 q 489 377 489 309 q 368 556 489 477 l 300 600 l 254 626 z "},"¨":{"ha":394,"x_min":5,"x_max":389,"o":"m 268 1075 l 389 1075 l 389 924 l 268 924 l 268 1075 m 5 1075 l 125 1075 l 125 924 l 5 924 l 5 1075 z "},"©":{"ha":1154,"x_min":67,"x_max":1086,"o":"m 85 384 q 67 533 67 452 q 86 684 67 615 q 138 808 104 753 q 218 906 171 864 q 321 977 264 948 q 558 1033 434 1033 q 775 1002 682 1033 q 937 910 869 972 q 1086 533 1086 777 q 937 161 1086 293 q 574 39 801 39 q 218 164 359 39 q 85 384 123 248 m 155 534 q 189 351 155 429 q 279 221 222 273 q 574 118 395 118 q 875 218 762 118 q 998 533 998 329 q 875 852 998 741 q 574 954 762 954 q 279 849 394 954 q 155 534 155 735 m 774 298 q 595 252 670 252 q 470 270 521 252 q 384 324 419 289 q 313 523 313 395 l 313 542 q 585 821 313 821 q 755 779 666 821 l 728 708 q 585 743 651 743 q 445 694 490 743 q 399 542 401 645 l 399 523 q 448 383 399 434 q 585 331 496 332 q 752 373 663 328 l 774 298 z "},"ª":{"ha":578,"x_min":83,"x_max":509,"o":"m 378 610 q 248 551 325 553 q 125 594 170 551 q 85 699 83 635 q 248 827 85 813 q 349 831 296 831 l 366 831 l 366 900 q 351 966 366 951 q 270 989 328 989 q 134 962 212 989 l 117 1036 q 269 1067 209 1067 q 359 1059 329 1067 q 411 1034 390 1052 q 454 905 452 996 l 454 684 q 458 637 454 650 q 477 623 463 623 q 503 625 491 623 l 509 559 q 460 555 492 555 q 405 570 427 555 q 378 610 383 586 m 250 623 q 366 665 317 623 l 366 771 l 336 771 q 189 739 224 771 q 174 694 174 725 q 195 643 174 664 q 250 623 215 623 z "},"«":{"ha":926,"x_min":107,"x_max":779,"o":"m 456 394 l 712 719 l 777 662 l 591 394 l 779 125 l 712 67 l 456 394 m 363 67 l 107 394 l 363 719 l 428 662 l 241 394 l 429 125 l 363 67 z "},"¬":{"ha":926,"x_min":113,"x_max":803,"o":"m 113 570 l 803 570 l 803 189 l 709 189 l 709 484 l 113 484 l 113 570 z "},"­":{"ha":942,"x_min":0,"x_max":0,"o":""},"®":{"ha":694,"x_min":79,"x_max":614,"o":"m 347 581 q 243 598 292 581 q 158 650 195 616 q 79 848 79 722 q 158 1043 79 972 q 348 1109 232 1109 q 536 1043 463 1109 q 614 848 614 972 q 536 650 614 722 q 347 581 463 581 m 347 625 q 432 638 393 625 q 502 681 472 652 q 566 848 566 742 q 502 1010 566 951 q 348 1066 442 1066 q 192 1010 252 1066 q 128 848 128 952 q 192 681 128 741 q 347 625 251 625 m 447 690 q 353 813 387 722 l 290 813 l 290 692 l 244 692 l 244 1000 l 360 1000 q 464 907 461 1000 q 444 849 464 873 q 396 818 425 826 q 454 734 415 765 q 471 725 465 726 l 447 690 m 417 907 q 360 959 414 959 l 290 959 l 290 854 l 354 854 q 400 866 384 855 q 417 907 417 878 z "},"¯":{"ha":437,"x_min":5,"x_max":433,"o":"m 5 1023 l 433 1023 l 433 930 l 5 930 l 5 1023 z "},"°":{"ha":578,"x_min":80,"x_max":498,"o":"m 438 822 q 424 810 438 822 q 372 785 410 797 q 288 772 333 772 q 206 785 243 772 q 140 823 168 798 q 80 980 80 877 q 140 1137 80 1081 q 287 1188 195 1188 q 482 1072 435 1188 q 498 980 498 1033 q 482 887 498 926 q 438 822 467 848 m 239 859 q 288 851 261 851 q 337 859 314 851 q 377 882 360 866 q 413 980 413 916 q 337 1102 413 1075 q 288 1110 314 1110 q 239 1102 261 1110 q 201 1078 217 1094 q 165 980 165 1042 q 239 859 165 885 z "},"±":{"ha":811,"x_min":92,"x_max":718,"o":"m 100 229 l 362 229 l 362 479 l 92 479 l 92 558 l 362 558 l 362 828 l 448 828 l 448 558 l 718 558 l 718 479 l 448 479 l 448 229 l 711 229 l 711 148 l 100 148 l 100 229 z "},"²":{"ha":811,"x_min":184,"x_max":676,"o":"m 536 837 q 393 972 536 972 q 269 918 327 972 q 237 878 250 900 l 184 961 q 397 1069 249 1065 q 625 943 573 1071 q 643 843 643 899 q 619 739 643 788 q 556 644 595 689 q 367 494 478 552 l 676 494 l 670 397 l 211 397 l 195 473 l 275 532 q 435 660 385 609 q 511 753 485 711 q 536 837 536 795 z "},"³":{"ha":811,"x_min":192,"x_max":642,"o":"m 395 975 q 249 936 302 975 l 204 1015 q 378 1067 282 1067 q 600 972 549 1067 q 618 897 618 936 q 613 837 618 858 q 595 795 607 815 q 526 729 571 753 q 633 627 606 703 q 642 559 642 600 q 623 482 642 519 q 566 418 603 444 q 356 363 490 363 q 192 405 255 363 l 224 502 q 368 455 292 455 q 490 487 444 455 q 536 570 536 519 q 486 654 536 624 q 368 682 440 682 l 330 682 l 330 766 l 366 766 q 452 787 420 766 q 513 874 513 826 q 395 975 513 975 z "},"´":{"ha":347,"x_min":5,"x_max":338,"o":"m 5 948 l 262 1196 l 338 1113 l 67 879 l 5 948 z "},"µ":{"ha":924,"x_min":128,"x_max":836,"o":"m 281 -340 q 128 -48 128 -300 l 128 785 l 245 794 l 245 253 q 319 100 245 126 q 509 122 393 73 q 635 199 581 153 q 632 352 632 269 l 632 785 l 749 794 l 749 176 q 755 101 749 117 q 789 75 765 75 q 828 78 812 75 l 836 -6 q 765 -14 814 -14 q 682 20 716 -14 q 642 110 648 54 l 642 115 q 638 111 640 113 q 624 97 637 109 q 581 64 611 85 q 516 24 551 42 q 366 -14 439 -14 q 237 39 292 -14 l 237 -57 q 282 -224 237 -169 q 323 -252 298 -243 l 281 -340 z "},"¶":{"ha":811,"x_min":113,"x_max":692,"o":"m 467 1057 q 692 1021 555 1057 l 692 -105 l 602 -105 l 602 948 q 516 959 552 960 l 516 -105 l 426 -105 l 426 465 q 192 535 269 463 q 113 752 115 606 q 213 991 115 914 q 467 1057 296 1057 z "},"·":{"ha":463,"x_min":166,"x_max":296,"o":"m 166 659 l 296 659 l 296 518 l 166 518 l 166 659 z "},"¸":{"ha":309,"x_min":5,"x_max":306,"o":"m 19 -265 q 109 -280 77 -280 q 195 -218 182 -280 q 197 -192 197 -208 q 186 -163 197 -176 q 160 -141 176 -149 q 81 -127 135 -130 l 87 -48 q 290 -136 241 -41 q 303 -209 306 -168 q 283 -277 300 -250 q 241 -323 267 -305 q 122 -359 190 -359 q 5 -334 54 -359 l 5 -332 l 19 -265 z "},"¹":{"ha":696,"x_min":214,"x_max":463,"o":"m 355 811 l 355 880 q 358 941 355 905 l 214 941 l 216 1038 l 461 1038 l 463 346 l 357 346 l 355 811 z "},"º":{"ha":578,"x_min":57,"x_max":522,"o":"m 288 551 q 194 568 237 551 q 121 619 152 586 q 57 807 57 689 q 121 998 57 927 q 288 1067 184 1067 q 456 998 392 1067 q 522 807 522 927 q 456 619 522 690 q 288 551 393 551 m 288 625 q 347 638 321 625 q 392 675 374 651 q 430 807 430 725 q 347 979 430 939 q 288 993 321 993 q 229 980 255 993 q 184 942 203 966 q 147 807 147 891 q 184 675 147 726 q 288 625 222 625 z "},"»":{"ha":926,"x_min":148,"x_max":819,"o":"m 470 394 l 214 719 l 150 662 l 336 394 l 148 125 l 214 67 l 470 394 m 563 67 l 819 394 l 563 719 l 498 662 l 686 394 l 497 125 l 563 67 z "},"¼":{"ha":1275,"x_min":97,"x_max":1204,"o":"m 902 1115 l 990 1064 l 326 -38 l 237 0 l 902 1115 m 657 176 l 935 576 l 1079 576 l 1079 163 l 1204 163 l 1187 69 l 1079 69 l 1079 -115 l 977 -115 l 977 69 l 669 69 l 657 176 m 977 163 l 977 464 l 777 163 l 977 163 m 238 926 l 238 996 q 241 1056 238 1021 l 97 1056 l 99 1153 l 344 1153 l 346 461 l 240 461 l 238 926 z "},"½":{"ha":1275,"x_min":97,"x_max":1238,"o":"m 902 1115 l 990 1064 l 326 -38 l 237 0 l 902 1115 m 1099 326 q 956 461 1099 461 q 831 406 889 461 q 799 367 812 389 l 747 450 q 959 557 811 554 q 1187 431 1135 559 q 1205 332 1205 387 q 1181 227 1205 277 q 1119 132 1158 178 q 929 -18 1040 41 l 1238 -18 l 1232 -114 l 773 -114 l 757 -39 l 837 21 q 997 149 947 98 q 1073 242 1047 200 q 1099 326 1099 284 m 238 926 l 238 996 q 241 1056 238 1021 l 97 1056 l 99 1153 l 344 1153 l 346 461 l 240 461 l 238 926 z "},"¾":{"ha":1275,"x_min":29,"x_max":1204,"o":"m 902 1115 l 990 1064 l 326 -38 l 237 0 l 902 1115 m 657 176 l 935 576 l 1079 576 l 1079 163 l 1204 163 l 1187 69 l 1079 69 l 1079 -115 l 977 -115 l 977 69 l 669 69 l 657 176 m 977 163 l 977 464 l 777 163 l 977 163 m 233 1069 q 86 1030 139 1069 l 41 1109 q 216 1162 119 1162 q 437 1066 386 1162 q 456 991 456 1030 q 450 931 456 952 q 433 890 444 909 q 363 823 408 847 q 470 720 443 798 q 479 654 479 694 q 460 576 479 614 q 403 512 440 538 q 193 458 328 458 q 29 499 92 458 l 62 596 q 205 549 130 549 q 327 581 281 549 q 374 664 374 613 q 323 749 374 718 q 205 777 277 777 l 168 777 l 168 860 l 203 860 q 289 881 257 860 q 350 968 350 920 q 233 1069 350 1069 z "},"¿":{"ha":811,"x_min":116,"x_max":694,"o":"m 390 945 l 530 945 l 530 806 l 390 806 l 390 945 m 655 39 l 694 -64 q 312 -121 508 -162 q 142 -9 193 -96 q 117 88 117 34 q 126 177 116 142 q 153 243 136 212 q 193 304 170 274 l 296 431 q 399 681 395 555 l 524 681 q 361 336 507 503 q 316 283 361 336 q 237 111 237 191 q 294 7 237 43 q 441 -25 347 -25 q 655 39 536 -25 z "},"À":{"ha":1042,"x_min":30,"x_max":1012,"o":"m 446 1054 l 596 1054 l 1012 0 l 878 0 l 768 292 l 273 292 l 165 0 l 30 0 l 446 1054 m 729 389 l 621 673 q 583 780 598 734 l 553 871 q 521 967 538 916 q 491 877 505 922 q 460 781 491 877 q 313 389 460 781 l 729 389 m 534 1095 l 304 1286 l 380 1370 l 597 1164 l 534 1095 z "},"Á":{"ha":1042,"x_min":30,"x_max":1012,"o":"m 446 1054 l 596 1054 l 1012 0 l 878 0 l 768 292 l 273 292 l 165 0 l 30 0 l 446 1054 m 729 389 l 621 673 q 583 780 598 734 l 553 871 q 521 967 538 916 q 491 877 505 922 q 460 781 491 877 q 313 389 460 781 l 729 389 m 534 1095 l 471 1164 l 688 1370 l 765 1286 l 534 1095 z "},"Â":{"ha":1042,"x_min":30,"x_max":1012,"o":"m 446 1054 l 596 1054 l 1012 0 l 878 0 l 768 292 l 273 292 l 165 0 l 30 0 l 446 1054 m 729 389 l 621 673 q 583 780 598 734 l 553 871 q 521 967 538 916 q 491 877 505 922 q 460 781 491 877 q 313 389 460 781 l 729 389 m 315 1095 l 276 1172 l 522 1316 l 768 1172 l 730 1095 l 522 1204 l 315 1095 z "},"Ã":{"ha":1042,"x_min":30,"x_max":1012,"o":"m 446 1054 l 596 1054 l 1012 0 l 878 0 l 768 292 l 273 292 l 165 0 l 30 0 l 446 1054 m 729 389 l 621 673 q 583 780 598 734 l 553 871 q 521 967 538 916 q 491 877 505 922 q 460 781 491 877 q 313 389 460 781 l 729 389 m 277 1200 q 339 1287 300 1254 q 414 1324 378 1320 q 476 1317 450 1328 q 526 1291 502 1306 q 572 1264 526 1291 q 696 1315 648 1218 l 766 1274 q 704 1187 743 1219 q 517 1190 625 1120 q 432 1230 456 1230 q 347 1159 382 1230 l 277 1200 z "},"Ä":{"ha":1042,"x_min":30,"x_max":1012,"o":"m 446 1054 l 596 1054 l 1012 0 l 878 0 l 768 292 l 273 292 l 165 0 l 30 0 l 446 1054 m 729 389 l 621 673 q 583 780 598 734 l 553 871 q 521 967 538 916 q 491 877 505 922 q 460 781 491 877 q 313 389 460 781 l 729 389 m 593 1306 l 713 1306 l 713 1152 l 593 1152 l 593 1306 m 330 1306 l 450 1306 l 450 1152 l 330 1152 l 330 1306 z "},"Å":{"ha":1042,"x_min":30,"x_max":1012,"o":"m 446 1054 l 596 1054 l 1012 0 l 878 0 l 768 292 l 273 292 l 165 0 l 30 0 l 446 1054 m 729 389 l 621 673 q 583 780 598 734 l 553 871 q 521 967 538 916 q 491 877 505 922 q 460 781 491 877 q 313 389 460 781 l 729 389 m 520 1078 q 406 1115 451 1078 q 357 1221 357 1155 q 406 1331 357 1289 q 520 1370 452 1370 q 635 1331 589 1370 q 684 1221 684 1289 q 635 1115 684 1155 q 520 1078 589 1078 m 520 1141 q 578 1160 555 1141 q 601 1221 601 1179 q 578 1285 601 1263 q 520 1307 555 1307 q 463 1285 486 1307 q 441 1221 441 1263 q 463 1160 441 1179 q 520 1141 486 1141 z "},"Æ":{"ha":1389,"x_min":43,"x_max":1345,"o":"m 459 1054 l 1333 1054 l 1326 945 l 652 945 l 790 593 l 1268 593 l 1268 486 l 831 486 l 985 108 l 1339 108 l 1345 0 l 890 0 l 783 292 l 286 292 l 178 0 l 43 0 l 459 1054 m 741 389 l 633 673 q 594 780 610 734 l 564 871 q 532 967 550 916 q 503 877 517 922 q 471 781 503 877 q 324 389 471 781 l 741 389 z "},"Ç":{"ha":926,"x_min":78,"x_max":904,"o":"m 579 -14 q 78 525 78 -14 q 414 1046 78 962 q 568 1063 487 1063 q 878 1002 725 1063 l 842 901 q 593 957 701 957 q 417 936 486 957 q 298 861 347 914 q 199 525 203 759 q 290 205 203 309 q 581 94 384 94 q 868 157 717 94 l 904 55 q 579 -14 744 -14 m 356 -265 q 446 -280 414 -280 q 532 -218 519 -280 q 534 -192 534 -208 q 524 -163 534 -176 q 497 -141 513 -149 q 418 -127 472 -130 l 424 -48 q 627 -136 578 -41 q 640 -209 643 -168 q 620 -277 637 -250 q 578 -323 604 -305 q 459 -359 527 -359 q 342 -334 391 -359 l 342 -332 l 356 -265 z "},"È":{"ha":811,"x_min":149,"x_max":764,"o":"m 149 1054 l 751 1054 l 745 945 l 267 945 l 267 593 l 694 593 l 694 486 l 267 486 l 267 108 l 758 108 l 764 0 l 149 0 l 149 1054 m 477 1095 l 246 1286 l 323 1370 l 540 1164 l 477 1095 z "},"É":{"ha":811,"x_min":149,"x_max":764,"o":"m 149 1054 l 751 1054 l 745 945 l 267 945 l 267 593 l 694 593 l 694 486 l 267 486 l 267 108 l 758 108 l 764 0 l 149 0 l 149 1054 m 477 1095 l 414 1164 l 631 1370 l 707 1286 l 477 1095 z "},"Ê":{"ha":811,"x_min":149,"x_max":764,"o":"m 149 1054 l 751 1054 l 745 945 l 267 945 l 267 593 l 694 593 l 694 486 l 267 486 l 267 108 l 758 108 l 764 0 l 149 0 l 149 1054 m 257 1095 l 218 1172 l 465 1316 l 711 1172 l 672 1095 l 465 1204 l 257 1095 z "},"Ë":{"ha":811,"x_min":149,"x_max":764,"o":"m 149 1054 l 751 1054 l 745 945 l 267 945 l 267 593 l 694 593 l 694 486 l 267 486 l 267 108 l 758 108 l 764 0 l 149 0 l 149 1054 m 535 1306 l 655 1306 l 655 1152 l 535 1152 l 535 1306 m 273 1306 l 392 1306 l 392 1152 l 273 1152 l 273 1306 z "},"Ì":{"ha":348,"x_min":-43,"x_max":250,"o":"m 115 1054 l 233 1054 l 233 0 l 115 0 l 115 1054 m 187 1095 l -43 1286 l 33 1370 l 250 1164 l 187 1095 z "},"Í":{"ha":348,"x_min":115,"x_max":418,"o":"m 115 1054 l 233 1054 l 233 0 l 115 0 l 115 1054 m 187 1095 l 124 1164 l 341 1370 l 418 1286 l 187 1095 z "},"Î":{"ha":348,"x_min":-71,"x_max":421,"o":"m 115 1054 l 233 1054 l 233 0 l 115 0 l 115 1054 m -33 1095 l -71 1172 l 175 1316 l 421 1172 l 382 1095 l 175 1204 l -33 1095 z "},"Ï":{"ha":348,"x_min":-16,"x_max":366,"o":"m 115 1054 l 233 1054 l 233 0 l 115 0 l 115 1054 m 246 1306 l 366 1306 l 366 1152 l 246 1152 l 246 1306 m -16 1306 l 103 1306 l 103 1152 l -16 1152 l -16 1306 z "},"Ð":{"ha":1045,"x_min":18,"x_max":970,"o":"m 149 0 l 149 497 l 18 497 l 18 601 l 149 601 l 149 1054 l 476 1054 q 945 745 865 1054 q 970 526 970 648 l 970 498 q 841 131 970 260 q 471 0 710 0 l 149 0 m 267 106 l 471 106 q 753 214 654 106 q 849 498 849 318 l 849 526 q 760 842 845 743 q 473 947 670 947 l 267 947 l 267 601 l 543 601 l 543 497 l 267 497 l 267 106 z "},"Ñ":{"ha":1042,"x_min":112,"x_max":929,"o":"m 112 1054 l 286 1054 l 729 276 l 812 111 l 812 1054 l 929 1054 l 929 0 l 757 0 l 311 782 l 229 943 l 229 0 l 112 0 l 112 1054 m 276 1200 q 338 1287 300 1254 q 413 1324 377 1320 q 475 1317 450 1328 q 525 1291 501 1306 q 571 1264 525 1291 q 695 1315 648 1218 l 766 1274 q 703 1187 742 1219 q 516 1190 624 1120 q 431 1230 456 1230 q 347 1159 381 1230 l 276 1200 z "},"Ò":{"ha":1158,"x_min":91,"x_max":1067,"o":"m 91 522 q 127 751 91 650 q 229 921 163 851 q 586 1063 364 1063 q 944 921 820 1063 q 1067 522 1067 781 q 928 127 1067 271 q 571 -14 793 -14 q 220 127 348 -14 q 91 522 91 269 m 212 521 q 236 335 211 416 q 309 199 261 254 q 581 93 406 90 q 849 205 752 94 q 947 530 949 319 q 571 957 941 957 q 308 843 402 957 q 212 521 213 728 m 593 1095 l 362 1286 l 439 1370 l 656 1164 l 593 1095 z "},"Ó":{"ha":1158,"x_min":91,"x_max":1067,"o":"m 91 522 q 127 751 91 650 q 229 921 163 851 q 586 1063 364 1063 q 944 921 820 1063 q 1067 522 1067 781 q 928 127 1067 271 q 571 -14 793 -14 q 220 127 348 -14 q 91 522 91 269 m 212 521 q 236 335 211 416 q 309 199 261 254 q 581 93 406 90 q 849 205 752 94 q 947 530 949 319 q 571 957 941 957 q 308 843 402 957 q 212 521 213 728 m 593 1095 l 530 1164 l 747 1370 l 823 1286 l 593 1095 z "},"Ô":{"ha":1158,"x_min":91,"x_max":1067,"o":"m 91 522 q 127 751 91 650 q 229 921 163 851 q 586 1063 364 1063 q 944 921 820 1063 q 1067 522 1067 781 q 928 127 1067 271 q 571 -14 793 -14 q 220 127 348 -14 q 91 522 91 269 m 212 521 q 236 335 211 416 q 309 199 261 254 q 581 93 406 90 q 849 205 752 94 q 947 530 949 319 q 571 957 941 957 q 308 843 402 957 q 212 521 213 728 m 373 1095 l 334 1172 l 581 1316 l 827 1172 l 788 1095 l 581 1204 l 373 1095 z "},"Õ":{"ha":1158,"x_min":91,"x_max":1067,"o":"m 91 522 q 127 751 91 650 q 229 921 163 851 q 586 1063 364 1063 q 944 921 820 1063 q 1067 522 1067 781 q 928 127 1067 271 q 571 -14 793 -14 q 220 127 348 -14 q 91 522 91 269 m 212 521 q 236 335 211 416 q 309 199 261 254 q 581 93 406 90 q 849 205 752 94 q 947 530 949 319 q 571 957 941 957 q 308 843 402 957 q 212 521 213 728 m 335 1200 q 397 1287 359 1254 q 472 1324 436 1320 q 534 1317 509 1328 q 584 1291 560 1306 q 630 1264 584 1291 q 754 1315 707 1218 l 825 1274 q 762 1187 801 1219 q 575 1190 683 1120 q 490 1230 515 1230 q 406 1159 440 1230 l 335 1200 z "},"Ö":{"ha":1158,"x_min":91,"x_max":1067,"o":"m 91 522 q 127 751 91 650 q 229 921 163 851 q 586 1063 364 1063 q 944 921 820 1063 q 1067 522 1067 781 q 928 127 1067 271 q 571 -14 793 -14 q 220 127 348 -14 q 91 522 91 269 m 212 521 q 236 335 211 416 q 309 199 261 254 q 581 93 406 90 q 849 205 752 94 q 947 530 949 319 q 571 957 941 957 q 308 843 402 957 q 212 521 213 728 m 651 1306 l 771 1306 l 771 1152 l 651 1152 l 651 1306 m 389 1306 l 508 1306 l 508 1152 l 389 1152 l 389 1306 z "},"×":{"ha":811,"x_min":138,"x_max":741,"o":"m 138 240 q 382 505 138 240 l 138 771 l 208 837 l 439 571 l 670 837 l 741 771 l 497 505 q 741 240 711 275 l 670 174 l 439 441 l 208 174 l 138 240 z "},"Ø":{"ha":1158,"x_min":91,"x_max":1067,"o":"m 819 1015 q 1067 522 1067 897 q 928 127 1067 271 q 571 -14 793 -14 q 418 6 489 -14 l 385 -77 l 290 -39 l 323 45 q 151 227 212 106 q 91 522 91 348 q 229 921 91 774 q 586 1063 364 1063 q 722 1049 659 1063 l 772 1176 l 867 1138 l 819 1015 m 681 945 q 558 957 629 957 q 420 928 487 957 q 308 843 354 899 q 212 522 213 728 q 365 150 209 256 l 681 945 m 458 107 q 590 93 514 92 q 733 122 665 94 q 849 205 802 151 q 947 522 949 319 q 777 909 943 814 l 458 107 z "},"Ù":{"ha":1042,"x_min":133,"x_max":909,"o":"m 133 1054 l 250 1054 l 250 472 q 260 310 250 361 q 286 221 269 258 q 332 155 302 183 q 521 94 397 94 q 755 221 699 94 q 789 361 786 291 q 791 472 791 431 l 791 1054 l 909 1054 l 909 472 q 895 260 909 326 q 855 147 880 195 q 787 64 831 99 q 521 -14 694 -14 q 186 146 267 -14 q 136 359 142 235 q 133 472 133 417 l 133 1054 m 534 1095 l 304 1286 l 380 1370 l 597 1164 l 534 1095 z "},"Ú":{"ha":1042,"x_min":133,"x_max":909,"o":"m 133 1054 l 250 1054 l 250 472 q 260 310 250 361 q 286 221 269 258 q 332 155 302 183 q 521 94 397 94 q 755 221 699 94 q 789 361 786 291 q 791 472 791 431 l 791 1054 l 909 1054 l 909 472 q 895 260 909 326 q 855 147 880 195 q 787 64 831 99 q 521 -14 694 -14 q 186 146 267 -14 q 136 359 142 235 q 133 472 133 417 l 133 1054 m 534 1095 l 471 1164 l 688 1370 l 765 1286 l 534 1095 z "},"Û":{"ha":1042,"x_min":133,"x_max":909,"o":"m 133 1054 l 250 1054 l 250 472 q 260 310 250 361 q 286 221 269 258 q 332 155 302 183 q 521 94 397 94 q 755 221 699 94 q 789 361 786 291 q 791 472 791 431 l 791 1054 l 909 1054 l 909 472 q 895 260 909 326 q 855 147 880 195 q 787 64 831 99 q 521 -14 694 -14 q 186 146 267 -14 q 136 359 142 235 q 133 472 133 417 l 133 1054 m 315 1095 l 276 1172 l 522 1316 l 768 1172 l 730 1095 l 522 1204 l 315 1095 z "},"Ü":{"ha":1042,"x_min":133,"x_max":909,"o":"m 133 1054 l 250 1054 l 250 472 q 260 310 250 361 q 286 221 269 258 q 332 155 302 183 q 521 94 397 94 q 755 221 699 94 q 789 361 786 291 q 791 472 791 431 l 791 1054 l 909 1054 l 909 472 q 895 260 909 326 q 855 147 880 195 q 787 64 831 99 q 521 -14 694 -14 q 186 146 267 -14 q 136 359 142 235 q 133 472 133 417 l 133 1054 m 593 1306 l 713 1306 l 713 1152 l 593 1152 l 593 1306 m 330 1306 l 450 1306 l 450 1152 l 330 1152 l 330 1306 z "},"Ý":{"ha":811,"x_min":-14,"x_max":825,"o":"m 346 385 q 255 548 300 463 q -14 1054 35 971 l 125 1054 l 406 496 l 686 1054 l 825 1054 l 464 385 l 464 0 l 346 0 l 346 385 m 419 1095 l 356 1164 l 573 1370 l 650 1286 l 419 1095 z "},"Þ":{"ha":924,"x_min":141,"x_max":848,"o":"m 456 288 q 728 524 723 285 q 663 709 727 650 q 448 772 595 774 l 258 772 l 258 0 l 141 0 l 141 1054 l 258 1054 l 258 876 l 448 876 q 827 672 764 878 q 848 524 848 606 q 456 185 840 180 l 333 185 l 333 288 l 456 288 z "},"ß":{"ha":811,"x_min":130,"x_max":786,"o":"m 266 958 q 260 946 266 958 q 250 899 254 934 q 247 469 247 863 q 254 0 247 75 l 134 0 q 132 120 132 24 l 130 564 l 130 822 q 139 952 130 914 q 163 1017 148 989 q 203 1065 178 1044 q 365 1108 260 1108 q 521 1046 460 1108 q 581 895 581 984 q 555 785 581 835 l 534 745 q 507 665 507 694 q 515 620 507 637 q 537 588 524 603 q 568 557 551 572 l 604 527 q 646 492 625 509 q 688 459 668 476 q 726 422 709 441 q 757 378 744 403 q 786 258 786 326 q 765 139 786 189 q 706 54 743 88 q 507 -14 631 -14 q 336 5 437 -14 l 344 105 q 501 84 454 83 q 575 97 547 85 q 623 130 602 109 q 665 256 665 178 q 620 376 665 326 q 574 417 600 397 q 522 459 549 436 l 473 503 q 398 651 398 573 q 405 705 398 677 q 422 751 412 732 l 439 791 q 468 895 468 853 q 457 958 468 937 q 431 989 447 978 q 365 1009 405 1009 q 301 996 325 1009 q 266 958 278 983 z "},"à":{"ha":811,"x_min":73,"x_max":720,"o":"m 720 -6 q 664 -14 697 -14 q 609 -6 631 -14 q 572 15 588 1 q 533 83 542 41 q 401 -2 496 27 q 229 1 316 -28 q 94 116 136 33 q 73 209 73 158 q 93 294 73 259 q 145 351 113 329 q 309 403 206 394 q 521 414 391 411 l 521 536 q 511 644 521 623 q 488 677 501 666 q 394 694 465 694 l 368 694 q 163 659 262 688 l 144 760 q 377 794 262 794 q 591 732 541 794 q 628 641 622 695 q 635 541 634 587 l 635 153 q 645 84 635 96 q 670 73 656 73 q 712 78 684 73 l 720 -6 m 521 248 q 524 337 521 296 q 224 292 286 337 q 189 216 189 267 q 229 119 189 157 q 330 83 268 83 q 521 159 450 80 l 521 248 m 479 879 l 208 1113 l 285 1196 l 542 948 l 479 879 z "},"á":{"ha":811,"x_min":73,"x_max":720,"o":"m 720 -6 q 664 -14 697 -14 q 609 -6 631 -14 q 572 15 588 1 q 533 83 542 41 q 401 -2 496 27 q 229 1 316 -28 q 94 116 136 33 q 73 209 73 158 q 93 294 73 259 q 145 351 113 329 q 309 403 206 394 q 521 414 391 411 l 521 536 q 511 644 521 623 q 488 677 501 666 q 394 694 465 694 l 368 694 q 163 659 262 688 l 144 760 q 377 794 262 794 q 591 732 541 794 q 628 641 622 695 q 635 541 634 587 l 635 153 q 645 84 635 96 q 670 73 656 73 q 712 78 684 73 l 720 -6 m 521 248 q 524 337 521 296 q 224 292 286 337 q 189 216 189 267 q 229 119 189 157 q 330 83 268 83 q 521 159 450 80 l 521 248 m 208 948 l 465 1196 l 542 1113 l 271 879 l 208 948 z "},"â":{"ha":811,"x_min":73,"x_max":720,"o":"m 720 -6 q 664 -14 697 -14 q 609 -6 631 -14 q 572 15 588 1 q 533 83 542 41 q 401 -2 496 27 q 229 1 316 -28 q 94 116 136 33 q 73 209 73 158 q 93 294 73 259 q 145 351 113 329 q 309 403 206 394 q 521 414 391 411 l 521 536 q 511 644 521 623 q 488 677 501 666 q 394 694 465 694 l 368 694 q 163 659 262 688 l 144 760 q 377 794 262 794 q 591 732 541 794 q 628 641 622 695 q 635 541 634 587 l 635 153 q 645 84 635 96 q 670 73 656 73 q 712 78 684 73 l 720 -6 m 521 248 q 524 337 521 296 q 224 292 286 337 q 189 216 189 267 q 229 119 189 157 q 330 83 268 83 q 521 159 450 80 l 521 248 m 168 879 l 109 953 l 376 1165 l 641 953 l 585 880 l 376 1041 l 168 879 z "},"ã":{"ha":811,"x_min":73,"x_max":720,"o":"m 720 -6 q 664 -14 697 -14 q 609 -6 631 -14 q 572 15 588 1 q 533 83 542 41 q 401 -2 496 27 q 229 1 316 -28 q 94 116 136 33 q 73 209 73 158 q 93 294 73 259 q 145 351 113 329 q 309 403 206 394 q 521 414 391 411 l 521 536 q 511 644 521 623 q 488 677 501 666 q 394 694 465 694 l 368 694 q 163 659 262 688 l 144 760 q 377 794 262 794 q 591 732 541 794 q 628 641 622 695 q 635 541 634 587 l 635 153 q 645 84 635 96 q 670 73 656 73 q 712 78 684 73 l 720 -6 m 521 248 q 524 337 521 296 q 224 292 286 337 q 189 216 189 267 q 229 119 189 157 q 330 83 268 83 q 521 159 450 80 l 521 248 m 131 949 q 193 1037 155 1004 q 268 1074 231 1070 q 330 1067 304 1078 q 380 1042 356 1056 q 426 1013 380 1042 q 550 1065 503 968 l 621 1023 q 558 936 597 968 q 371 940 479 870 q 286 979 311 979 q 201 909 236 979 l 131 949 z "},"ä":{"ha":811,"x_min":73,"x_max":720,"o":"m 720 -6 q 664 -14 697 -14 q 609 -6 631 -14 q 572 15 588 1 q 533 83 542 41 q 401 -2 496 27 q 229 1 316 -28 q 94 116 136 33 q 73 209 73 158 q 93 294 73 259 q 145 351 113 329 q 309 403 206 394 q 521 414 391 411 l 521 536 q 511 644 521 623 q 488 677 501 666 q 394 694 465 694 l 368 694 q 163 659 262 688 l 144 760 q 377 794 262 794 q 591 732 541 794 q 628 641 622 695 q 635 541 634 587 l 635 153 q 645 84 635 96 q 670 73 656 73 q 712 78 684 73 l 720 -6 m 521 248 q 524 337 521 296 q 224 292 286 337 q 189 216 189 267 q 229 119 189 157 q 330 83 268 83 q 521 159 450 80 l 521 248 m 446 1075 l 568 1075 l 568 924 l 446 924 l 446 1075 m 183 1075 l 304 1075 l 304 924 l 183 924 l 183 1075 z "},"å":{"ha":811,"x_min":73,"x_max":720,"o":"m 720 -6 q 664 -14 697 -14 q 609 -6 631 -14 q 572 15 588 1 q 533 83 542 41 q 401 -2 496 27 q 229 1 316 -28 q 94 116 136 33 q 73 209 73 158 q 93 294 73 259 q 145 351 113 329 q 309 403 206 394 q 521 414 391 411 l 521 536 q 511 644 521 623 q 488 677 501 666 q 394 694 465 694 l 368 694 q 163 659 262 688 l 144 760 q 377 794 262 794 q 591 732 541 794 q 628 641 622 695 q 635 541 634 587 l 635 153 q 645 84 635 96 q 670 73 656 73 q 712 78 684 73 l 720 -6 m 521 248 q 524 337 521 296 q 224 292 286 337 q 189 216 189 267 q 229 119 189 157 q 330 83 268 83 q 521 159 450 80 l 521 248 m 375 900 q 255 940 302 900 q 205 1053 205 981 q 255 1168 205 1126 q 375 1208 302 1208 q 495 1168 448 1208 q 545 1053 545 1126 q 495 940 545 981 q 375 900 448 900 m 375 963 q 436 987 412 963 q 460 1053 460 1012 q 436 1119 460 1095 q 375 1144 412 1144 q 314 1119 338 1144 q 290 1053 290 1095 q 314 987 290 1012 q 375 963 338 963 z "},"æ":{"ha":1158,"x_min":38,"x_max":1119,"o":"m 1052 24 q 845 -14 952 -14 q 617 58 711 -14 q 559 119 584 83 l 496 66 q 385 2 434 16 q 283 -14 336 -13 q 182 3 230 -14 q 102 53 134 21 q 39 217 38 117 q 165 396 41 340 q 454 441 266 441 l 487 441 l 487 536 q 453 656 487 616 q 342 695 420 695 q 109 647 235 695 l 85 743 q 338 794 214 794 q 489 765 439 794 q 572 635 551 730 q 742 785 618 755 q 826 794 778 794 q 921 779 875 794 q 1000 735 966 763 q 1057 667 1034 707 q 1093 579 1080 627 q 1119 362 1119 492 l 601 362 q 739 111 613 177 q 857 87 783 87 q 1029 124 930 87 l 1052 24 m 996 454 q 898 677 985 629 q 818 696 865 696 q 734 677 770 696 q 671 625 698 659 q 604 454 616 557 l 996 454 m 436 355 q 160 216 160 355 q 195 118 160 152 q 294 85 231 85 q 399 106 355 85 q 524 185 460 136 q 492 355 496 256 l 436 355 z "},"ç":{"ha":694,"x_min":75,"x_max":651,"o":"m 651 24 q 453 -14 553 -14 q 287 9 353 -14 q 174 81 221 33 q 75 389 75 184 q 422 795 75 795 l 446 794 q 573 777 534 791 q 629 756 611 764 l 603 656 q 430 694 517 694 l 418 694 q 196 391 196 694 q 269 152 196 230 q 434 87 330 87 q 633 124 538 87 l 651 24 m 292 -265 q 382 -280 350 -280 q 468 -218 455 -280 q 470 -192 470 -208 q 460 -163 470 -176 q 433 -141 450 -149 q 355 -127 408 -130 l 360 -48 q 563 -136 515 -41 q 576 -209 579 -168 q 556 -277 573 -250 q 514 -323 540 -305 q 395 -359 463 -359 q 278 -334 327 -359 l 278 -332 l 292 -265 z "},"è":{"ha":811,"x_min":82,"x_max":716,"o":"m 649 24 q 450 -14 549 -14 q 156 110 246 -14 q 82 398 82 210 q 166 690 82 587 q 415 794 251 793 q 646 680 568 794 q 716 387 716 576 l 716 362 l 201 362 q 349 100 213 146 q 459 87 391 87 q 627 124 528 87 l 649 24 m 594 454 q 552 629 586 571 q 347 686 493 726 q 227 581 267 665 q 201 454 203 530 l 594 454 m 520 879 l 249 1113 l 326 1196 l 583 948 l 520 879 z "},"é":{"ha":811,"x_min":82,"x_max":716,"o":"m 649 24 q 450 -14 549 -14 q 156 110 246 -14 q 82 398 82 210 q 166 690 82 587 q 415 794 251 793 q 646 680 568 794 q 716 387 716 576 l 716 362 l 201 362 q 349 100 213 146 q 459 87 391 87 q 627 124 528 87 l 649 24 m 594 454 q 552 629 586 571 q 347 686 493 726 q 227 581 267 665 q 201 454 203 530 l 594 454 m 249 948 l 506 1196 l 583 1113 l 311 879 l 249 948 z "},"ê":{"ha":811,"x_min":82,"x_max":716,"o":"m 649 24 q 450 -14 549 -14 q 156 110 246 -14 q 82 398 82 210 q 166 690 82 587 q 415 794 251 793 q 646 680 568 794 q 716 387 716 576 l 716 362 l 201 362 q 349 100 213 146 q 459 87 391 87 q 627 124 528 87 l 649 24 m 594 454 q 552 629 586 571 q 347 686 493 726 q 227 581 267 665 q 201 454 203 530 l 594 454 m 208 879 l 150 953 l 416 1165 l 682 953 l 626 880 l 416 1041 l 208 879 z "},"ë":{"ha":811,"x_min":82,"x_max":716,"o":"m 649 24 q 450 -14 549 -14 q 156 110 246 -14 q 82 398 82 210 q 166 690 82 587 q 415 794 251 793 q 646 680 568 794 q 716 387 716 576 l 716 362 l 201 362 q 349 100 213 146 q 459 87 391 87 q 627 124 528 87 l 649 24 m 594 454 q 552 629 586 571 q 347 686 493 726 q 227 581 267 665 q 201 454 203 530 l 594 454 m 487 1075 l 608 1075 l 608 924 l 487 924 l 487 1075 m 224 1075 l 345 1075 l 345 924 l 224 924 l 224 1075 z "},"ì":{"ha":464,"x_min":65,"x_max":399,"o":"m 174 785 l 290 785 l 290 0 l 174 0 l 174 785 m 336 879 l 65 1113 l 142 1196 l 399 948 l 336 879 z "},"í":{"ha":464,"x_min":65,"x_max":399,"o":"m 174 785 l 290 785 l 290 0 l 174 0 l 174 785 m 65 948 l 322 1196 l 399 1113 l 127 879 l 65 948 z "},"î":{"ha":464,"x_min":-33,"x_max":498,"o":"m 174 785 l 290 785 l 290 0 l 174 0 l 174 785 m 25 879 l -33 953 l 233 1165 l 498 953 l 443 880 l 233 1041 l 25 879 z "},"ï":{"ha":464,"x_min":40,"x_max":425,"o":"m 174 785 l 290 785 l 290 0 l 174 0 l 174 785 m 303 1075 l 425 1075 l 425 924 l 303 924 l 303 1075 m 40 1075 l 161 1075 l 161 924 l 40 924 l 40 1075 z "},"ð":{"ha":811,"x_min":66,"x_max":746,"o":"m 256 1086 q 501 972 395 1056 l 663 1042 l 694 973 l 562 916 q 745 431 728 740 q 746 367 746 414 q 729 246 746 319 q 672 115 712 172 q 398 -14 583 -14 q 151 93 240 -14 q 67 352 68 192 q 144 612 66 512 q 392 724 231 724 q 585 664 506 724 q 450 868 540 788 l 250 785 l 218 853 l 381 926 q 229 990 315 966 l 256 1086 m 227 544 q 215 525 227 544 q 194 455 203 505 q 185 350 184 405 q 200 246 186 295 q 241 161 214 197 q 398 84 297 84 q 583 178 523 84 q 633 392 633 258 q 618 545 633 458 q 529 609 568 593 q 397 634 464 635 q 290 608 330 632 q 227 544 251 583 z "},"ñ":{"ha":926,"x_min":132,"x_max":777,"o":"m 140 0 l 140 230 q 138 604 140 523 l 136 711 q 132 785 134 773 l 248 791 q 247 769 248 783 q 247 736 247 756 l 247 686 q 527 794 406 794 q 711 735 649 794 q 777 547 774 675 l 777 0 l 661 0 l 661 505 q 631 651 661 609 q 526 692 601 692 q 324 641 425 692 q 253 602 290 624 l 254 541 q 256 436 256 489 l 256 0 l 140 0 m 210 949 q 272 1037 234 1004 q 347 1074 311 1070 q 410 1067 384 1078 q 459 1042 435 1056 q 505 1013 459 1042 q 629 1065 582 968 l 700 1023 q 637 936 676 968 q 450 940 558 870 q 366 979 390 979 q 281 909 315 979 l 210 949 z "},"ò":{"ha":924,"x_min":111,"x_max":813,"o":"m 111 382 q 138 558 111 480 q 213 688 165 635 q 468 794 310 794 q 726 689 637 794 q 813 389 813 586 q 709 86 813 195 q 458 -14 613 -14 q 205 88 296 -14 q 111 382 111 191 m 460 85 q 689 389 689 85 q 564 675 685 617 q 464 695 522 695 q 363 674 407 695 q 290 614 320 654 q 232 386 230 532 q 291 162 233 239 q 460 85 348 85 m 567 879 l 296 1113 l 372 1196 l 629 948 l 567 879 z "},"ó":{"ha":924,"x_min":111,"x_max":813,"o":"m 111 382 q 138 558 111 480 q 213 688 165 635 q 468 794 310 794 q 726 689 637 794 q 813 389 813 586 q 709 86 813 195 q 458 -14 613 -14 q 205 88 296 -14 q 111 382 111 191 m 460 85 q 689 389 689 85 q 564 675 685 617 q 464 695 522 695 q 363 674 407 695 q 290 614 320 654 q 232 386 230 532 q 291 162 233 239 q 460 85 348 85 m 296 948 l 553 1196 l 629 1113 l 358 879 l 296 948 z "},"ô":{"ha":924,"x_min":111,"x_max":813,"o":"m 111 382 q 138 558 111 480 q 213 688 165 635 q 468 794 310 794 q 726 689 637 794 q 813 389 813 586 q 709 86 813 195 q 458 -14 613 -14 q 205 88 296 -14 q 111 382 111 191 m 460 85 q 689 389 689 85 q 564 675 685 617 q 464 695 522 695 q 363 674 407 695 q 290 614 320 654 q 232 386 230 532 q 291 162 233 239 q 460 85 348 85 m 255 879 l 197 953 l 463 1165 l 728 953 l 673 880 l 463 1041 l 255 879 z "},"õ":{"ha":924,"x_min":111,"x_max":813,"o":"m 111 382 q 138 558 111 480 q 213 688 165 635 q 468 794 310 794 q 726 689 637 794 q 813 389 813 586 q 709 86 813 195 q 458 -14 613 -14 q 205 88 296 -14 q 111 382 111 191 m 460 85 q 689 389 689 85 q 564 675 685 617 q 464 695 522 695 q 363 674 407 695 q 290 614 320 654 q 232 386 230 532 q 291 162 233 239 q 460 85 348 85 m 218 949 q 280 1037 242 1004 q 355 1074 319 1070 q 418 1067 392 1078 q 467 1042 444 1056 q 513 1013 467 1042 q 637 1065 590 968 l 708 1023 q 646 936 684 968 q 458 940 566 870 q 374 979 398 979 q 289 909 323 979 l 218 949 z "},"ö":{"ha":924,"x_min":111,"x_max":813,"o":"m 111 382 q 138 558 111 480 q 213 688 165 635 q 468 794 310 794 q 726 689 637 794 q 813 389 813 586 q 709 86 813 195 q 458 -14 613 -14 q 205 88 296 -14 q 111 382 111 191 m 460 85 q 689 389 689 85 q 564 675 685 617 q 464 695 522 695 q 363 674 407 695 q 290 614 320 654 q 232 386 230 532 q 291 162 233 239 q 460 85 348 85 m 534 1075 l 655 1075 l 655 924 l 534 924 l 534 1075 m 271 1075 l 391 1075 l 391 924 l 271 924 l 271 1075 z "},"÷":{"ha":811,"x_min":110,"x_max":701,"o":"m 343 705 l 471 705 l 471 581 l 343 581 l 343 705 m 110 443 l 701 443 l 701 362 l 110 362 l 110 443 m 343 224 l 471 224 l 471 100 l 343 100 l 343 224 z "},"ø":{"ha":924,"x_min":93,"x_max":833,"o":"m 468 794 q 682 731 598 794 l 768 842 l 833 791 l 740 671 q 813 389 813 569 q 709 86 813 195 q 458 -14 613 -14 q 252 45 334 -14 l 159 -73 l 93 -24 l 192 103 q 111 380 111 205 q 213 688 111 577 q 468 794 310 794 m 612 642 q 465 695 557 695 q 294 614 356 695 q 233 383 233 532 q 267 200 233 271 l 612 642 m 319 132 q 458 85 374 85 q 672 252 625 85 q 689 404 688 310 q 661 569 689 498 l 319 132 z "},"ù":{"ha":924,"x_min":123,"x_max":771,"o":"m 762 656 l 762 317 q 771 0 762 42 l 665 0 l 652 110 q 461 -4 570 24 q 373 -13 423 -14 q 274 5 322 -12 q 193 56 226 23 q 126 250 123 125 l 126 785 l 241 794 l 241 290 q 273 137 241 183 q 381 89 305 90 q 521 117 457 88 q 652 202 585 146 l 649 252 q 647 344 647 284 l 647 785 l 763 794 q 762 656 762 720 m 553 879 l 282 1113 l 359 1196 l 616 948 l 553 879 z "},"ú":{"ha":924,"x_min":123,"x_max":771,"o":"m 762 656 l 762 317 q 771 0 762 42 l 665 0 l 652 110 q 461 -4 570 24 q 373 -13 423 -14 q 274 5 322 -12 q 193 56 226 23 q 126 250 123 125 l 126 785 l 241 794 l 241 290 q 273 137 241 183 q 381 89 305 90 q 521 117 457 88 q 652 202 585 146 l 649 252 q 647 344 647 284 l 647 785 l 763 794 q 762 656 762 720 m 282 948 l 539 1196 l 616 1113 l 345 879 l 282 948 z "},"û":{"ha":924,"x_min":123,"x_max":771,"o":"m 762 656 l 762 317 q 771 0 762 42 l 665 0 l 652 110 q 461 -4 570 24 q 373 -13 423 -14 q 274 5 322 -12 q 193 56 226 23 q 126 250 123 125 l 126 785 l 241 794 l 241 290 q 273 137 241 183 q 381 89 305 90 q 521 117 457 88 q 652 202 585 146 l 649 252 q 647 344 647 284 l 647 785 l 763 794 q 762 656 762 720 m 241 879 l 183 953 l 450 1165 l 715 953 l 659 880 l 450 1041 l 241 879 z "},"ü":{"ha":924,"x_min":123,"x_max":771,"o":"m 762 656 l 762 317 q 771 0 762 42 l 665 0 l 652 110 q 461 -4 570 24 q 373 -13 423 -14 q 274 5 322 -12 q 193 56 226 23 q 126 250 123 125 l 126 785 l 241 794 l 241 290 q 273 137 241 183 q 381 89 305 90 q 521 117 457 88 q 652 202 585 146 l 649 252 q 647 344 647 284 l 647 785 l 763 794 q 762 656 762 720 m 520 1075 l 642 1075 l 642 924 l 520 924 l 520 1075 m 257 1075 l 378 1075 l 378 924 l 257 924 l 257 1075 z "},"ý":{"ha":810,"x_min":43,"x_max":759,"o":"m 43 785 l 170 785 l 399 91 l 630 785 l 759 785 l 341 -366 l 208 -320 q 376 0 345 -62 l 319 0 l 43 785 m 232 948 l 489 1196 l 566 1113 l 294 879 l 232 948 z "},"þ":{"ha":926,"x_min":135,"x_max":808,"o":"m 730 101 q 709 74 730 101 q 619 17 688 47 q 449 -14 550 -14 q 250 28 347 -14 l 250 -325 l 135 -325 l 135 1099 l 244 1108 l 244 678 q 488 794 358 791 q 779 586 705 799 q 808 405 808 502 q 790 232 808 307 q 730 101 772 156 m 250 129 q 564 110 446 50 q 688 399 690 174 q 581 671 686 605 q 390 675 507 718 q 250 583 304 644 l 250 129 z "},"ÿ":{"ha":810,"x_min":43,"x_max":759,"o":"m 43 785 l 170 785 l 399 91 l 630 785 l 759 785 l 341 -366 l 208 -320 q 376 0 345 -62 l 319 0 l 43 785 m 470 1075 l 591 1075 l 591 924 l 470 924 l 470 1075 m 207 1075 l 328 1075 l 328 924 l 207 924 l 207 1075 z "},"Ā":{"ha":1042,"x_min":30,"x_max":1012,"o":"m 446 1054 l 596 1054 l 1012 0 l 878 0 l 768 292 l 273 292 l 165 0 l 30 0 l 446 1054 m 729 389 l 621 673 q 583 780 598 734 l 553 871 q 521 967 538 916 q 491 877 505 922 q 460 781 491 877 q 313 389 460 781 l 729 389 m 307 1261 l 736 1261 l 736 1168 l 307 1168 l 307 1261 z "},"ā":{"ha":811,"x_min":73,"x_max":720,"o":"m 720 -6 q 664 -14 697 -14 q 609 -6 631 -14 q 572 15 588 1 q 533 83 542 41 q 401 -2 496 27 q 229 1 316 -28 q 94 116 136 33 q 73 209 73 158 q 93 294 73 259 q 145 351 113 329 q 309 403 206 394 q 521 414 391 411 l 521 536 q 511 644 521 623 q 488 677 501 666 q 394 694 465 694 l 368 694 q 163 659 262 688 l 144 760 q 377 794 262 794 q 591 732 541 794 q 628 641 622 695 q 635 541 634 587 l 635 153 q 645 84 635 96 q 670 73 656 73 q 712 78 684 73 l 720 -6 m 521 248 q 524 337 521 296 q 224 292 286 337 q 189 216 189 267 q 229 119 189 157 q 330 83 268 83 q 521 159 450 80 l 521 248 m 161 1023 l 589 1023 l 589 930 l 161 930 l 161 1023 z "},"Ă":{"ha":1042,"x_min":30,"x_max":1012,"o":"m 446 1054 l 596 1054 l 1012 0 l 878 0 l 768 292 l 273 292 l 165 0 l 30 0 l 446 1054 m 729 389 l 621 673 q 583 780 598 734 l 553 871 q 521 967 538 916 q 491 877 505 922 q 460 781 491 877 q 313 389 460 781 l 729 389 m 522 1153 q 332 1246 388 1153 q 307 1314 313 1276 l 396 1341 q 444 1268 404 1296 q 510 1244 479 1244 q 561 1250 541 1244 q 600 1268 582 1256 q 648 1341 640 1296 l 736 1314 q 665 1195 724 1239 q 522 1153 607 1153 z "},"ă":{"ha":811,"x_min":73,"x_max":720,"o":"m 720 -6 q 664 -14 697 -14 q 609 -6 631 -14 q 572 15 588 1 q 533 83 542 41 q 401 -2 496 27 q 229 1 316 -28 q 94 116 136 33 q 73 209 73 158 q 93 294 73 259 q 145 351 113 329 q 309 403 206 394 q 521 414 391 411 l 521 536 q 511 644 521 623 q 488 677 501 666 q 394 694 465 694 l 368 694 q 163 659 262 688 l 144 760 q 377 794 262 794 q 591 732 541 794 q 628 641 622 695 q 635 541 634 587 l 635 153 q 645 84 635 96 q 670 73 656 73 q 712 78 684 73 l 720 -6 m 521 248 q 524 337 521 296 q 224 292 286 337 q 189 216 189 267 q 229 119 189 157 q 330 83 268 83 q 521 159 450 80 l 521 248 m 376 890 q 297 901 333 890 q 232 932 260 911 q 161 1051 174 975 l 250 1078 q 298 1005 258 1033 q 364 981 333 981 q 415 987 395 981 q 454 1005 436 993 q 502 1078 494 1033 l 591 1051 q 519 932 578 976 q 376 890 461 890 z "},"Ą":{"ha":1042,"x_min":30,"x_max":1013,"o":"m 1013 -298 q 915 -323 958 -323 q 846 -315 871 -323 q 802 -289 820 -306 q 762 -190 762 -253 q 798 -76 762 -138 q 873 13 831 -16 l 768 292 l 273 292 l 165 0 l 30 0 l 446 1054 l 596 1054 l 1012 0 l 949 0 q 867 -134 879 -66 q 937 -226 857 -226 q 996 -218 970 -226 l 1013 -298 m 729 389 l 621 673 q 583 780 598 734 l 553 871 q 521 967 538 916 q 491 877 505 922 l 460 781 l 313 389 l 729 389 z "},"ą":{"ha":811,"x_min":73,"x_max":720,"o":"m 576 12 q 533 83 543 37 q 401 -2 496 27 q 229 1 316 -28 q 94 116 136 33 q 73 209 73 158 q 93 294 73 259 q 145 351 113 329 q 309 403 206 394 q 521 414 391 411 l 521 536 q 511 644 521 623 q 488 677 501 666 q 394 694 465 694 l 368 694 q 163 659 262 688 l 144 760 q 377 794 262 794 q 591 732 541 794 q 628 641 622 695 q 635 541 634 587 l 635 153 q 645 84 635 96 q 670 73 656 73 q 712 78 684 73 l 720 -6 q 659 -14 697 -14 l 642 -13 q 572 -134 583 -74 q 643 -226 562 -226 q 701 -218 675 -226 l 718 -298 q 620 -323 663 -323 q 551 -315 577 -323 q 507 -289 526 -306 q 467 -190 467 -253 q 503 -77 467 -140 q 576 12 535 -18 m 521 248 q 524 337 521 296 q 224 292 286 337 q 189 216 189 267 q 229 119 189 157 q 330 83 268 83 q 521 159 450 80 l 521 248 z "},"Ć":{"ha":926,"x_min":78,"x_max":904,"o":"m 579 -14 q 78 525 78 -14 q 414 1046 78 962 q 568 1063 487 1063 q 878 1002 725 1063 l 842 901 q 593 957 701 957 q 417 936 486 957 q 298 861 347 914 q 199 525 203 759 q 290 205 203 309 q 581 94 384 94 q 868 157 717 94 l 904 55 q 579 -14 744 -14 m 593 1095 l 530 1164 l 747 1370 l 823 1286 l 593 1095 z "},"ć":{"ha":694,"x_min":75,"x_max":651,"o":"m 651 24 q 453 -14 553 -14 q 287 9 353 -14 q 174 81 221 33 q 75 389 75 184 q 422 795 75 795 l 446 794 q 573 777 534 791 q 629 756 611 764 l 603 656 q 430 694 517 694 l 418 694 q 196 391 196 694 q 269 152 196 230 q 434 87 330 87 q 633 124 538 87 l 651 24 m 275 949 l 532 1198 l 608 1114 l 337 880 l 275 949 z "},"Ĉ":{"ha":926,"x_min":78,"x_max":904,"o":"m 579 -14 q 78 525 78 -14 q 414 1046 78 962 q 568 1063 487 1063 q 878 1002 725 1063 l 842 901 q 593 957 701 957 q 417 936 486 957 q 298 861 347 914 q 199 525 203 759 q 290 205 203 309 q 581 94 384 94 q 868 157 717 94 l 904 55 q 579 -14 744 -14 m 373 1095 l 334 1172 l 581 1316 l 827 1172 l 788 1095 l 581 1204 l 373 1095 z "},"ĉ":{"ha":694,"x_min":75,"x_max":707,"o":"m 651 24 q 453 -14 553 -14 q 287 9 353 -14 q 174 81 221 33 q 75 389 75 184 q 422 795 75 795 l 446 794 q 573 777 534 791 q 629 756 611 764 l 603 656 q 430 694 517 694 l 418 694 q 196 391 196 694 q 269 152 196 230 q 434 87 330 87 q 633 124 538 87 l 651 24 m 234 880 l 176 954 l 442 1166 l 707 954 l 652 882 l 442 1042 l 234 880 z "},"Ċ":{"ha":926,"x_min":78,"x_max":904,"o":"m 579 -14 q 78 525 78 -14 q 414 1046 78 962 q 568 1063 487 1063 q 878 1002 725 1063 l 842 901 q 593 957 701 957 q 417 936 486 957 q 298 861 347 914 q 199 525 203 759 q 290 205 203 309 q 581 94 384 94 q 868 157 717 94 l 904 55 q 579 -14 744 -14 m 519 1369 l 639 1369 l 639 1208 l 519 1208 l 519 1369 z "},"ċ":{"ha":694,"x_min":75,"x_max":651,"o":"m 651 24 q 453 -14 553 -14 q 287 9 353 -14 q 174 81 221 33 q 75 389 75 184 q 422 795 75 795 l 446 794 q 573 777 534 791 q 629 756 611 764 l 603 656 q 430 694 517 694 l 418 694 q 196 391 196 694 q 269 152 196 230 q 434 87 330 87 q 633 124 538 87 l 651 24 m 382 1087 l 501 1087 l 501 927 l 382 927 l 382 1087 z "},"Č":{"ha":926,"x_min":78,"x_max":904,"o":"m 579 -14 q 78 525 78 -14 q 414 1046 78 962 q 568 1063 487 1063 q 878 1002 725 1063 l 842 901 q 593 957 701 957 q 417 936 486 957 q 298 861 347 914 q 199 525 203 759 q 290 205 203 309 q 581 94 384 94 q 868 157 717 94 l 904 55 q 579 -14 744 -14 m 579 1095 l 333 1239 l 372 1316 l 579 1206 l 787 1316 l 825 1239 l 579 1095 z "},"č":{"ha":694,"x_min":75,"x_max":692,"o":"m 651 24 q 453 -14 553 -14 q 287 9 353 -14 q 174 81 221 33 q 75 389 75 184 q 422 795 75 795 l 446 794 q 573 777 534 791 q 629 756 611 764 l 603 656 q 430 694 517 694 l 418 694 q 196 391 196 694 q 269 152 196 230 q 434 87 330 87 q 633 124 538 87 l 651 24 m 192 1074 l 250 1150 l 443 1004 l 636 1149 l 692 1074 l 443 880 l 192 1074 z "},"Ď":{"ha":1045,"x_min":149,"x_max":970,"o":"m 149 0 l 149 1054 l 476 1054 q 945 745 865 1054 q 970 526 970 648 l 970 498 q 841 131 970 260 q 471 0 710 0 l 149 0 m 267 106 l 471 106 q 753 214 654 106 q 849 498 849 318 l 849 526 q 760 842 845 743 q 473 947 670 947 l 267 947 l 267 106 m 503 1095 l 256 1239 l 295 1316 l 503 1206 l 710 1316 l 749 1239 l 503 1095 z "},"ď":{"ha":926,"x_min":90,"x_max":973,"o":"m 860 1135 l 973 1135 l 915 824 l 829 838 l 860 1135 m 640 102 q 390 -14 521 -14 q 118 189 185 -16 q 92 375 90 276 q 112 549 94 475 q 167 678 130 623 q 408 794 248 794 q 639 738 531 792 l 639 1108 l 753 1099 l 753 741 q 758 0 753 73 l 652 0 l 640 102 m 642 654 q 416 695 545 692 q 223 507 252 695 q 245 183 192 303 q 399 87 288 87 q 640 202 532 87 l 640 536 q 641 593 640 564 q 642 654 642 622 z "},"Đ":{"ha":1045,"x_min":18,"x_max":970,"o":"m 149 0 l 149 497 l 18 497 l 18 601 l 149 601 l 149 1054 l 476 1054 q 945 745 865 1054 q 970 526 970 648 l 970 498 q 841 131 970 260 q 471 0 710 0 l 149 0 m 267 106 l 471 106 q 753 214 654 106 q 849 498 849 318 l 849 526 q 760 842 845 743 q 473 947 670 947 l 267 947 l 267 601 l 543 601 l 543 497 l 267 497 l 267 106 z "},"đ":{"ha":929,"x_min":90,"x_max":844,"o":"m 640 102 q 390 -14 521 -14 q 118 189 185 -16 q 92 375 90 276 q 112 549 94 475 q 167 678 130 623 q 408 794 248 794 q 639 738 531 792 l 639 912 l 385 912 l 385 991 l 639 991 l 639 1108 l 753 1099 l 753 991 l 844 991 l 844 912 l 753 912 q 758 0 753 142 l 652 0 l 640 102 m 642 654 q 416 695 545 692 q 223 507 252 695 q 245 183 192 303 q 399 87 288 87 q 640 202 532 87 l 640 536 q 641 593 640 564 q 642 654 642 622 z "},"Ē":{"ha":811,"x_min":149,"x_max":764,"o":"m 149 1054 l 751 1054 l 745 945 l 267 945 l 267 593 l 694 593 l 694 486 l 267 486 l 267 108 l 758 108 l 764 0 l 149 0 l 149 1054 m 250 1261 l 678 1261 l 678 1168 l 250 1168 l 250 1261 z "},"ē":{"ha":811,"x_min":82,"x_max":716,"o":"m 649 24 q 450 -14 549 -14 q 156 110 246 -14 q 82 398 82 210 q 166 690 82 587 q 415 794 251 793 q 646 680 568 794 q 716 387 716 576 l 716 362 l 201 362 q 349 100 213 146 q 459 87 391 87 q 627 124 528 87 l 649 24 m 594 454 q 552 629 586 571 q 347 686 493 726 q 227 581 267 665 q 201 454 203 530 l 594 454 m 202 1023 l 630 1023 l 630 930 l 202 930 l 202 1023 z "},"Ĕ":{"ha":811,"x_min":149,"x_max":764,"o":"m 149 1054 l 751 1054 l 745 945 l 267 945 l 267 593 l 694 593 l 694 486 l 267 486 l 267 108 l 758 108 l 764 0 l 149 0 l 149 1054 m 464 1153 q 274 1246 330 1153 q 249 1314 256 1276 l 338 1341 q 386 1268 346 1296 q 452 1244 421 1244 q 504 1250 483 1244 q 542 1268 524 1256 q 590 1341 583 1296 l 679 1314 q 607 1195 667 1239 q 464 1153 549 1153 z "},"ĕ":{"ha":811,"x_min":82,"x_max":716,"o":"m 649 24 q 450 -14 549 -14 q 156 110 246 -14 q 82 398 82 210 q 166 690 82 587 q 415 794 251 793 q 646 680 568 794 q 716 387 716 576 l 716 362 l 201 362 q 349 100 213 146 q 459 87 391 87 q 627 124 528 87 l 649 24 m 594 454 q 552 629 586 571 q 347 686 493 726 q 227 581 267 665 q 201 454 203 530 l 594 454 m 416 890 q 337 901 374 890 q 273 932 301 911 q 201 1051 215 975 l 291 1078 q 338 1005 298 1033 q 405 981 374 981 q 456 987 435 981 q 494 1005 477 993 q 543 1078 535 1033 l 631 1051 q 560 932 619 976 q 416 890 502 890 z "},"Ė":{"ha":811,"x_min":149,"x_max":764,"o":"m 149 1054 l 751 1054 l 745 945 l 267 945 l 267 593 l 694 593 l 694 486 l 267 486 l 267 108 l 758 108 l 764 0 l 149 0 l 149 1054 m 404 1369 l 523 1369 l 523 1208 l 404 1208 l 404 1369 z "},"ė":{"ha":811,"x_min":82,"x_max":716,"o":"m 649 24 q 450 -14 549 -14 q 156 110 246 -14 q 82 398 82 210 q 166 690 82 587 q 415 794 251 793 q 646 680 568 794 q 716 387 716 576 l 716 362 l 201 362 q 349 100 213 146 q 459 87 391 87 q 627 124 528 87 l 649 24 m 594 454 q 552 629 586 571 q 347 686 493 726 q 227 581 267 665 q 201 454 203 530 l 594 454 m 356 1086 l 475 1086 l 475 926 l 356 926 l 356 1086 z "},"Ę":{"ha":811,"x_min":149,"x_max":776,"o":"m 776 -298 q 678 -323 721 -323 q 609 -315 635 -323 q 564 -289 583 -306 q 525 -190 525 -253 q 585 -39 525 -119 q 620 0 602 -16 l 149 0 l 149 1054 l 751 1054 l 745 945 l 267 945 l 267 593 l 694 593 l 694 486 l 267 486 l 267 108 l 758 108 l 764 0 l 713 0 q 630 -134 642 -66 q 701 -226 620 -226 q 759 -218 733 -226 l 776 -298 z "},"ę":{"ha":811,"x_min":82,"x_max":716,"o":"m 482 -12 q 441 -14 463 -14 q 156 110 246 -14 q 82 398 82 210 q 166 690 82 587 q 415 794 251 793 q 646 680 568 794 q 716 387 716 576 l 716 362 l 201 362 q 349 100 213 146 q 459 87 391 87 q 627 124 528 87 l 649 24 q 594 5 626 15 q 505 -134 519 -60 q 576 -226 495 -226 q 634 -218 608 -226 l 651 -298 q 553 -323 596 -323 q 484 -315 510 -323 q 439 -289 458 -306 q 400 -190 400 -253 q 451 -51 400 -125 q 482 -12 466 -29 m 594 454 q 552 629 586 571 q 347 686 493 726 q 227 581 267 665 q 201 454 203 530 l 594 454 z "},"Ě":{"ha":811,"x_min":149,"x_max":764,"o":"m 149 1054 l 751 1054 l 745 945 l 267 945 l 267 593 l 694 593 l 694 486 l 267 486 l 267 108 l 758 108 l 764 0 l 149 0 l 149 1054 m 463 1095 l 217 1239 l 256 1316 l 463 1206 l 671 1316 l 709 1239 l 463 1095 z "},"ě":{"ha":811,"x_min":82,"x_max":716,"o":"m 649 24 q 450 -14 549 -14 q 156 110 246 -14 q 82 398 82 210 q 166 690 82 587 q 415 794 251 793 q 646 680 568 794 q 716 387 716 576 l 716 362 l 201 362 q 349 100 213 146 q 459 87 391 87 q 627 124 528 87 l 649 24 m 594 454 q 552 629 586 571 q 347 686 493 726 q 227 581 267 665 q 201 454 203 530 l 594 454 m 166 1072 l 224 1149 l 417 1003 l 610 1147 l 667 1072 l 417 879 l 166 1072 z "},"Ĝ":{"ha":1042,"x_min":105,"x_max":937,"o":"m 585 1064 l 612 1063 q 913 996 777 1057 l 874 895 q 627 957 745 954 q 435 927 508 960 q 316 836 362 895 q 226 502 226 719 q 323 201 234 300 q 655 91 430 82 q 821 132 753 95 l 821 467 l 637 467 l 637 574 l 937 574 l 937 55 q 682 -11 817 3 q 604 -14 640 -15 q 136 293 224 0 q 106 481 107 387 q 116 647 105 576 q 150 781 126 718 q 210 895 173 843 q 301 985 248 947 q 585 1064 412 1064 m 407 1095 l 368 1172 l 614 1316 l 861 1172 l 822 1095 l 614 1204 l 407 1095 z "},"ĝ":{"ha":811,"x_min":66,"x_max":813,"o":"m 375 259 q 262 277 310 259 q 227 243 243 267 q 201 188 201 205 q 233 135 201 156 q 306 117 262 117 q 386 122 351 117 q 496 132 446 132 q 592 122 545 132 q 676 89 640 112 q 763 -64 757 38 q 635 -288 766 -207 q 383 -359 528 -355 q 163 -309 252 -363 q 111 -264 133 -290 q 66 -139 66 -213 q 132 24 66 -45 q 179 63 153 47 q 101 174 101 104 q 129 252 101 217 q 208 306 156 287 q 101 524 101 372 q 191 725 101 650 q 391 794 273 794 q 530 770 469 794 q 614 766 552 766 q 795 791 676 766 l 813 692 q 757 689 785 690 q 696 686 729 687 l 630 683 q 672 565 663 644 q 675 524 675 543 q 585 323 675 395 q 375 259 506 259 m 562 524 q 510 675 565 630 q 385 703 469 706 q 228 598 267 694 q 214 526 215 566 q 256 395 212 439 q 381 350 300 350 q 512 397 462 350 q 562 524 562 445 m 334 16 q 242 30 281 16 q 182 -66 197 2 q 177 -110 177 -87 q 206 -198 177 -163 q 382 -258 254 -261 q 540 -228 484 -255 q 642 -90 642 -179 q 498 26 640 26 l 334 16 m 189 879 l 130 953 l 397 1165 l 662 953 l 606 880 l 397 1041 l 189 879 z "},"Ğ":{"ha":1042,"x_min":105,"x_max":937,"o":"m 585 1064 l 612 1063 q 913 996 777 1057 l 874 895 q 627 957 745 954 q 435 927 508 960 q 316 836 362 895 q 226 502 226 719 q 323 201 234 300 q 655 91 430 82 q 821 132 753 95 l 821 467 l 637 467 l 637 574 l 937 574 l 937 55 q 682 -11 817 3 q 604 -14 640 -15 q 136 293 224 0 q 106 481 107 387 q 116 647 105 576 q 150 781 126 718 q 210 895 173 843 q 301 985 248 947 q 585 1064 412 1064 m 614 1153 q 424 1246 480 1153 q 399 1314 406 1276 l 488 1341 q 536 1268 496 1296 q 602 1244 571 1244 q 653 1250 633 1244 q 692 1268 674 1256 q 740 1341 732 1296 l 829 1314 q 757 1195 817 1239 q 614 1153 699 1153 z "},"ğ":{"ha":811,"x_min":66,"x_max":813,"o":"m 375 259 q 262 277 310 259 q 227 243 243 267 q 201 188 201 205 q 233 135 201 156 q 306 117 262 117 q 386 122 351 117 q 496 132 446 132 q 592 122 545 132 q 676 89 640 112 q 763 -64 757 38 q 635 -288 766 -207 q 383 -359 528 -355 q 163 -309 252 -363 q 111 -264 133 -290 q 66 -139 66 -213 q 132 24 66 -45 q 179 63 153 47 q 101 174 101 104 q 129 252 101 217 q 208 306 156 287 q 101 524 101 372 q 191 725 101 650 q 391 794 273 794 q 530 770 469 794 q 614 766 552 766 q 795 791 676 766 l 813 692 q 757 689 785 690 q 696 686 729 687 l 630 683 q 672 565 663 644 q 675 524 675 543 q 585 323 675 395 q 375 259 506 259 m 562 524 q 510 675 565 630 q 385 703 469 706 q 228 598 267 694 q 214 526 215 566 q 256 395 212 439 q 381 350 300 350 q 512 397 462 350 q 562 524 562 445 m 334 16 q 242 30 281 16 q 182 -66 197 2 q 177 -110 177 -87 q 206 -198 177 -163 q 382 -258 254 -261 q 540 -228 484 -255 q 642 -90 642 -179 q 498 26 640 26 l 334 16 m 397 890 q 318 901 354 890 q 253 932 281 911 q 182 1051 195 975 l 271 1078 q 319 1005 279 1033 q 385 981 354 981 q 436 987 416 981 q 475 1005 457 993 q 523 1078 515 1033 l 612 1051 q 541 932 600 976 q 397 890 482 890 z "},"Ġ":{"ha":1042,"x_min":105,"x_max":937,"o":"m 585 1064 l 612 1063 q 913 996 777 1057 l 874 895 q 627 957 745 954 q 435 927 508 960 q 316 836 362 895 q 226 502 226 719 q 323 201 234 300 q 655 91 430 82 q 821 132 753 95 l 821 467 l 637 467 l 637 574 l 937 574 l 937 55 q 682 -11 817 3 q 604 -14 640 -15 q 136 293 224 0 q 106 481 107 387 q 116 647 105 576 q 150 781 126 718 q 210 895 173 843 q 301 985 248 947 q 585 1064 412 1064 m 553 1369 l 673 1369 l 673 1208 l 553 1208 l 553 1369 z "},"ġ":{"ha":811,"x_min":66,"x_max":813,"o":"m 375 259 q 262 277 310 259 q 227 243 243 267 q 201 188 201 205 q 233 135 201 156 q 306 117 262 117 q 386 122 351 117 q 496 132 446 132 q 592 122 545 132 q 676 89 640 112 q 763 -64 757 38 q 635 -288 766 -207 q 383 -359 528 -355 q 163 -309 252 -363 q 111 -264 133 -290 q 66 -139 66 -213 q 132 24 66 -45 q 179 63 153 47 q 101 174 101 104 q 129 252 101 217 q 208 306 156 287 q 101 524 101 372 q 191 725 101 650 q 391 794 273 794 q 530 770 469 794 q 614 766 552 766 q 795 791 676 766 l 813 692 q 757 689 785 690 q 696 686 729 687 l 630 683 q 672 565 663 644 q 675 524 675 543 q 585 323 675 395 q 375 259 506 259 m 562 524 q 510 675 565 630 q 385 703 469 706 q 228 598 267 694 q 214 526 215 566 q 256 395 212 439 q 381 350 300 350 q 512 397 462 350 q 562 524 562 445 m 334 16 q 242 30 281 16 q 182 -66 197 2 q 177 -110 177 -87 q 206 -198 177 -163 q 382 -258 254 -261 q 540 -228 484 -255 q 642 -90 642 -179 q 498 26 640 26 l 334 16 m 336 1086 l 456 1086 l 456 926 l 336 926 l 336 1086 z "},"Ģ":{"ha":1042,"x_min":105,"x_max":937,"o":"m 585 1064 l 612 1063 q 913 996 777 1057 l 874 895 q 627 957 745 954 q 435 927 508 960 q 316 836 362 895 q 226 502 226 719 q 323 201 234 300 q 655 91 430 82 q 821 132 753 95 l 821 467 l 637 467 l 637 574 l 937 574 l 937 55 q 682 -11 817 3 q 604 -14 640 -15 q 136 293 224 0 q 106 481 107 387 q 116 647 105 576 q 150 781 126 718 q 210 895 173 843 q 301 985 248 947 q 585 1064 412 1064 m 673 -85 l 614 -366 l 528 -353 l 559 -85 l 673 -85 z "},"ģ":{"ha":811,"x_min":66,"x_max":813,"o":"m 410 1219 l 497 1205 l 465 909 l 352 909 l 410 1219 m 375 259 q 262 277 310 259 q 227 243 243 267 q 201 188 201 205 q 233 135 201 156 q 306 117 262 117 q 386 122 351 117 q 496 132 446 132 q 592 122 545 132 q 676 89 640 112 q 763 -64 757 38 q 635 -288 766 -207 q 383 -359 528 -355 q 163 -309 252 -363 q 111 -264 133 -290 q 66 -139 66 -213 q 132 24 66 -45 q 179 63 153 47 q 101 174 101 104 q 129 252 101 217 q 208 306 156 287 q 101 524 101 372 q 191 725 101 650 q 391 794 273 794 q 530 770 469 794 q 614 766 552 766 q 795 791 676 766 l 813 692 q 757 689 785 690 q 696 686 729 687 l 630 683 q 672 565 663 644 q 675 524 675 543 q 585 323 675 395 q 375 259 506 259 m 562 524 q 510 675 565 630 q 385 703 469 706 q 228 598 267 694 q 214 526 215 566 q 256 395 212 439 q 381 350 300 350 q 512 397 462 350 q 562 524 562 445 m 334 16 q 242 30 281 16 q 182 -66 197 2 q 177 -110 177 -87 q 206 -198 177 -163 q 382 -258 254 -261 q 540 -228 484 -255 q 642 -90 642 -179 q 498 26 640 26 l 334 16 z "},"Ĥ":{"ha":1042,"x_min":116,"x_max":925,"o":"m 116 0 l 116 1054 l 233 1054 l 233 602 l 808 602 l 808 1054 l 925 1054 l 925 0 l 808 0 l 808 497 l 233 497 l 233 0 l 116 0 m 315 1095 l 276 1172 l 522 1316 l 768 1172 l 730 1095 l 522 1204 l 315 1095 z "},"ĥ":{"ha":926,"x_min":-45,"x_max":783,"o":"m -45 1181 l 202 1325 l 448 1181 l 409 1105 l 202 1215 l -6 1105 l -45 1181 m 148 0 l 146 956 q 144 1099 144 1078 l 260 1108 l 260 689 q 530 794 414 794 q 765 658 720 794 q 783 547 781 611 l 783 0 l 669 0 l 669 505 q 639 651 669 609 q 534 692 610 692 q 332 641 434 692 q 262 602 298 624 l 263 541 q 264 436 264 489 l 264 0 l 148 0 z "},"Ħ":{"ha":1042,"x_min":5,"x_max":1037,"o":"m 116 0 l 116 797 l 5 797 l 5 885 l 116 885 l 116 1067 l 233 1067 l 233 885 l 808 885 l 808 1067 l 925 1067 l 925 885 l 1037 885 l 1037 797 l 925 797 l 925 0 l 808 0 l 808 515 l 233 515 l 233 0 l 116 0 m 233 620 l 808 620 l 808 797 l 233 797 l 233 620 z "},"ħ":{"ha":926,"x_min":15,"x_max":783,"o":"m 260 689 q 530 794 414 794 q 765 658 720 794 q 783 547 781 611 l 783 0 l 669 0 l 669 505 q 639 651 669 609 q 534 692 610 692 q 332 641 434 692 q 262 602 298 624 l 263 541 q 264 436 264 489 l 264 0 l 148 0 l 148 328 q 146 912 148 743 l 15 912 l 15 991 l 146 991 q 144 1082 144 1069 q 144 1099 144 1096 l 260 1108 l 260 991 l 552 991 l 552 912 l 260 912 l 260 689 z "},"Ĩ":{"ha":348,"x_min":-71,"x_max":419,"o":"m 115 1054 l 233 1054 l 233 0 l 115 0 l 115 1054 m -71 1200 q -8 1287 -47 1254 q 67 1324 31 1320 q 129 1317 103 1328 q 178 1291 155 1306 q 224 1264 178 1291 q 349 1315 301 1218 l 419 1274 q 357 1187 395 1219 q 170 1190 277 1120 q 85 1230 109 1230 q 0 1159 35 1230 l -71 1200 z "},"ĩ":{"ha":464,"x_min":-12,"x_max":478,"o":"m 174 785 l 290 785 l 290 0 l 174 0 l 174 785 m -12 949 q 51 1037 12 1004 q 125 1074 89 1070 q 188 1067 162 1078 q 237 1042 214 1056 q 283 1013 237 1042 q 408 1065 360 968 l 478 1023 q 416 936 454 968 q 229 940 336 870 q 144 979 168 979 q 59 909 94 979 l -12 949 z "},"Ī":{"ha":348,"x_min":-40,"x_max":389,"o":"m 115 1054 l 233 1054 l 233 0 l 115 0 l 115 1054 m -40 1261 l 389 1261 l 389 1168 l -40 1168 l -40 1261 z "},"ī":{"ha":464,"x_min":18,"x_max":446,"o":"m 174 785 l 290 785 l 290 0 l 174 0 l 174 785 m 18 1023 l 446 1023 l 446 930 l 18 930 l 18 1023 z "},"Ĭ":{"ha":348,"x_min":-41,"x_max":389,"o":"m 115 1054 l 233 1054 l 233 0 l 115 0 l 115 1054 m 174 1153 q -16 1246 41 1153 q -41 1314 -34 1276 l 49 1341 q 96 1268 56 1296 q 162 1244 132 1244 q 214 1250 193 1244 q 252 1268 235 1256 q 300 1341 293 1296 l 389 1314 q 317 1195 377 1239 q 174 1153 260 1153 z "},"ĭ":{"ha":464,"x_min":18,"x_max":448,"o":"m 174 785 l 290 785 l 290 0 l 174 0 l 174 785 m 233 890 q 154 901 190 890 q 89 932 117 911 q 18 1051 31 975 l 107 1078 q 155 1005 115 1033 q 221 981 190 981 q 272 987 252 981 q 311 1005 293 993 q 359 1078 351 1033 l 448 1051 q 376 932 435 976 q 233 890 318 890 z "},"Į":{"ha":348,"x_min":-17,"x_max":234,"o":"m 234 -298 q 136 -323 179 -323 q 67 -315 93 -323 q 23 -289 41 -306 q -17 -190 -17 -253 q 26 -64 -17 -133 q 111 23 67 3 l 115 22 l 115 1054 l 233 1054 l 233 0 l 171 0 q 88 -134 100 -66 q 159 -226 78 -226 q 217 -218 191 -226 l 234 -298 z "},"į":{"ha":464,"x_min":40,"x_max":291,"o":"m 174 1099 l 290 1099 l 290 937 l 174 937 l 174 1099 m 291 -298 q 193 -323 236 -323 q 124 -315 150 -323 q 80 -289 98 -306 q 40 -190 40 -253 q 83 -64 40 -133 q 168 23 124 3 l 174 22 l 174 785 l 290 785 l 290 0 l 228 0 q 145 -134 157 -66 q 216 -226 135 -226 q 274 -218 248 -226 l 291 -298 z "},"İ":{"ha":348,"x_min":114,"x_max":233,"o":"m 115 1054 l 233 1054 l 233 0 l 115 0 l 115 1054 m 114 1369 l 233 1369 l 233 1208 l 114 1208 l 114 1369 z "},"ı":{"ha":464,"x_min":174,"x_max":290,"o":"m 174 785 l 290 785 l 290 0 l 174 0 l 174 785 z "},"Ĳ":{"ha":926,"x_min":115,"x_max":809,"o":"m 115 1054 l 233 1054 l 233 0 l 115 0 l 115 1054 m 404 117 q 515 91 456 91 q 608 106 574 91 q 660 152 642 122 q 692 317 692 201 l 692 1054 l 809 1054 l 809 325 q 795 159 809 214 q 754 71 781 104 q 690 18 726 37 q 519 -14 627 -14 q 387 -1 441 -14 l 404 117 z "},"ĳ":{"ha":928,"x_min":174,"x_max":755,"o":"m 174 1099 l 290 1099 l 290 937 l 174 937 l 174 1099 m 174 785 l 290 785 l 290 0 l 174 0 l 174 785 m 638 1099 l 754 1099 l 754 937 l 638 937 l 638 1099 m 640 -136 l 638 -24 l 638 785 l 754 785 l 754 -24 l 755 -81 q 742 -224 755 -184 q 711 -286 730 -264 q 661 -321 692 -308 q 519 -347 603 -347 q 404 -337 473 -347 l 417 -226 q 546 -252 500 -252 q 612 -231 592 -252 q 635 -190 631 -210 q 640 -136 640 -170 z "},"Ĵ":{"ha":578,"x_min":39,"x_max":652,"o":"m 56 117 q 167 91 108 91 q 260 106 226 91 q 312 152 294 122 q 344 317 344 201 l 344 1054 l 461 1054 l 461 325 q 447 159 461 214 q 406 71 433 104 q 342 18 378 37 q 171 -14 279 -14 q 39 -1 94 -14 l 56 117 m 198 1105 l 159 1181 l 406 1325 l 652 1181 l 613 1105 l 406 1214 l 198 1105 z "},"ĵ":{"ha":464,"x_min":-60,"x_max":497,"o":"m 176 -136 l 174 -24 l 174 785 l 290 785 l 290 -24 l 291 -81 q 278 -224 291 -184 q 247 -286 266 -264 q 197 -321 229 -308 q 56 -347 139 -347 q -60 -337 9 -347 l -47 -226 q 82 -252 37 -252 q 148 -231 128 -252 q 172 -190 168 -210 q 176 -136 176 -170 m 24 879 l -35 953 l 232 1165 l 497 953 l 441 880 l 232 1041 l 24 879 z "},"Ķ":{"ha":926,"x_min":149,"x_max":890,"o":"m 658 144 l 562 265 q 518 317 526 309 q 393 458 427 418 q 320 547 393 458 l 320 569 l 726 1054 l 882 1054 l 456 561 q 667 319 640 352 l 750 220 l 890 58 l 776 -16 q 658 144 718 67 m 149 0 l 149 1054 l 267 1054 l 267 0 l 149 0 m 592 -85 l 534 -366 l 448 -353 l 479 -85 l 592 -85 z "},"ķ":{"ha":812,"x_min":136,"x_max":758,"o":"m 140 0 q 138 956 140 0 q 136 1099 136 1078 l 255 1108 l 256 471 l 256 0 l 140 0 m 518 159 l 323 395 q 291 435 299 423 l 603 785 l 753 785 l 426 435 q 439 418 429 430 q 535 302 516 327 l 758 61 l 648 -14 q 518 159 589 73 m 468 -85 l 410 -366 l 323 -353 l 355 -85 l 468 -85 z "},"ĸ":{"ha":812,"x_min":135,"x_max":748,"o":"m 139 526 q 138 678 139 606 q 135 794 138 750 l 254 804 l 256 471 l 256 0 l 140 0 l 140 319 l 139 526 m 377 331 l 322 395 q 290 435 298 423 l 593 785 l 743 785 l 425 435 q 439 418 429 430 l 535 302 l 748 61 l 635 -16 l 511 158 l 377 331 z "},"Ĺ":{"ha":812,"x_min":114,"x_max":715,"o":"m 261 1122 l 519 1370 l 595 1286 l 324 1053 l 261 1122 m 114 0 l 114 1054 l 231 1054 l 231 110 l 715 110 l 710 0 l 114 0 z "},"ĺ":{"ha":473,"x_min":127,"x_max":510,"o":"m 154 1239 l 465 1370 l 510 1266 l 191 1153 l 154 1239 m 247 212 q 267 114 243 138 q 335 90 290 90 q 463 113 379 90 l 485 14 q 342 -13 395 -11 q 251 -5 289 -14 q 186 28 213 4 q 130 204 127 81 l 132 1099 l 248 1108 l 247 212 z "},"Ļ":{"ha":812,"x_min":114,"x_max":715,"o":"m 114 0 l 114 1054 l 231 1054 l 231 110 l 715 110 l 710 0 l 114 0 m 478 -85 l 420 -366 l 334 -353 l 365 -85 l 478 -85 z "},"ļ":{"ha":473,"x_min":127,"x_max":485,"o":"m 247 212 q 267 114 243 138 q 335 90 290 90 q 463 113 379 90 l 485 14 q 342 -13 395 -11 q 251 -5 289 -14 q 186 28 213 4 q 130 204 127 81 l 132 1099 l 248 1108 l 247 212 m 380 -85 l 321 -366 l 235 -353 l 267 -85 l 380 -85 z "},"Ľ":{"ha":812,"x_min":114,"x_max":715,"o":"m 397 1119 l 510 1119 l 452 808 l 366 822 l 397 1119 m 114 0 l 114 1054 l 231 1054 l 231 110 l 715 110 l 710 0 l 114 0 z "},"ľ":{"ha":579,"x_min":127,"x_max":511,"o":"m 397 1135 l 511 1135 l 452 824 l 366 838 l 397 1135 m 247 212 q 267 114 243 138 q 335 90 290 90 q 463 113 379 90 l 485 14 q 342 -13 395 -11 q 251 -5 289 -14 q 186 28 213 4 q 130 204 127 81 l 132 1099 l 248 1108 l 247 212 z "},"Ŀ":{"ha":812,"x_min":114,"x_max":715,"o":"m 562 602 l 692 602 l 692 461 l 562 461 l 562 602 m 114 0 l 114 1054 l 231 1054 l 231 110 l 715 110 l 710 0 l 114 0 z "},"ŀ":{"ha":578,"x_min":127,"x_max":497,"o":"m 369 670 l 497 670 l 497 517 l 369 517 l 369 670 m 247 212 q 267 114 243 138 q 335 90 290 90 q 463 113 379 90 l 485 14 q 342 -13 395 -11 q 251 -5 289 -14 q 186 28 213 4 q 130 204 127 81 l 132 1099 l 248 1108 l 247 212 z "},"Ł":{"ha":812,"x_min":-103,"x_max":715,"o":"m 114 0 l 114 471 l -54 358 l -103 431 l 114 578 l 114 1067 l 231 1067 l 231 656 l 453 807 l 502 732 l 231 549 l 231 110 l 715 110 l 710 0 l 114 0 z "},"ł":{"ha":473,"x_min":5,"x_max":485,"o":"m 247 212 q 267 114 243 138 q 335 90 290 90 q 463 113 379 90 l 485 14 q 342 -13 395 -11 q 251 -5 289 -14 q 186 28 213 4 q 130 204 127 81 l 130 403 l 60 344 l 5 410 l 130 516 l 132 1099 l 248 1108 l 248 614 l 403 744 l 458 678 l 247 500 l 247 212 z "},"Ń":{"ha":1042,"x_min":112,"x_max":929,"o":"m 112 1054 l 286 1054 l 729 276 l 812 111 l 812 1054 l 929 1054 l 929 0 l 757 0 l 311 782 l 229 943 l 229 0 l 112 0 l 112 1054 m 534 1095 l 471 1164 l 688 1370 l 765 1286 l 534 1095 z "},"ń":{"ha":926,"x_min":132,"x_max":777,"o":"m 140 0 l 140 230 q 138 604 140 523 l 136 711 q 132 785 134 773 l 248 791 q 247 769 248 783 q 247 736 247 756 l 247 686 q 527 794 406 794 q 711 735 649 794 q 777 547 774 675 l 777 0 l 661 0 l 661 505 q 631 651 661 609 q 526 692 601 692 q 324 641 425 692 q 253 602 290 624 l 254 541 q 256 436 256 489 l 256 0 l 140 0 m 288 948 l 545 1196 l 621 1113 l 350 879 l 288 948 z "},"Ņ":{"ha":1042,"x_min":112,"x_max":929,"o":"m 112 1054 l 286 1054 l 729 276 l 812 111 l 812 1054 l 929 1054 l 929 0 l 757 0 l 311 782 l 229 943 l 229 0 l 112 0 l 112 1054 m 572 -85 l 513 -366 l 427 -353 l 458 -85 l 572 -85 z "},"ņ":{"ha":926,"x_min":132,"x_max":777,"o":"m 140 0 l 140 230 q 138 604 140 523 l 136 711 q 132 785 134 773 l 248 791 q 247 769 248 783 q 247 736 247 756 l 247 686 q 527 794 406 794 q 711 735 649 794 q 777 547 774 675 l 777 0 l 661 0 l 661 505 q 631 651 661 609 q 526 692 601 692 q 324 641 425 692 q 253 602 290 624 l 254 541 q 256 436 256 489 l 256 0 l 140 0 m 527 -85 l 469 -366 l 382 -353 l 414 -85 l 527 -85 z "},"Ň":{"ha":1042,"x_min":112,"x_max":929,"o":"m 112 1054 l 286 1054 l 729 276 l 812 111 l 812 1054 l 929 1054 l 929 0 l 757 0 l 311 782 l 229 943 l 229 0 l 112 0 l 112 1054 m 521 1095 l 275 1239 l 313 1316 l 521 1206 l 728 1316 l 767 1239 l 521 1095 z "},"ň":{"ha":926,"x_min":132,"x_max":777,"o":"m 140 0 l 140 230 q 138 604 140 523 l 136 711 q 132 785 134 773 l 248 791 q 247 769 248 783 q 247 736 247 756 l 247 686 q 527 794 406 794 q 711 735 649 794 q 777 547 774 675 l 777 0 l 661 0 l 661 505 q 631 651 661 609 q 526 692 601 692 q 324 641 425 692 q 253 602 290 624 l 254 541 q 256 436 256 489 l 256 0 l 140 0 m 205 1072 l 263 1149 l 456 1003 l 649 1147 l 705 1072 l 456 879 l 205 1072 z "},"Ŋ":{"ha":1042,"x_min":111,"x_max":930,"o":"m 815 -136 l 814 -24 l 814 0 l 758 0 l 310 795 l 229 949 l 229 0 l 111 0 l 111 1067 l 286 1067 l 730 276 l 812 117 l 812 1067 l 930 1067 l 930 -72 q 918 -222 930 -182 q 887 -286 906 -263 q 838 -320 869 -308 q 695 -347 781 -347 q 578 -337 650 -347 l 593 -226 q 722 -252 676 -252 q 787 -231 767 -252 q 811 -190 807 -210 q 815 -136 815 -170 z "},"ŋ":{"ha":926,"x_min":132,"x_max":777,"o":"m 140 0 l 140 230 q 138 604 140 523 l 136 711 q 132 785 134 773 l 248 791 q 247 769 248 783 q 247 736 247 756 l 247 686 q 527 794 406 794 q 711 735 649 794 q 777 547 774 675 l 777 -72 q 765 -222 777 -182 q 734 -286 753 -263 q 684 -320 715 -308 q 542 -347 628 -347 q 425 -337 495 -347 l 439 -226 q 568 -252 524 -252 q 633 -231 613 -252 q 658 -190 654 -210 q 662 -136 662 -170 l 661 -24 l 661 505 q 631 651 661 609 q 526 692 601 692 q 324 641 425 692 q 253 602 290 624 l 254 541 q 256 436 256 489 l 256 0 l 140 0 z "},"Ō":{"ha":1158,"x_min":91,"x_max":1067,"o":"m 91 522 q 127 751 91 650 q 229 921 163 851 q 586 1063 364 1063 q 944 921 820 1063 q 1067 522 1067 781 q 928 127 1067 271 q 571 -14 793 -14 q 220 127 348 -14 q 91 522 91 269 m 212 521 q 236 335 211 416 q 309 199 261 254 q 581 93 406 90 q 849 205 752 94 q 947 530 949 319 q 571 957 941 957 q 308 843 402 957 q 212 521 213 728 m 366 1261 l 794 1261 l 794 1168 l 366 1168 l 366 1261 z "},"ō":{"ha":924,"x_min":111,"x_max":813,"o":"m 111 382 q 138 558 111 480 q 213 688 165 635 q 468 794 310 794 q 726 689 637 794 q 813 389 813 586 q 709 86 813 195 q 458 -14 613 -14 q 205 88 296 -14 q 111 382 111 191 m 460 85 q 689 389 689 85 q 564 675 685 617 q 464 695 522 695 q 363 674 407 695 q 290 614 320 654 q 232 386 230 532 q 291 162 233 239 q 460 85 348 85 m 249 1023 l 677 1023 l 677 930 l 249 930 l 249 1023 z "},"Ŏ":{"ha":1158,"x_min":91,"x_max":1067,"o":"m 91 522 q 127 751 91 650 q 229 921 163 851 q 586 1063 364 1063 q 944 921 820 1063 q 1067 522 1067 781 q 928 127 1067 271 q 571 -14 793 -14 q 220 127 348 -14 q 91 522 91 269 m 212 521 q 236 335 211 416 q 309 199 261 254 q 581 93 406 90 q 849 205 752 94 q 947 530 949 319 q 571 957 941 957 q 308 843 402 957 q 212 521 213 728 m 580 1153 q 390 1246 446 1153 q 365 1314 372 1276 l 454 1341 q 502 1268 462 1296 q 568 1244 537 1244 q 620 1250 599 1244 q 658 1268 640 1256 q 706 1341 699 1296 l 795 1314 q 723 1195 783 1239 q 580 1153 665 1153 z "},"ŏ":{"ha":924,"x_min":111,"x_max":813,"o":"m 111 382 q 138 558 111 480 q 213 688 165 635 q 468 794 310 794 q 726 689 637 794 q 813 389 813 586 q 709 86 813 195 q 458 -14 613 -14 q 205 88 296 -14 q 111 382 111 191 m 460 85 q 689 389 689 85 q 564 675 685 617 q 464 695 522 695 q 363 674 407 695 q 290 614 320 654 q 232 386 230 532 q 291 162 233 239 q 460 85 348 85 m 463 890 q 384 901 420 890 q 319 932 348 911 q 248 1051 262 975 l 338 1078 q 385 1005 345 1033 q 451 981 420 981 q 503 987 482 981 q 541 1005 524 993 q 589 1078 582 1033 l 678 1051 q 607 932 666 976 q 463 890 549 890 z "},"Ő":{"ha":1158,"x_min":91,"x_max":1067,"o":"m 91 522 q 127 751 91 650 q 229 921 163 851 q 586 1063 364 1063 q 944 921 820 1063 q 1067 522 1067 781 q 928 127 1067 271 q 571 -14 793 -14 q 220 127 348 -14 q 91 522 91 269 m 212 521 q 236 335 211 416 q 309 199 261 254 q 581 93 406 90 q 849 205 752 94 q 947 530 949 319 q 571 957 941 957 q 308 843 402 957 q 212 521 213 728 m 391 1177 l 618 1370 l 709 1311 l 439 1099 l 391 1177 m 650 1177 l 880 1367 l 972 1307 l 699 1099 l 650 1177 z "},"ő":{"ha":924,"x_min":111,"x_max":821,"o":"m 111 382 q 138 558 111 480 q 213 688 165 635 q 468 794 310 794 q 726 689 637 794 q 813 389 813 586 q 709 86 813 195 q 458 -14 613 -14 q 205 88 296 -14 q 111 382 111 191 m 460 85 q 689 389 689 85 q 564 675 685 617 q 464 695 522 695 q 363 674 407 695 q 290 614 320 654 q 232 386 230 532 q 291 162 233 239 q 460 85 348 85 m 206 951 l 433 1144 l 525 1085 l 255 873 l 206 951 m 499 951 l 730 1141 l 821 1081 l 548 873 l 499 951 z "},"Œ":{"ha":1617,"x_min":72,"x_max":1545,"o":"m 924 170 q 552 -14 793 -14 q 201 127 329 -14 q 72 522 72 269 q 210 921 72 774 q 573 1063 345 1063 q 924 897 801 1063 l 924 1054 l 1531 1054 l 1525 945 l 1040 945 l 1040 600 l 1475 600 l 1475 492 l 1040 492 l 1040 108 l 1537 108 l 1545 0 l 924 0 l 924 170 m 193 521 q 217 335 192 416 q 290 199 242 254 q 562 93 387 90 q 830 205 733 94 q 928 530 930 319 q 552 957 922 957 q 289 843 383 957 q 193 521 194 728 z "},"œ":{"ha":1274,"x_min":41,"x_max":1232,"o":"m 663 153 q 386 -14 573 -14 q 133 88 224 -14 q 41 380 41 191 q 141 688 41 576 q 395 794 237 794 q 560 752 495 794 q 667 627 625 709 q 934 794 747 791 q 1162 680 1086 794 q 1232 387 1232 576 l 1232 362 l 726 362 q 871 100 737 145 q 978 87 913 87 q 1142 124 1042 87 l 1164 24 q 1043 -9 1088 -5 q 958 -14 998 -14 q 875 -6 918 -14 q 795 20 833 2 q 663 153 716 60 m 1109 454 q 1075 618 1101 574 q 1016 681 1049 662 q 940 697 983 699 q 814 662 857 693 q 726 454 728 599 l 1109 454 m 386 85 q 607 389 604 85 q 492 675 607 617 q 394 695 451 695 q 295 674 338 695 q 224 614 253 654 q 163 386 163 532 q 219 162 163 239 q 386 85 276 85 z "},"Ŕ":{"ha":926,"x_min":149,"x_max":860,"o":"m 484 390 q 420 387 463 387 l 267 387 l 267 0 l 149 0 l 149 1054 l 436 1054 q 810 856 749 1058 q 829 716 829 793 q 770 517 823 594 q 606 408 716 441 l 635 362 q 684 289 656 330 l 860 60 l 739 -14 q 665 112 705 49 l 534 315 q 484 390 511 352 m 420 490 q 686 613 632 488 q 707 715 705 656 q 695 817 709 774 q 648 890 681 861 q 436 949 583 951 l 267 949 l 267 490 l 420 490 m 518 1095 l 455 1164 l 672 1370 l 749 1286 l 518 1095 z "},"ŕ":{"ha":578,"x_min":132,"x_max":572,"o":"m 252 503 q 254 373 254 452 l 254 0 l 140 0 q 132 785 140 720 l 244 794 l 244 604 q 486 794 334 794 q 572 786 538 794 l 547 665 q 474 682 515 682 q 401 664 434 682 q 340 618 368 646 q 291 560 313 591 l 252 503 m 179 948 l 436 1196 l 513 1113 l 241 879 l 179 948 z "},"Ŗ":{"ha":926,"x_min":149,"x_max":860,"o":"m 484 390 q 420 387 463 387 l 267 387 l 267 0 l 149 0 l 149 1054 l 436 1054 q 810 856 749 1058 q 829 716 829 793 q 770 517 823 594 q 606 408 716 441 l 635 362 q 684 289 656 330 l 860 60 l 739 -14 q 665 112 705 49 l 534 315 q 484 390 511 352 m 420 490 q 686 613 632 488 q 707 715 705 656 q 695 817 709 774 q 648 890 681 861 q 436 949 583 951 l 267 949 l 267 490 l 420 490 m 577 -85 l 519 -366 l 433 -353 l 464 -85 l 577 -85 z "},"ŗ":{"ha":578,"x_min":123,"x_max":572,"o":"m 252 503 q 254 373 254 452 l 254 0 l 140 0 q 132 785 140 720 l 244 794 l 244 604 q 486 794 334 794 q 572 786 538 794 l 547 665 q 474 682 515 682 q 401 664 434 682 q 340 618 368 646 q 291 560 313 591 l 252 503 m 267 -85 l 209 -366 l 123 -353 l 154 -85 l 267 -85 z "},"Ř":{"ha":926,"x_min":149,"x_max":860,"o":"m 484 390 q 420 387 463 387 l 267 387 l 267 0 l 149 0 l 149 1054 l 436 1054 q 810 856 749 1058 q 829 716 829 793 q 770 517 823 594 q 606 408 716 441 l 635 362 q 684 289 656 330 l 860 60 l 739 -14 q 665 112 705 49 l 534 315 q 484 390 511 352 m 420 490 q 686 613 632 488 q 707 715 705 656 q 695 817 709 774 q 648 890 681 861 q 436 949 583 951 l 267 949 l 267 490 l 420 490 m 505 1095 l 258 1239 l 297 1316 l 505 1206 l 712 1316 l 751 1239 l 505 1095 z "},"ř":{"ha":578,"x_min":58,"x_max":572,"o":"m 252 503 q 254 373 254 452 l 254 0 l 140 0 q 132 785 140 720 l 244 794 l 244 604 q 486 794 334 794 q 572 786 538 794 l 547 665 q 474 682 515 682 q 401 664 434 682 q 340 618 368 646 q 291 560 313 591 l 252 503 m 58 1072 l 116 1149 l 309 1003 l 502 1147 l 558 1072 l 309 879 l 58 1072 z "},"Ś":{"ha":810,"x_min":78,"x_max":736,"o":"m 431 1063 l 453 1064 q 686 1024 555 1064 l 664 922 q 260 873 363 1019 q 229 781 229 831 q 246 702 229 731 q 291 651 262 673 q 414 587 336 616 q 546 530 493 557 q 642 466 600 503 q 736 276 736 384 q 698 130 736 188 q 612 41 661 71 q 382 -14 522 -14 q 78 42 239 -14 l 99 146 q 385 91 229 97 q 581 168 516 86 q 614 258 614 212 q 596 334 614 304 q 547 389 578 364 q 414 463 492 436 q 287 515 337 490 q 197 575 237 540 q 109 774 109 653 q 298 1040 109 971 q 431 1063 362 1063 m 420 1095 l 357 1164 l 574 1370 l 651 1286 l 420 1095 z "},"ś":{"ha":694,"x_min":86,"x_max":606,"o":"m 551 664 q 378 692 472 692 q 257 629 291 692 q 244 584 247 611 q 252 532 241 556 q 283 490 262 508 q 366 440 315 460 q 444 408 418 420 q 494 382 470 397 q 538 350 517 368 q 574 309 559 332 q 604 197 606 260 q 580 95 602 134 q 521 33 558 56 q 327 -14 451 -14 q 86 31 203 -14 l 106 134 q 330 88 214 91 q 471 145 439 84 q 475 237 496 191 q 399 308 456 279 q 338 336 372 322 q 265 369 304 350 q 194 416 226 388 q 123 579 123 479 l 123 589 q 148 681 123 641 q 209 745 173 720 q 380 794 278 791 q 574 764 482 794 l 551 664 m 193 948 l 450 1196 l 526 1113 l 255 879 l 193 948 z "},"Ŝ":{"ha":810,"x_min":78,"x_max":736,"o":"m 431 1063 l 453 1064 q 686 1024 555 1064 l 664 922 q 260 873 363 1019 q 229 781 229 831 q 246 702 229 731 q 291 651 262 673 q 414 587 336 616 q 546 530 493 557 q 642 466 600 503 q 736 276 736 384 q 698 130 736 188 q 612 41 661 71 q 382 -14 522 -14 q 78 42 239 -14 l 99 146 q 385 91 229 97 q 581 168 516 86 q 614 258 614 212 q 596 334 614 304 q 547 389 578 364 q 414 463 492 436 q 287 515 337 490 q 197 575 237 540 q 109 774 109 653 q 298 1040 109 971 q 431 1063 362 1063 m 201 1095 l 162 1172 l 408 1316 l 654 1172 l 616 1095 l 408 1204 l 201 1095 z "},"ŝ":{"ha":694,"x_min":86,"x_max":625,"o":"m 551 664 q 378 692 472 692 q 257 629 291 692 q 244 584 247 611 q 252 532 241 556 q 283 490 262 508 q 366 440 315 460 q 444 408 418 420 q 494 382 470 397 q 538 350 517 368 q 574 309 559 332 q 604 197 606 260 q 580 95 602 134 q 521 33 558 56 q 327 -14 451 -14 q 86 31 203 -14 l 106 134 q 330 88 214 91 q 471 145 439 84 q 475 237 496 191 q 399 308 456 279 q 338 336 372 322 q 265 369 304 350 q 194 416 226 388 q 123 579 123 479 l 123 589 q 148 681 123 641 q 209 745 173 720 q 380 794 278 791 q 574 764 482 794 l 551 664 m 152 879 l 94 953 l 360 1165 l 625 953 l 570 880 l 360 1041 l 152 879 z "},"Ş":{"ha":810,"x_min":78,"x_max":736,"o":"m 431 1063 l 453 1064 q 686 1024 555 1064 l 664 922 q 260 873 363 1019 q 229 781 229 831 q 246 702 229 731 q 291 651 262 673 q 414 587 336 616 q 546 530 493 557 q 642 466 600 503 q 736 276 736 384 q 698 130 736 188 q 612 41 661 71 q 382 -14 522 -14 q 78 42 239 -14 l 99 146 q 385 91 229 97 q 581 168 516 86 q 614 258 614 212 q 596 334 614 304 q 547 389 578 364 q 414 463 492 436 q 287 515 337 490 q 197 575 237 540 q 109 774 109 653 q 298 1040 109 971 q 431 1063 362 1063 m 272 -265 q 361 -280 330 -280 q 448 -218 435 -280 q 450 -192 450 -208 q 439 -163 450 -176 q 413 -141 429 -149 q 334 -127 388 -130 l 340 -48 q 543 -136 494 -41 q 556 -209 559 -168 q 536 -277 553 -250 q 494 -323 519 -305 q 375 -359 443 -359 q 258 -334 307 -359 l 258 -332 l 272 -265 z "},"ş":{"ha":694,"x_min":86,"x_max":606,"o":"m 551 664 q 378 692 472 692 q 257 629 291 692 q 244 584 247 611 q 252 532 241 556 q 283 490 262 508 q 366 440 315 460 q 444 408 418 420 q 494 382 470 397 q 538 350 517 368 q 574 309 559 332 q 604 197 606 260 q 580 95 602 134 q 521 33 558 56 q 327 -14 451 -14 q 86 31 203 -14 l 106 134 q 330 88 214 91 q 471 145 439 84 q 475 237 496 191 q 399 308 456 279 q 338 336 372 322 q 265 369 304 350 q 194 416 226 388 q 123 579 123 479 l 123 589 q 148 681 123 641 q 209 745 173 720 q 380 794 278 791 q 574 764 482 794 l 551 664 m 199 -265 q 289 -280 257 -280 q 375 -218 362 -280 q 377 -192 377 -208 q 367 -163 377 -176 q 340 -141 357 -149 q 262 -127 315 -130 l 267 -48 q 470 -136 422 -41 q 483 -209 486 -168 q 464 -277 480 -250 q 421 -323 447 -305 q 302 -359 370 -359 q 185 -334 234 -359 l 185 -332 l 199 -265 z "},"Š":{"ha":810,"x_min":78,"x_max":736,"o":"m 431 1063 l 453 1064 q 686 1024 555 1064 l 664 922 q 260 873 363 1019 q 229 781 229 831 q 246 702 229 731 q 291 651 262 673 q 414 587 336 616 q 546 530 493 557 q 642 466 600 503 q 736 276 736 384 q 698 130 736 188 q 612 41 661 71 q 382 -14 522 -14 q 78 42 239 -14 l 99 146 q 385 91 229 97 q 581 168 516 86 q 614 258 614 212 q 596 334 614 304 q 547 389 578 364 q 414 463 492 436 q 287 515 337 490 q 197 575 237 540 q 109 774 109 653 q 298 1040 109 971 q 431 1063 362 1063 m 407 1095 l 161 1239 l 199 1316 l 407 1206 l 614 1316 l 653 1239 l 407 1095 z "},"š":{"ha":694,"x_min":86,"x_max":610,"o":"m 551 664 q 378 692 472 692 q 257 629 291 692 q 244 584 247 611 q 252 532 241 556 q 283 490 262 508 q 366 440 315 460 q 444 408 418 420 q 494 382 470 397 q 538 350 517 368 q 574 309 559 332 q 604 197 606 260 q 580 95 602 134 q 521 33 558 56 q 327 -14 451 -14 q 86 31 203 -14 l 106 134 q 330 88 214 91 q 471 145 439 84 q 475 237 496 191 q 399 308 456 279 q 338 336 372 322 q 265 369 304 350 q 194 416 226 388 q 123 579 123 479 l 123 589 q 148 681 123 641 q 209 745 173 720 q 380 794 278 791 q 574 764 482 794 l 551 664 m 110 1072 l 168 1149 l 361 1003 l 554 1147 l 610 1072 l 361 879 l 110 1072 z "},"Ţ":{"ha":1044,"x_min":115,"x_max":922,"o":"m 463 0 l 463 945 l 115 945 l 115 1054 l 922 1054 l 922 945 l 581 945 l 581 0 l 463 0 m 596 -85 l 538 -366 l 452 -353 l 483 -85 l 596 -85 z "},"ţ":{"ha":578,"x_min":42,"x_max":545,"o":"m 545 24 q 352 -14 448 -14 q 214 28 258 -12 q 165 176 165 73 q 165 190 165 183 q 166 204 165 197 l 170 689 l 42 689 l 45 785 l 174 785 q 166 947 174 898 l 283 966 l 288 785 l 502 785 l 502 689 l 286 689 l 283 212 q 295 121 280 143 q 329 94 310 100 q 389 88 347 88 q 524 119 431 88 l 545 24 m 366 -85 l 308 -366 l 222 -353 l 253 -85 l 366 -85 z "},"Ť":{"ha":1044,"x_min":115,"x_max":922,"o":"m 463 0 l 463 945 l 115 945 l 115 1054 l 922 1054 l 922 945 l 581 945 l 581 0 l 463 0 m 524 1095 l 277 1239 l 316 1316 l 524 1206 l 731 1316 l 770 1239 l 524 1095 z "},"ť":{"ha":578,"x_min":42,"x_max":545,"o":"m 414 1208 l 527 1208 l 469 897 l 383 912 l 414 1208 m 545 24 q 352 -14 448 -14 q 214 28 258 -12 q 165 176 165 73 q 165 190 165 183 q 166 204 165 197 l 170 689 l 42 689 l 45 785 l 174 785 q 166 947 174 898 l 283 966 l 288 785 l 502 785 l 502 689 l 286 689 l 283 212 q 295 121 280 143 q 329 94 310 100 q 389 88 347 88 q 524 119 431 88 l 545 24 z "},"Ŧ":{"ha":1044,"x_min":115,"x_max":922,"o":"m 463 0 l 463 477 l 258 477 l 258 566 l 463 566 l 463 945 l 115 945 l 115 1054 l 922 1054 l 922 945 l 581 945 l 581 566 l 785 566 l 785 477 l 581 477 l 581 0 l 463 0 z "},"ŧ":{"ha":578,"x_min":39,"x_max":545,"o":"m 545 24 q 352 -14 448 -14 q 214 28 258 -12 q 165 176 165 73 q 165 190 165 183 q 166 204 165 197 l 168 408 l 39 408 l 39 490 l 168 490 l 170 689 l 42 689 l 45 785 l 174 785 q 166 947 174 898 l 283 966 l 288 785 l 502 785 l 502 689 l 286 689 l 284 490 l 458 490 l 458 408 l 283 408 l 283 212 q 295 121 280 143 q 329 94 310 100 q 389 88 347 88 q 524 119 431 88 l 545 24 z "},"Ũ":{"ha":1042,"x_min":133,"x_max":909,"o":"m 133 1054 l 250 1054 l 250 472 q 260 310 250 361 q 286 221 269 258 q 332 155 302 183 q 521 94 397 94 q 755 221 699 94 q 789 361 786 291 q 791 472 791 431 l 791 1054 l 909 1054 l 909 472 q 895 260 909 326 q 855 147 880 195 q 787 64 831 99 q 521 -14 694 -14 q 186 146 267 -14 q 136 359 142 235 q 133 472 133 417 l 133 1054 m 277 1200 q 339 1287 300 1254 q 414 1324 378 1320 q 476 1317 450 1328 q 526 1291 502 1306 q 572 1264 526 1291 q 696 1315 648 1218 l 766 1274 q 704 1187 743 1219 q 517 1190 625 1120 q 432 1230 456 1230 q 347 1159 382 1230 l 277 1200 z "},"ũ":{"ha":924,"x_min":123,"x_max":771,"o":"m 762 656 l 762 317 q 771 0 762 42 l 665 0 l 652 110 q 461 -4 570 24 q 373 -13 423 -14 q 274 5 322 -12 q 193 56 226 23 q 126 250 123 125 l 126 785 l 241 794 l 241 290 q 273 137 241 183 q 381 89 305 90 q 521 117 457 88 q 652 202 585 146 l 649 252 q 647 344 647 284 l 647 785 l 763 794 q 762 656 762 720 m 205 949 q 267 1037 229 1004 q 342 1074 305 1070 q 404 1067 378 1078 q 454 1042 430 1056 q 500 1013 454 1042 q 624 1065 576 968 l 694 1023 q 632 936 671 968 q 445 940 553 870 q 360 979 385 979 q 275 909 310 979 l 205 949 z "},"Ū":{"ha":1042,"x_min":133,"x_max":909,"o":"m 133 1054 l 250 1054 l 250 472 q 260 310 250 361 q 286 221 269 258 q 332 155 302 183 q 521 94 397 94 q 755 221 699 94 q 789 361 786 291 q 791 472 791 431 l 791 1054 l 909 1054 l 909 472 q 895 260 909 326 q 855 147 880 195 q 787 64 831 99 q 521 -14 694 -14 q 186 146 267 -14 q 136 359 142 235 q 133 472 133 417 l 133 1054 m 307 1261 l 736 1261 l 736 1168 l 307 1168 l 307 1261 z "},"ū":{"ha":924,"x_min":123,"x_max":771,"o":"m 762 656 l 762 317 q 771 0 762 42 l 665 0 l 652 110 q 461 -4 570 24 q 373 -13 423 -14 q 274 5 322 -12 q 193 56 226 23 q 126 250 123 125 l 126 785 l 241 794 l 241 290 q 273 137 241 183 q 381 89 305 90 q 521 117 457 88 q 652 202 585 146 l 649 252 q 647 344 647 284 l 647 785 l 763 794 q 762 656 762 720 m 235 1023 l 663 1023 l 663 930 l 235 930 l 235 1023 z "},"Ŭ":{"ha":1042,"x_min":133,"x_max":909,"o":"m 133 1054 l 250 1054 l 250 472 q 260 310 250 361 q 286 221 269 258 q 332 155 302 183 q 521 94 397 94 q 755 221 699 94 q 789 361 786 291 q 791 472 791 431 l 791 1054 l 909 1054 l 909 472 q 895 260 909 326 q 855 147 880 195 q 787 64 831 99 q 521 -14 694 -14 q 186 146 267 -14 q 136 359 142 235 q 133 472 133 417 l 133 1054 m 522 1153 q 332 1246 388 1153 q 307 1314 313 1276 l 396 1341 q 444 1268 404 1296 q 510 1244 479 1244 q 561 1250 541 1244 q 600 1268 582 1256 q 648 1341 640 1296 l 736 1314 q 665 1195 724 1239 q 522 1153 607 1153 z "},"ŭ":{"ha":924,"x_min":123,"x_max":771,"o":"m 762 656 l 762 317 q 771 0 762 42 l 665 0 l 652 110 q 461 -4 570 24 q 373 -13 423 -14 q 274 5 322 -12 q 193 56 226 23 q 126 250 123 125 l 126 785 l 241 794 l 241 290 q 273 137 241 183 q 381 89 305 90 q 521 117 457 88 q 652 202 585 146 l 649 252 q 647 344 647 284 l 647 785 l 763 794 q 762 656 762 720 m 450 890 q 371 901 407 890 q 306 932 334 911 q 235 1051 248 975 l 324 1078 q 372 1005 332 1033 q 438 981 407 981 q 489 987 469 981 q 528 1005 510 993 q 576 1078 568 1033 l 665 1051 q 593 932 652 976 q 450 890 535 890 z "},"Ů":{"ha":1042,"x_min":133,"x_max":909,"o":"m 133 1054 l 250 1054 l 250 472 q 260 310 250 361 q 286 221 269 258 q 332 155 302 183 q 521 94 397 94 q 755 221 699 94 q 789 361 786 291 q 791 472 791 431 l 791 1054 l 909 1054 l 909 472 q 895 260 909 326 q 855 147 880 195 q 787 64 831 99 q 521 -14 694 -14 q 186 146 267 -14 q 136 359 142 235 q 133 472 133 417 l 133 1054 m 520 1078 q 406 1115 451 1078 q 357 1221 357 1155 q 406 1331 357 1289 q 520 1370 452 1370 q 635 1331 589 1370 q 684 1221 684 1289 q 635 1115 684 1155 q 520 1078 589 1078 m 520 1141 q 578 1160 555 1141 q 601 1221 601 1179 q 578 1285 601 1263 q 520 1307 555 1307 q 463 1285 486 1307 q 441 1221 441 1263 q 463 1160 441 1179 q 520 1141 486 1141 z "},"ů":{"ha":924,"x_min":123,"x_max":771,"o":"m 762 656 l 762 317 q 771 0 762 42 l 665 0 l 652 110 q 461 -4 570 24 q 373 -13 423 -14 q 274 5 322 -12 q 193 56 226 23 q 126 250 123 125 l 126 785 l 241 794 l 241 290 q 273 137 241 183 q 381 89 305 90 q 521 117 457 88 q 652 202 585 146 l 649 252 q 647 344 647 284 l 647 785 l 763 794 q 762 656 762 720 m 449 900 q 329 940 376 900 q 279 1053 279 981 q 329 1168 279 1126 q 449 1208 376 1208 q 569 1168 522 1208 q 618 1053 618 1126 q 569 940 618 981 q 449 900 522 900 m 449 963 q 510 987 486 963 q 534 1053 534 1012 q 510 1119 534 1095 q 449 1144 486 1144 q 388 1119 412 1144 q 364 1053 364 1095 q 388 987 364 1012 q 449 963 412 963 z "},"Ű":{"ha":1042,"x_min":133,"x_max":913,"o":"m 133 1054 l 250 1054 l 250 472 q 260 310 250 361 q 286 221 269 258 q 332 155 302 183 q 521 94 397 94 q 755 221 699 94 q 789 361 786 291 q 791 472 791 431 l 791 1054 l 909 1054 l 909 472 q 895 260 909 326 q 855 147 880 195 q 787 64 831 99 q 521 -14 694 -14 q 186 146 267 -14 q 136 359 142 235 q 133 472 133 417 l 133 1054 m 332 1177 l 560 1370 l 651 1311 l 381 1099 l 332 1177 m 591 1177 l 822 1367 l 913 1307 l 640 1099 l 591 1177 z "},"ű":{"ha":924,"x_min":123,"x_max":807,"o":"m 762 656 l 762 317 q 771 0 762 42 l 665 0 l 652 110 q 461 -4 570 24 q 373 -13 423 -14 q 274 5 322 -12 q 193 56 226 23 q 126 250 123 125 l 126 785 l 241 794 l 241 290 q 273 137 241 183 q 381 89 305 90 q 521 117 457 88 q 652 202 585 146 l 649 252 q 647 344 647 284 l 647 785 l 763 794 q 762 656 762 720 m 193 951 l 420 1144 l 511 1085 l 241 873 l 193 951 m 486 951 l 716 1141 l 807 1081 l 534 873 l 486 951 z "},"Ų":{"ha":1042,"x_min":133,"x_max":909,"o":"m 562 -12 q 521 -14 542 -14 q 186 146 267 -14 q 136 359 142 235 q 133 472 133 417 l 133 1054 l 250 1054 l 250 472 q 260 310 250 361 q 286 221 269 258 q 332 155 302 183 q 521 94 397 94 q 755 221 699 94 q 789 361 786 291 q 791 472 791 431 l 791 1054 l 909 1054 l 909 472 q 876 194 909 294 q 675 6 827 50 q 585 -134 599 -61 q 656 -226 575 -226 q 714 -218 688 -226 l 731 -298 q 633 -323 676 -323 q 564 -315 590 -323 q 519 -289 538 -306 q 480 -190 480 -253 q 532 -51 480 -127 q 562 -12 546 -29 z "},"ų":{"ha":924,"x_min":123,"x_max":774,"o":"m 774 -298 q 676 -323 719 -323 q 607 -315 633 -323 q 563 -289 581 -306 q 523 -190 523 -253 q 566 -64 523 -133 q 651 23 607 3 l 663 22 l 652 110 q 461 -4 570 24 q 373 -13 423 -14 q 274 5 322 -12 q 193 56 226 23 q 126 250 123 125 l 126 785 l 241 794 l 241 290 q 273 137 241 183 q 381 89 305 90 q 521 117 457 88 q 652 202 585 146 l 649 252 q 647 344 647 284 l 647 785 l 763 794 q 762 656 762 720 l 762 534 q 771 0 762 42 l 711 0 q 628 -134 640 -66 q 699 -226 618 -226 q 757 -218 731 -226 l 774 -298 z "},"Ŵ":{"ha":1389,"x_min":12,"x_max":1377,"o":"m 309 0 l 218 309 l 12 1054 l 145 1054 l 330 334 l 387 108 l 439 334 l 624 1054 l 768 1054 l 951 334 l 1002 108 l 1244 1054 l 1377 1054 l 1177 326 l 1081 0 l 922 0 l 743 702 l 698 917 l 692 917 l 646 702 l 467 0 l 309 0 m 488 1095 l 450 1172 l 696 1316 l 942 1172 l 903 1095 l 696 1204 l 488 1095 z "},"ŵ":{"ha":1157,"x_min":-1,"x_max":1158,"o":"m 241 0 l -1 785 l 130 785 l 321 71 l 347 174 l 509 785 l 650 785 l 811 174 l 836 71 l 1027 785 l 1158 785 l 916 0 l 747 0 l 600 579 l 579 686 l 557 579 l 411 0 l 241 0 m 370 879 l 312 953 l 578 1165 l 844 953 l 788 880 l 578 1041 l 370 879 z "},"Ŷ":{"ha":811,"x_min":-14,"x_max":825,"o":"m 346 385 q 255 548 300 463 q -14 1054 35 971 l 125 1054 l 406 496 l 686 1054 l 825 1054 l 464 385 l 464 0 l 346 0 l 346 385 m 199 1095 l 161 1172 l 407 1316 l 653 1172 l 614 1095 l 407 1204 l 199 1095 z "},"ŷ":{"ha":810,"x_min":43,"x_max":759,"o":"m 43 785 l 170 785 l 399 91 l 630 785 l 759 785 l 341 -366 l 208 -320 q 376 0 345 -62 l 319 0 l 43 785 m 191 879 l 133 953 l 399 1165 l 665 953 l 609 880 l 399 1041 l 191 879 z "},"Ÿ":{"ha":811,"x_min":-14,"x_max":825,"o":"m 346 385 q 255 548 300 463 q -14 1054 35 971 l 125 1054 l 406 496 l 686 1054 l 825 1054 l 464 385 l 464 0 l 346 0 l 346 385 m 477 1306 l 597 1306 l 597 1152 l 477 1152 l 477 1306 m 215 1306 l 334 1306 l 334 1152 l 215 1152 l 215 1306 z "},"Ź":{"ha":811,"x_min":41,"x_max":769,"o":"m 41 81 l 577 947 l 79 947 l 79 1054 l 713 1054 l 732 973 l 194 106 l 769 106 l 762 0 l 61 0 l 41 81 m 418 1095 l 355 1164 l 572 1370 l 649 1286 l 418 1095 z "},"ź":{"ha":695,"x_min":47,"x_max":647,"o":"m 47 83 l 473 684 l 68 684 l 68 785 l 620 785 l 620 700 l 195 100 l 647 100 l 640 0 l 66 0 l 47 83 m 180 948 l 437 1196 l 514 1113 l 243 879 l 180 948 z "},"Ż":{"ha":811,"x_min":41,"x_max":769,"o":"m 41 81 l 577 947 l 79 947 l 79 1054 l 713 1054 l 732 973 l 194 106 l 769 106 l 762 0 l 61 0 l 41 81 m 345 1369 l 465 1369 l 465 1208 l 345 1208 l 345 1369 z "},"ż":{"ha":695,"x_min":47,"x_max":647,"o":"m 47 83 l 473 684 l 68 684 l 68 785 l 620 785 l 620 700 l 195 100 l 647 100 l 640 0 l 66 0 l 47 83 m 288 1086 l 407 1086 l 407 926 l 288 926 l 288 1086 z "},"Ž":{"ha":811,"x_min":41,"x_max":769,"o":"m 41 81 l 577 947 l 79 947 l 79 1054 l 713 1054 l 732 973 l 194 106 l 769 106 l 762 0 l 61 0 l 41 81 m 405 1095 l 159 1239 l 197 1316 l 405 1206 l 612 1316 l 651 1239 l 405 1095 z "},"ž":{"ha":695,"x_min":47,"x_max":647,"o":"m 47 83 l 473 684 l 68 684 l 68 785 l 620 785 l 620 700 l 195 100 l 647 100 l 640 0 l 66 0 l 47 83 m 98 1072 l 156 1149 l 349 1003 l 542 1147 l 598 1072 l 349 879 l 98 1072 z "},"ƒ":{"ha":811,"x_min":36,"x_max":753,"o":"m 77 140 q 334 216 307 9 q 338 311 339 257 l 338 491 l 208 491 l 229 585 l 338 585 l 338 653 q 411 883 336 812 q 576 939 469 939 q 753 900 654 939 l 703 800 q 576 836 644 836 q 496 812 519 836 q 455 653 454 766 l 455 585 l 612 585 l 612 491 l 455 491 l 455 311 q 315 1 459 52 q 230 -14 270 -14 q 161 -7 189 -14 q 109 9 134 0 q 36 47 66 26 l 77 140 z "},"Ǽ":{"ha":1389,"x_min":43,"x_max":1345,"o":"m 459 1054 l 1333 1054 l 1326 945 l 652 945 l 790 593 l 1268 593 l 1268 486 l 831 486 l 985 108 l 1339 108 l 1345 0 l 890 0 l 783 292 l 286 292 l 178 0 l 43 0 l 459 1054 m 741 389 l 633 673 q 594 780 610 734 l 564 871 q 532 967 550 916 q 503 877 517 922 q 471 781 503 877 q 324 389 471 781 l 741 389 m 821 1095 l 758 1164 l 975 1370 l 1051 1286 l 821 1095 z "},"ǽ":{"ha":1158,"x_min":38,"x_max":1119,"o":"m 1052 24 q 845 -14 952 -14 q 617 58 711 -14 q 559 119 584 83 l 496 66 q 385 2 434 16 q 283 -14 336 -13 q 182 3 230 -14 q 102 53 134 21 q 39 217 38 117 q 165 396 41 340 q 454 441 266 441 l 487 441 l 487 536 q 453 656 487 616 q 342 695 420 695 q 109 647 235 695 l 85 743 q 338 794 214 794 q 489 765 439 794 q 572 635 551 730 q 742 785 618 755 q 826 794 778 794 q 921 779 875 794 q 1000 735 966 763 q 1057 667 1034 707 q 1093 579 1080 627 q 1119 362 1119 492 l 601 362 q 739 111 613 177 q 857 87 783 87 q 1029 124 930 87 l 1052 24 m 996 454 q 898 677 985 629 q 818 696 865 696 q 734 677 770 696 q 671 625 698 659 q 604 454 616 557 l 996 454 m 436 355 q 160 216 160 355 q 195 118 160 152 q 294 85 231 85 q 399 106 355 85 q 524 185 460 136 q 492 355 496 256 l 436 355 m 412 948 l 669 1196 l 745 1113 l 474 879 l 412 948 z "},"Ș":{"ha":810,"x_min":78,"x_max":736,"o":"m 431 1063 l 453 1064 q 686 1024 555 1064 l 664 922 q 260 873 363 1019 q 229 781 229 831 q 246 702 229 731 q 291 651 262 673 q 414 587 336 616 q 546 530 493 557 q 642 466 600 503 q 736 276 736 384 q 698 130 736 188 q 612 41 661 71 q 382 -14 522 -14 q 78 42 239 -14 l 99 146 q 385 91 229 97 q 581 168 516 86 q 614 258 614 212 q 596 334 614 304 q 547 389 578 364 q 414 463 492 436 q 287 515 337 490 q 197 575 237 540 q 109 774 109 653 q 298 1040 109 971 q 431 1063 362 1063 m 479 -85 l 421 -366 l 335 -353 l 366 -85 l 479 -85 z "},"ș":{"ha":694,"x_min":86,"x_max":606,"o":"m 551 664 q 378 692 472 692 q 257 629 291 692 q 244 584 247 611 q 252 532 241 556 q 283 490 262 508 q 366 440 315 460 q 444 408 418 420 q 494 382 470 397 q 538 350 517 368 q 574 309 559 332 q 604 197 606 260 q 580 95 602 134 q 521 33 558 56 q 327 -14 451 -14 q 86 31 203 -14 l 106 134 q 330 88 214 91 q 471 145 439 84 q 475 237 496 191 q 399 308 456 279 q 338 336 372 322 q 265 369 304 350 q 194 416 226 388 q 123 579 123 479 l 123 589 q 148 681 123 641 q 209 745 173 720 q 380 794 278 791 q 574 764 482 794 l 551 664 m 407 -85 l 349 -366 l 262 -353 l 294 -85 l 407 -85 z "},"ȷ":{"ha":464,"x_min":-60,"x_max":291,"o":"m 176 -136 l 174 -24 l 174 785 l 290 785 l 290 -24 l 291 -81 q 278 -224 291 -184 q 247 -286 266 -264 q 197 -321 229 -308 q 56 -347 139 -347 q -60 -337 9 -347 l -47 -226 q 82 -252 37 -252 q 148 -231 128 -252 q 172 -190 168 -210 q 176 -136 176 -170 z "},"ˆ":{"ha":542,"x_min":5,"x_max":536,"o":"m 63 879 l 5 953 l 271 1165 l 536 953 l 481 880 l 271 1041 l 63 879 z "},"ˇ":{"ha":511,"x_min":5,"x_max":505,"o":"m 5 1072 l 63 1149 l 256 1003 l 449 1147 l 505 1072 l 256 879 l 5 1072 z "},"˘":{"ha":439,"x_min":5,"x_max":435,"o":"m 220 890 q 141 901 177 890 q 76 932 104 911 q 5 1051 18 975 l 94 1078 q 142 1005 102 1033 q 208 981 177 981 q 259 987 239 981 q 298 1005 280 993 q 346 1078 338 1033 l 435 1051 q 363 932 422 976 q 220 890 305 890 z "},"˙":{"ha":129,"x_min":5,"x_max":124,"o":"m 5 1086 l 124 1086 l 124 926 l 5 926 l 5 1086 z "},"˚":{"ha":349,"x_min":5,"x_max":344,"o":"m 174 900 q 54 940 102 900 q 5 1053 5 981 q 54 1168 5 1126 q 174 1208 101 1208 q 294 1168 248 1208 q 344 1053 344 1126 q 294 940 344 981 q 174 900 247 900 m 174 963 q 235 987 211 963 q 259 1053 259 1012 q 235 1119 259 1095 q 174 1144 211 1144 q 114 1119 138 1144 q 90 1053 90 1095 q 114 987 90 1012 q 174 963 138 963 z "},"˛":{"ha":275,"x_min":25,"x_max":276,"o":"m 276 -298 q 178 -323 221 -323 q 109 -315 135 -323 q 65 -289 83 -306 q 25 -190 25 -253 q 68 -64 25 -133 q 153 23 109 3 l 229 14 q 143 -94 172 -33 q 131 -133 134 -114 q 130 -169 128 -153 q 140 -198 132 -186 q 196 -226 158 -226 q 259 -218 233 -226 l 276 -298 z "},"˜":{"ha":499,"x_min":5,"x_max":494,"o":"m 5 949 q 67 1037 28 1004 q 142 1074 105 1070 q 204 1067 178 1078 q 254 1042 230 1056 q 300 1013 254 1042 q 424 1065 376 968 l 494 1023 q 432 936 471 968 q 245 940 353 870 q 160 979 184 979 q 75 909 110 979 l 5 949 z "},"˝":{"ha":590,"x_min":39,"x_max":653,"o":"m 39 951 l 266 1144 l 357 1085 l 87 873 l 39 951 m 332 951 l 562 1141 l 653 1081 l 380 873 l 332 951 z "},"Δ":{"ha":1041,"x_min":123,"x_max":918,"o":"m 123 90 l 450 1029 l 591 1029 l 918 90 l 918 0 l 123 0 l 123 90 m 789 102 l 591 683 l 520 918 l 450 683 l 252 102 l 789 102 z "},"Ω":{"ha":1276,"x_min":197,"x_max":1080,"o":"m 864 98 q 1080 117 960 102 l 1080 0 l 718 0 l 718 109 q 925 419 870 161 q 943 586 943 503 q 918 743 943 670 q 849 861 892 816 q 638 948 768 948 q 430 861 513 948 q 334 566 334 762 q 378 325 334 454 q 479 157 414 221 q 559 108 513 123 l 558 0 l 197 0 l 197 117 q 412 98 317 102 q 232 389 283 203 q 211 575 211 466 q 247 775 211 685 q 343 926 283 865 q 638 1048 464 1048 q 931 929 810 1048 q 1066 566 1066 796 q 993 255 1066 389 q 864 98 941 160 z "},"π":{"ha":922,"x_min":77,"x_max":861,"o":"m 652 -14 q 598 228 598 49 l 598 684 l 374 684 q 294 55 361 271 q 267 -14 281 12 l 161 33 q 248 481 219 139 q 258 688 256 584 q 96 667 180 690 l 77 755 q 326 784 147 782 q 436 785 378 785 l 861 785 l 855 684 l 714 684 l 714 228 q 741 53 714 117 q 756 27 748 35 l 652 -14 z "},"Ḃ":{"ha":926,"x_min":134,"x_max":842,"o":"m 134 1055 l 395 1055 q 667 1000 579 1055 q 774 787 770 936 q 681 583 776 649 q 618 552 652 563 q 768 490 705 549 q 838 298 842 419 q 734 68 834 140 q 423 0 633 -3 l 134 0 l 134 1055 m 426 585 q 652 787 659 578 q 505 947 650 922 q 395 954 456 954 l 250 954 l 250 585 l 426 585 m 423 102 q 633 137 564 99 q 716 284 713 181 q 625 463 720 422 q 512 486 574 484 q 410 488 450 488 l 250 488 l 250 102 l 423 102 m 423 1369 l 543 1369 l 543 1208 l 423 1208 l 423 1369 z "},"ḃ":{"ha":926,"x_min":132,"x_max":796,"o":"m 136 35 q 132 1099 136 951 l 250 1108 l 250 703 q 472 794 367 794 q 709 691 623 794 q 793 394 796 585 q 640 47 791 150 q 419 -14 549 -14 q 136 35 290 -14 m 250 271 l 250 168 q 249 106 249 138 q 391 85 327 85 q 498 95 455 85 q 581 136 541 104 q 646 232 620 167 q 672 381 671 297 q 661 522 673 466 q 623 616 648 578 q 475 695 570 695 q 250 606 353 695 l 250 271 m 439 1086 l 559 1086 l 559 926 l 439 926 l 439 1086 z "},"Ḋ":{"ha":1045,"x_min":149,"x_max":970,"o":"m 149 0 l 149 1054 l 476 1054 q 945 745 865 1054 q 970 526 970 648 l 970 498 q 841 131 970 260 q 471 0 710 0 l 149 0 m 267 106 l 471 106 q 753 214 654 106 q 849 498 849 318 l 849 526 q 760 842 845 743 q 473 947 670 947 l 267 947 l 267 106 m 443 1369 l 562 1369 l 562 1208 l 443 1208 l 443 1369 z "},"ḋ":{"ha":929,"x_min":90,"x_max":758,"o":"m 640 102 q 390 -14 521 -14 q 118 189 185 -16 q 92 375 90 276 q 112 549 94 475 q 167 678 130 623 q 408 794 248 794 q 639 738 531 792 l 639 1108 l 753 1099 l 753 741 q 758 0 753 73 l 652 0 l 640 102 m 642 654 q 416 695 545 692 q 223 507 252 695 q 245 183 192 303 q 399 87 288 87 q 640 202 532 87 l 640 536 q 641 593 640 564 q 642 654 642 622 m 315 1086 l 434 1086 l 434 926 l 315 926 l 315 1086 z "},"Ḟ":{"ha":811,"x_min":149,"x_max":747,"o":"m 149 1054 l 747 1054 l 741 945 l 267 945 l 267 593 l 690 593 l 690 486 l 267 486 l 267 0 l 149 0 l 149 1054 m 433 1369 l 553 1369 l 553 1208 l 433 1208 l 433 1369 z "},"ḟ":{"ha":579,"x_min":76,"x_max":551,"o":"m 307 916 l 309 848 l 309 785 l 501 785 l 501 689 l 309 689 l 309 0 l 193 0 l 193 689 l 76 689 l 76 785 l 193 785 l 193 855 q 191 907 191 881 q 194 957 191 932 q 205 1002 197 981 q 260 1066 220 1042 q 432 1109 328 1109 q 551 1099 479 1109 l 536 987 q 402 1013 449 1013 q 335 992 355 1013 q 311 955 315 972 q 307 916 307 938 m 195 1281 l 314 1281 l 314 1121 l 195 1121 l 195 1281 z "},"Ṁ":{"ha":1275,"x_min":112,"x_max":1162,"o":"m 112 0 l 112 1054 l 308 1054 l 637 191 l 970 1054 l 1162 1054 l 1162 0 l 1045 0 l 1045 764 q 1046 869 1045 818 q 1048 961 1047 920 l 715 102 l 558 102 l 227 961 l 228 883 q 229 764 229 818 l 229 0 l 112 0 m 578 1369 l 697 1369 l 697 1208 l 578 1208 l 578 1369 z "},"ṁ":{"ha":1390,"x_min":132,"x_max":1246,"o":"m 140 0 l 140 230 q 138 604 140 523 l 136 711 q 132 785 134 773 l 248 791 q 247 769 248 783 q 247 736 247 756 l 247 686 l 298 722 q 494 794 401 794 q 643 765 587 794 q 725 675 698 736 q 777 711 734 681 q 850 757 820 741 q 990 794 922 794 q 1181 735 1119 794 q 1246 547 1242 675 l 1246 0 l 1131 0 l 1131 505 q 1100 651 1131 610 q 995 692 1069 692 q 885 675 928 692 q 812 641 842 658 l 747 602 l 745 601 q 750 547 750 578 l 750 0 l 635 0 l 635 505 q 605 651 635 609 q 500 692 576 692 q 391 675 434 692 q 318 641 348 658 l 253 602 l 254 541 q 256 436 256 489 l 256 0 l 140 0 m 629 1086 l 749 1086 l 749 926 l 629 926 l 629 1086 z "},"Ṗ":{"ha":924,"x_min":141,"x_max":850,"o":"m 141 1054 l 433 1054 q 827 848 758 1058 q 849 696 850 779 q 820 546 847 612 q 742 430 793 479 q 434 330 631 327 l 259 330 l 259 0 l 141 0 l 141 1054 m 434 431 q 705 583 641 429 q 727 694 726 632 q 712 804 728 756 q 662 884 697 851 q 433 949 591 949 l 259 949 l 259 431 l 434 431 m 435 1369 l 555 1369 l 555 1208 l 435 1208 l 435 1369 z "},"ṗ":{"ha":926,"x_min":127,"x_max":795,"o":"m 446 -14 q 250 33 356 -14 l 250 -325 l 134 -325 q 127 785 134 659 l 240 794 l 240 673 q 487 794 354 791 q 769 586 703 799 q 795 407 795 502 q 775 236 795 311 q 715 104 755 160 q 460 -14 627 -14 q 446 -14 453 -14 m 246 579 l 250 420 l 250 132 q 372 92 336 97 q 542 101 488 75 q 624 170 595 127 q 675 399 677 249 q 578 671 673 608 q 498 694 543 694 q 420 684 452 693 q 360 663 387 675 q 313 636 334 651 q 278 610 292 622 q 255 589 263 597 q 246 579 247 580 m 428 1086 l 547 1086 l 547 926 l 428 926 l 428 1086 z "},"Ṡ":{"ha":810,"x_min":78,"x_max":736,"o":"m 431 1063 l 453 1064 q 686 1024 555 1064 l 664 922 q 260 873 363 1019 q 229 781 229 831 q 246 702 229 731 q 291 651 262 673 q 414 587 336 616 q 546 530 493 557 q 642 466 600 503 q 736 276 736 384 q 698 130 736 188 q 612 41 661 71 q 382 -14 522 -14 q 78 42 239 -14 l 99 146 q 385 91 229 97 q 581 168 516 86 q 614 258 614 212 q 596 334 614 304 q 547 389 578 364 q 414 463 492 436 q 287 515 337 490 q 197 575 237 540 q 109 774 109 653 q 298 1040 109 971 q 431 1063 362 1063 m 347 1369 l 467 1369 l 467 1208 l 347 1208 l 347 1369 z "},"ṡ":{"ha":694,"x_min":86,"x_max":606,"o":"m 551 664 q 378 692 472 692 q 257 629 291 692 q 244 584 247 611 q 252 532 241 556 q 283 490 262 508 q 366 440 315 460 q 444 408 418 420 q 494 382 470 397 q 538 350 517 368 q 574 309 559 332 q 604 197 606 260 q 580 95 602 134 q 521 33 558 56 q 327 -14 451 -14 q 86 31 203 -14 l 106 134 q 330 88 214 91 q 471 145 439 84 q 475 237 496 191 q 399 308 456 279 q 338 336 372 322 q 265 369 304 350 q 194 416 226 388 q 123 579 123 479 l 123 589 q 148 681 123 641 q 209 745 173 720 q 380 794 278 791 q 574 764 482 794 l 551 664 m 300 1086 l 419 1086 l 419 926 l 300 926 l 300 1086 z "},"Ṫ":{"ha":1044,"x_min":115,"x_max":922,"o":"m 463 0 l 463 945 l 115 945 l 115 1054 l 922 1054 l 922 945 l 581 945 l 581 0 l 463 0 m 464 1369 l 583 1369 l 583 1208 l 464 1208 l 464 1369 z "},"ṫ":{"ha":578,"x_min":42,"x_max":545,"o":"m 545 24 q 352 -14 448 -14 q 214 28 258 -12 q 165 176 165 73 q 165 190 165 183 q 166 204 165 197 l 170 689 l 42 689 l 45 785 l 174 785 q 166 947 174 898 l 283 966 l 288 785 l 502 785 l 502 689 l 286 689 l 283 212 q 295 121 280 143 q 329 94 310 100 q 389 88 347 88 q 524 119 431 88 l 545 24 m 171 1219 l 290 1219 l 290 1059 l 171 1059 l 171 1219 z "},"Ẁ":{"ha":1389,"x_min":12,"x_max":1377,"o":"m 309 0 l 218 309 l 12 1054 l 145 1054 l 330 334 l 387 108 l 439 334 l 624 1054 l 768 1054 l 951 334 l 1002 108 l 1244 1054 l 1377 1054 l 1177 326 l 1081 0 l 922 0 l 743 702 l 698 917 l 692 917 l 646 702 l 467 0 l 309 0 m 708 1095 l 477 1286 l 554 1370 l 771 1164 l 708 1095 z "},"ẁ":{"ha":1157,"x_min":-1,"x_max":1158,"o":"m 241 0 l -1 785 l 130 785 l 321 71 l 347 174 l 509 785 l 650 785 l 811 174 l 836 71 l 1027 785 l 1158 785 l 916 0 l 747 0 l 600 579 l 579 686 l 557 579 l 411 0 l 241 0 m 682 879 l 411 1113 l 488 1196 l 745 948 l 682 879 z "},"Ẃ":{"ha":1389,"x_min":12,"x_max":1377,"o":"m 309 0 l 218 309 l 12 1054 l 145 1054 l 330 334 l 387 108 l 439 334 l 624 1054 l 768 1054 l 951 334 l 1002 108 l 1244 1054 l 1377 1054 l 1177 326 l 1081 0 l 922 0 l 743 702 l 698 917 l 692 917 l 646 702 l 467 0 l 309 0 m 708 1095 l 645 1164 l 862 1370 l 939 1286 l 708 1095 z "},"ẃ":{"ha":1157,"x_min":-1,"x_max":1158,"o":"m 241 0 l -1 785 l 130 785 l 321 71 l 347 174 l 509 785 l 650 785 l 811 174 l 836 71 l 1027 785 l 1158 785 l 916 0 l 747 0 l 600 579 l 579 686 l 557 579 l 411 0 l 241 0 m 411 948 l 668 1196 l 745 1113 l 473 879 l 411 948 z "},"Ẅ":{"ha":1389,"x_min":12,"x_max":1377,"o":"m 309 0 l 218 309 l 12 1054 l 145 1054 l 330 334 l 387 108 l 439 334 l 624 1054 l 768 1054 l 951 334 l 1002 108 l 1244 1054 l 1377 1054 l 1177 326 l 1081 0 l 922 0 l 743 702 l 698 917 l 692 917 l 646 702 l 467 0 l 309 0 m 766 1306 l 886 1306 l 886 1152 l 766 1152 l 766 1306 m 504 1306 l 623 1306 l 623 1152 l 504 1152 l 504 1306 z "},"ẅ":{"ha":1157,"x_min":-1,"x_max":1158,"o":"m 241 0 l -1 785 l 130 785 l 321 71 l 347 174 l 509 785 l 650 785 l 811 174 l 836 71 l 1027 785 l 1158 785 l 916 0 l 747 0 l 600 579 l 579 686 l 557 579 l 411 0 l 241 0 m 649 1075 l 770 1075 l 770 924 l 649 924 l 649 1075 m 386 1075 l 507 1075 l 507 924 l 386 924 l 386 1075 z "},"Ỳ":{"ha":811,"x_min":-14,"x_max":825,"o":"m 346 385 q 255 548 300 463 q -14 1054 35 971 l 125 1054 l 406 496 l 686 1054 l 825 1054 l 464 385 l 464 0 l 346 0 l 346 385 m 419 1095 l 189 1286 l 265 1370 l 482 1164 l 419 1095 z "},"ỳ":{"ha":810,"x_min":43,"x_max":759,"o":"m 43 785 l 170 785 l 399 91 l 630 785 l 759 785 l 341 -366 l 208 -320 q 376 0 345 -62 l 319 0 l 43 785 m 503 879 l 232 1113 l 309 1196 l 566 948 l 503 879 z "},"–":{"ha":926,"x_min":108,"x_max":818,"o":"m 108 452 l 818 452 l 818 355 l 108 355 l 108 452 z "},"—":{"ha":1734,"x_min":119,"x_max":1614,"o":"m 119 452 l 1614 452 l 1614 355 l 119 355 l 119 452 z "},"‘":{"ha":347,"x_min":85,"x_max":262,"o":"m 85 753 q 92 925 85 878 q 173 1099 108 1029 l 262 1077 q 203 941 218 1027 q 199 890 199 915 l 199 762 l 85 753 z "},"’":{"ha":347,"x_min":85,"x_max":262,"o":"m 85 779 q 143 913 127 825 q 148 966 148 940 l 148 1092 l 262 1102 q 255 930 262 978 q 226 836 248 883 q 174 756 204 788 l 85 779 z "},"‚":{"ha":347,"x_min":84,"x_max":262,"o":"m 147 178 l 262 189 q 255 19 262 68 q 174 -157 239 -85 l 84 -135 q 142 0 128 -87 q 147 52 147 26 l 147 178 z "},"“":{"ha":579,"x_min":77,"x_max":502,"o":"m 325 753 q 332 925 325 878 q 412 1099 348 1028 l 502 1077 q 444 941 457 1026 q 439 890 439 915 l 439 762 l 325 753 m 77 753 q 84 925 77 878 q 165 1099 100 1029 l 254 1077 q 195 941 210 1027 q 191 890 191 915 l 191 762 l 77 753 z "},"”":{"ha":579,"x_min":77,"x_max":503,"o":"m 254 1099 q 247 927 254 975 q 167 753 231 824 l 77 775 q 136 911 122 826 q 140 962 140 937 l 140 1090 l 254 1099 m 503 1099 q 495 927 503 975 q 414 753 479 823 l 326 775 q 384 911 369 825 q 388 962 388 937 l 388 1090 l 503 1099 z "},"„":{"ha":579,"x_min":77,"x_max":503,"o":"m 254 186 q 247 14 254 62 q 167 -159 231 -89 l 77 -138 q 136 -2 122 -87 q 140 50 140 24 l 140 177 l 254 186 m 503 186 q 495 14 503 62 q 414 -159 479 -90 l 326 -138 q 384 -2 369 -87 q 388 50 388 24 l 388 177 l 503 186 z "},"†":{"ha":811,"x_min":146,"x_max":665,"o":"m 429 749 q 406 755 420 755 q 380 747 391 755 l 361 891 q 354 965 355 917 q 353 1030 353 1013 q 353 1061 353 1048 l 353 1078 l 458 1078 l 458 1061 q 457 1030 458 1048 q 457 991 457 1012 q 456 952 456 971 q 450 891 454 908 l 429 749 m 450 709 q 444 734 450 724 l 557 753 q 626 761 594 761 l 665 761 l 665 659 l 647 659 q 557 667 594 659 l 444 684 q 450 709 450 694 m 359 709 q 367 684 359 697 l 254 667 q 184 659 216 659 l 146 659 l 146 761 l 164 761 q 254 753 216 761 l 367 734 q 359 709 359 720 m 353 -72 l 353 23 q 353 115 353 64 l 354 221 q 361 529 355 503 l 380 672 q 404 664 391 664 q 429 672 418 664 l 450 529 q 456 391 455 506 l 457 117 q 458 24 458 65 l 458 -72 l 353 -72 z "},"‡":{"ha":811,"x_min":146,"x_max":665,"o":"m 429 749 q 406 755 420 755 q 380 747 391 755 l 361 891 q 354 965 355 917 q 353 1030 353 1013 q 353 1061 353 1048 l 353 1078 l 458 1078 l 458 1061 q 457 1030 458 1048 q 457 991 457 1012 q 456 952 456 971 q 450 891 454 908 l 429 749 m 450 709 q 444 734 450 724 l 557 753 q 626 761 594 761 l 665 761 l 665 659 l 647 659 q 557 667 594 659 l 444 684 q 450 709 450 694 m 359 709 q 367 684 359 697 l 254 667 q 184 659 216 659 l 146 659 l 146 761 l 164 761 q 254 753 216 761 l 367 734 q 359 709 359 720 m 404 328 q 380 320 393 328 l 361 412 q 355 467 355 438 q 361 576 355 519 l 380 672 q 404 664 391 664 q 429 672 418 664 l 450 576 q 456 475 456 511 q 450 412 456 439 l 429 320 q 404 328 416 328 m 450 283 q 444 307 450 298 l 557 325 q 627 332 594 332 l 665 332 l 665 231 l 646 231 q 557 238 594 231 l 444 258 q 450 283 450 267 m 359 283 q 367 258 359 271 l 254 238 q 184 231 216 231 l 146 231 l 146 332 l 164 332 q 254 325 216 332 l 367 307 q 359 283 359 294 m 404 237 q 429 243 420 237 l 450 106 q 456 37 456 84 q 457 -26 457 -9 q 458 -56 458 -43 l 458 -72 l 353 -72 l 353 -56 q 353 -27 353 -44 q 354 9 353 -10 q 355 47 354 29 q 361 106 357 92 l 380 244 q 404 237 392 237 z "},"•":{"ha":463,"x_min":64,"x_max":397,"o":"m 231 268 q 166 279 197 268 q 114 311 136 290 q 64 430 64 356 q 114 552 64 506 q 231 596 160 596 q 349 555 303 596 q 397 430 397 510 q 349 309 397 353 q 231 268 302 268 z "},"…":{"ha":1388,"x_min":153,"x_max":1235,"o":"m 1078 138 l 1235 138 l 1235 0 l 1078 0 l 1078 138 m 615 138 l 772 138 l 772 0 l 615 0 l 615 138 m 153 138 l 310 138 l 310 0 l 153 0 l 153 138 z "},"‰":{"ha":1851,"x_min":67,"x_max":1729,"o":"m 256 22 l 907 1094 l 984 1055 l 334 -19 l 256 22 m 421 526 q 318 507 376 507 q 213 526 260 507 q 134 581 166 545 q 67 789 67 654 q 134 998 67 923 q 319 1072 200 1072 q 498 998 433 1072 q 564 789 564 922 q 421 526 564 585 m 317 590 q 369 602 345 590 q 413 637 394 613 q 455 789 455 692 q 413 941 455 886 q 319 989 376 989 q 221 941 259 989 q 178 789 178 887 q 221 637 178 691 q 317 590 258 590 m 1251 160 q 1234 281 1234 213 q 1251 401 1234 349 q 1301 490 1268 453 q 1485 564 1367 564 q 1664 490 1599 564 q 1729 281 1729 414 q 1664 72 1729 146 q 1485 -1 1600 -1 q 1251 160 1304 -1 m 685 160 q 668 281 668 213 q 685 401 668 349 q 735 490 703 453 q 920 564 801 564 q 1100 490 1035 564 q 1165 281 1165 414 q 1100 72 1165 146 q 920 -1 1036 -1 q 685 160 739 -1 m 1345 281 q 1356 192 1345 229 q 1388 130 1368 154 q 1485 81 1426 81 q 1579 130 1541 81 q 1622 281 1622 183 q 1579 433 1622 379 q 1485 481 1541 481 q 1388 433 1426 481 q 1345 281 1345 379 m 780 281 q 791 192 780 229 q 822 130 803 154 q 920 81 861 81 q 1014 130 977 81 q 1056 281 1056 184 q 1014 433 1056 378 q 920 481 977 481 q 822 433 861 481 q 780 281 780 379 z "},"‹":{"ha":578,"x_min":127,"x_max":450,"o":"m 384 67 l 127 394 l 384 719 l 448 662 l 261 394 l 450 125 l 384 67 z "},"›":{"ha":578,"x_min":128,"x_max":450,"o":"m 194 67 l 450 394 l 194 719 l 130 662 l 317 394 l 128 125 l 194 67 z "},"⁄":{"ha":1275,"x_min":261,"x_max":1014,"o":"m 926 1115 l 1014 1064 l 349 -38 l 261 0 l 926 1115 z "},"€":{"ha":810,"x_min":9,"x_max":800,"o":"m 800 18 q 612 -3 702 -3 q 441 24 522 -3 q 302 102 361 51 q 161 393 185 205 l 9 393 l 9 472 l 155 472 l 155 584 l 9 584 l 9 664 l 159 664 q 289 963 182 863 q 631 1075 407 1075 q 748 1062 690 1075 l 716 963 q 614 972 680 972 q 487 952 548 972 q 382 892 425 932 q 282 664 303 819 l 655 664 l 652 584 l 276 584 q 274 551 274 572 l 274 472 l 532 472 l 529 393 l 282 393 q 491 121 319 183 q 624 100 549 100 q 778 119 698 100 l 800 18 z "},"™":{"ha":1507,"x_min":195,"x_max":1312,"o":"m 706 1038 l 853 1038 l 995 710 q 1132 1038 995 710 l 1286 1038 l 1312 563 l 1217 563 l 1192 934 l 1050 612 l 941 612 l 800 931 l 781 563 l 686 563 l 706 1038 m 342 947 l 195 947 l 195 1038 l 587 1038 l 587 947 l 438 947 l 438 563 l 342 563 l 342 947 z "},"∂":{"ha":924,"x_min":112,"x_max":809,"o":"m 124 1026 q 332 1086 224 1086 q 522 1050 441 1086 q 663 953 603 1015 q 809 538 809 800 q 793 363 809 456 q 742 199 777 271 q 657 81 707 127 q 418 -9 560 -9 q 192 73 273 -9 q 115 288 112 153 q 220 548 121 447 q 453 644 313 644 q 639 568 574 644 l 630 491 q 469 545 556 545 q 376 528 415 545 q 311 486 337 511 q 268 430 286 461 q 235 289 232 365 q 328 110 235 157 q 404 92 363 92 l 414 92 q 583 164 515 92 q 686 457 668 252 q 690 535 690 496 q 685 628 690 574 q 655 749 680 683 q 587 865 630 814 q 338 979 490 979 q 161 934 255 979 l 124 1026 z "},"∏":{"ha":1042,"x_min":92,"x_max":949,"o":"m 234 909 l 92 909 l 97 1019 l 949 1019 l 945 909 l 808 909 l 808 -138 l 690 -138 l 690 909 l 354 909 l 354 -138 l 234 -138 l 234 909 z "},"∑":{"ha":926,"x_min":74,"x_max":852,"o":"m 439 443 l 105 937 l 123 1019 l 800 1019 l 795 909 l 256 909 l 577 441 l 224 -27 l 852 -27 l 848 -135 l 92 -135 l 74 -54 l 439 443 z "},"−":{"ha":811,"x_min":92,"x_max":718,"o":"m 92 558 l 718 558 l 718 479 l 92 479 l 92 558 z "},"√":{"ha":1045,"x_min":52,"x_max":951,"o":"m 212 513 q 104 461 168 513 l 52 536 q 235 614 142 614 q 327 567 292 614 q 406 399 365 518 l 510 90 q 532 19 510 90 q 543 -16 540 -5 q 560 68 549 16 l 623 337 l 860 1308 l 951 1286 l 597 -148 l 491 -148 l 292 410 q 267 469 276 452 q 212 513 242 513 z "},"∞":{"ha":1273,"x_min":95,"x_max":1178,"o":"m 332 184 q 237 202 281 184 q 161 252 193 220 q 95 427 95 321 q 167 602 95 529 q 348 675 239 675 q 575 559 460 675 l 637 497 l 700 561 q 939 675 814 675 q 1111 606 1044 675 q 1178 427 1178 536 q 1106 256 1178 327 q 923 184 1032 184 q 698 299 813 184 l 637 359 l 572 297 q 332 184 457 184 m 699 427 q 749 378 724 404 q 800 331 774 353 q 926 279 863 279 q 1031 323 989 279 q 1074 427 1074 367 q 1034 536 1074 493 q 932 579 994 579 q 749 479 845 579 l 699 427 m 346 279 q 411 293 380 279 q 469 329 441 307 q 522 376 497 350 l 572 427 q 524 477 548 450 q 473 526 499 504 q 348 579 412 579 q 240 534 283 579 q 198 427 198 490 q 239 321 198 363 q 346 279 280 279 z "},"∫":{"ha":582,"x_min":28,"x_max":492,"o":"m 45 -138 q 93 -148 73 -148 q 155 -131 132 -148 q 213 1 200 -100 q 225 185 225 92 q 223 338 225 279 q 217 450 220 397 l 210 552 q 201 732 201 671 q 203 839 201 794 q 211 922 205 883 q 226 995 216 960 q 252 1059 236 1030 q 291 1109 267 1088 q 422 1154 342 1154 q 492 1144 468 1154 l 473 1054 q 419 1063 442 1063 q 376 1049 397 1063 q 343 1011 356 1035 q 322 958 330 988 q 312 895 315 927 q 307 778 307 848 q 311 656 307 707 q 318 555 314 604 l 326 452 q 334 260 334 347 q 298 -90 334 26 q 200 -222 269 -183 q 125 -243 163 -243 q 28 -228 56 -243 l 45 -138 z "},"≈":{"ha":811,"x_min":51,"x_max":760,"o":"m 760 541 q 556 463 677 463 q 426 500 492 463 l 344 547 q 190 576 253 601 q 99 507 142 558 l 51 589 q 241 673 138 673 q 382 631 308 673 l 464 584 q 683 597 576 517 q 711 623 699 609 l 760 541 m 760 232 q 556 154 676 154 q 426 191 492 154 l 344 238 q 190 267 250 292 q 99 198 142 248 l 51 280 q 241 364 138 364 q 382 321 307 364 l 464 275 q 683 288 576 208 q 711 313 699 300 l 760 232 z "},"≠":{"ha":811,"x_min":124,"x_max":687,"o":"m 124 210 l 295 210 l 437 483 l 124 483 l 124 570 l 482 570 l 581 758 l 646 711 l 572 570 l 687 570 l 687 483 l 528 483 l 385 210 l 687 210 l 687 123 l 340 123 l 251 -49 l 185 -1 l 250 123 l 124 123 l 124 210 z "},"≤":{"ha":694,"x_min":87,"x_max":608,"o":"m 108 596 l 501 837 l 548 766 l 189 553 l 548 338 l 501 268 l 108 509 l 108 596 m 87 216 l 608 216 l 608 140 l 87 140 l 87 216 z "},"≥":{"ha":694,"x_min":87,"x_max":608,"o":"m 587 596 l 193 837 l 146 766 l 506 553 l 146 338 l 193 268 l 587 509 l 587 596 m 608 216 l 87 216 l 87 140 l 608 140 l 608 216 z "},"◊":{"ha":811,"x_min":87,"x_max":724,"o":"m 87 485 l 87 542 l 353 1057 l 459 1057 l 724 542 l 724 485 l 459 -33 l 353 -33 l 87 485 m 360 161 q 406 45 389 102 q 451 161 414 84 l 628 512 l 451 863 q 406 979 414 939 q 360 863 389 921 l 182 512 l 360 161 z "},"ﬀ":{"ha":926,"x_min":14,"x_max":954,"o":"m 695 916 l 697 848 l 697 785 l 890 785 l 890 689 l 697 689 l 697 0 l 581 0 l 581 689 l 247 689 l 247 0 l 131 0 l 131 689 l 14 689 l 14 785 l 131 785 l 131 855 q 130 914 130 881 q 210 1074 130 1034 q 322 1105 266 1101 q 409 1109 378 1109 q 657 1066 549 1109 q 838 1107 719 1107 q 954 1099 888 1107 l 939 987 q 812 1013 855 1013 q 700 955 715 1013 q 695 916 695 938 m 245 914 l 247 846 l 247 785 l 581 785 l 581 880 q 590 981 581 941 q 469 1018 578 1006 q 410 1021 437 1021 q 362 1019 383 1021 q 323 1013 341 1017 q 250 952 261 999 q 245 914 245 935 z "},"ﬁ":{"ha":810,"x_min":35,"x_max":707,"o":"m 266 914 l 268 846 l 268 785 l 707 785 l 707 0 l 591 0 l 591 689 l 268 689 l 268 0 l 152 0 l 152 689 l 35 689 l 35 785 l 152 785 l 152 855 q 151 914 151 881 q 340 1107 151 1090 q 407 1109 372 1109 q 484 1106 443 1109 q 563 1099 525 1103 q 634 1089 601 1095 q 692 1081 667 1084 l 676 975 q 623 983 655 976 l 551 997 q 406 1017 452 1017 q 270 952 287 1017 q 266 914 266 935 z "},"ﬂ":{"ha":926,"x_min":-2,"x_max":939,"o":"m 229 914 l 231 846 l 231 785 l 403 785 l 403 689 l 231 689 l 231 0 l 115 0 l 115 689 l -2 689 l -2 785 l 115 785 l 115 855 q 113 907 113 881 q 116 957 113 932 q 127 1002 119 981 q 185 1069 142 1042 q 372 1109 252 1109 q 595 1085 492 1109 l 702 1108 l 701 212 q 724 110 698 137 q 789 90 745 90 q 917 113 833 90 l 939 14 q 797 -13 850 -11 q 705 -5 743 -14 q 640 28 667 4 q 584 204 581 81 l 586 994 q 391 1021 496 1021 l 375 1021 q 233 952 250 1021 q 229 914 229 935 z "}}}
